<?xml version="1.0" encoding="utf-8" standalone="no"?>
<!DOCTYPE svg PUBLIC "-//W3C//DTD SVG 1.1//EN"
  "http://www.w3.org/Graphics/SVG/1.1/DTD/svg11.dtd">
<!-- Created with matplotlib (https://matplotlib.org/) -->
<svg height="288pt" version="1.1" viewBox="0 0 432 288" width="432pt" xmlns="http://www.w3.org/2000/svg" xmlns:xlink="http://www.w3.org/1999/xlink">
 <defs>
  <style type="text/css">
*{stroke-linecap:butt;stroke-linejoin:round;}
  </style>
 </defs>
 <g id="figure_1">
  <g id="patch_1">
   <path d="M 0 288 
L 432 288 
L 432 0 
L 0 0 
z
" style="fill:#ffffff;"/>
  </g>
  <g id="axes_1">
   <g id="patch_2">
    <path d="M 54 252 
L 388.8 252 
L 388.8 34.56 
L 54 34.56 
z
" style="fill:#ffffff;"/>
   </g>
   <g id="matplotlib.axis_1">
    <g id="xtick_1">
     <g id="line2d_1">
      <defs>
       <path d="M 0 0 
L 0 3.5 
" id="me3e87bdda0" style="stroke:#000000;stroke-width:0.8;"/>
      </defs>
      <g>
       <use style="stroke:#000000;stroke-width:0.8;" x="54" xlink:href="#me3e87bdda0" y="252"/>
      </g>
     </g>
     <g id="text_1">
      <!-- 0.0 -->
      <defs>
       <path d="M 31.78125 66.40625 
Q 24.171875 66.40625 20.328125 58.90625 
Q 16.5 51.421875 16.5 36.375 
Q 16.5 21.390625 20.328125 13.890625 
Q 24.171875 6.390625 31.78125 6.390625 
Q 39.453125 6.390625 43.28125 13.890625 
Q 47.125 21.390625 47.125 36.375 
Q 47.125 51.421875 43.28125 58.90625 
Q 39.453125 66.40625 31.78125 66.40625 
z
M 31.78125 74.21875 
Q 44.046875 74.21875 50.515625 64.515625 
Q 56.984375 54.828125 56.984375 36.375 
Q 56.984375 17.96875 50.515625 8.265625 
Q 44.046875 -1.421875 31.78125 -1.421875 
Q 19.53125 -1.421875 13.0625 8.265625 
Q 6.59375 17.96875 6.59375 36.375 
Q 6.59375 54.828125 13.0625 64.515625 
Q 19.53125 74.21875 31.78125 74.21875 
z
" id="DejaVuSans-48"/>
       <path d="M 10.6875 12.40625 
L 21 12.40625 
L 21 0 
L 10.6875 0 
z
" id="DejaVuSans-46"/>
      </defs>
      <g transform="translate(46.048437 266.598437)scale(0.1 -0.1)">
       <use xlink:href="#DejaVuSans-48"/>
       <use x="63.623047" xlink:href="#DejaVuSans-46"/>
       <use x="95.410156" xlink:href="#DejaVuSans-48"/>
      </g>
     </g>
    </g>
    <g id="xtick_2">
     <g id="line2d_2">
      <g>
       <use style="stroke:#000000;stroke-width:0.8;" x="95.85" xlink:href="#me3e87bdda0" y="252"/>
      </g>
     </g>
     <g id="text_2">
      <!-- 2.5 -->
      <defs>
       <path d="M 19.1875 8.296875 
L 53.609375 8.296875 
L 53.609375 0 
L 7.328125 0 
L 7.328125 8.296875 
Q 12.9375 14.109375 22.625 23.890625 
Q 32.328125 33.6875 34.8125 36.53125 
Q 39.546875 41.84375 41.421875 45.53125 
Q 43.3125 49.21875 43.3125 52.78125 
Q 43.3125 58.59375 39.234375 62.25 
Q 35.15625 65.921875 28.609375 65.921875 
Q 23.96875 65.921875 18.8125 64.3125 
Q 13.671875 62.703125 7.8125 59.421875 
L 7.8125 69.390625 
Q 13.765625 71.78125 18.9375 73 
Q 24.125 74.21875 28.421875 74.21875 
Q 39.75 74.21875 46.484375 68.546875 
Q 53.21875 62.890625 53.21875 53.421875 
Q 53.21875 48.921875 51.53125 44.890625 
Q 49.859375 40.875 45.40625 35.40625 
Q 44.1875 33.984375 37.640625 27.21875 
Q 31.109375 20.453125 19.1875 8.296875 
z
" id="DejaVuSans-50"/>
       <path d="M 10.796875 72.90625 
L 49.515625 72.90625 
L 49.515625 64.59375 
L 19.828125 64.59375 
L 19.828125 46.734375 
Q 21.96875 47.46875 24.109375 47.828125 
Q 26.265625 48.1875 28.421875 48.1875 
Q 40.625 48.1875 47.75 41.5 
Q 54.890625 34.8125 54.890625 23.390625 
Q 54.890625 11.625 47.5625 5.09375 
Q 40.234375 -1.421875 26.90625 -1.421875 
Q 22.3125 -1.421875 17.546875 -0.640625 
Q 12.796875 0.140625 7.71875 1.703125 
L 7.71875 11.625 
Q 12.109375 9.234375 16.796875 8.0625 
Q 21.484375 6.890625 26.703125 6.890625 
Q 35.15625 6.890625 40.078125 11.328125 
Q 45.015625 15.765625 45.015625 23.390625 
Q 45.015625 31 40.078125 35.4375 
Q 35.15625 39.890625 26.703125 39.890625 
Q 22.75 39.890625 18.8125 39.015625 
Q 14.890625 38.140625 10.796875 36.28125 
z
" id="DejaVuSans-53"/>
      </defs>
      <g transform="translate(87.898438 266.598437)scale(0.1 -0.1)">
       <use xlink:href="#DejaVuSans-50"/>
       <use x="63.623047" xlink:href="#DejaVuSans-46"/>
       <use x="95.410156" xlink:href="#DejaVuSans-53"/>
      </g>
     </g>
    </g>
    <g id="xtick_3">
     <g id="line2d_3">
      <g>
       <use style="stroke:#000000;stroke-width:0.8;" x="137.7" xlink:href="#me3e87bdda0" y="252"/>
      </g>
     </g>
     <g id="text_3">
      <!-- 5.0 -->
      <g transform="translate(129.748438 266.598437)scale(0.1 -0.1)">
       <use xlink:href="#DejaVuSans-53"/>
       <use x="63.623047" xlink:href="#DejaVuSans-46"/>
       <use x="95.410156" xlink:href="#DejaVuSans-48"/>
      </g>
     </g>
    </g>
    <g id="xtick_4">
     <g id="line2d_4">
      <g>
       <use style="stroke:#000000;stroke-width:0.8;" x="179.55" xlink:href="#me3e87bdda0" y="252"/>
      </g>
     </g>
     <g id="text_4">
      <!-- 7.5 -->
      <defs>
       <path d="M 8.203125 72.90625 
L 55.078125 72.90625 
L 55.078125 68.703125 
L 28.609375 0 
L 18.3125 0 
L 43.21875 64.59375 
L 8.203125 64.59375 
z
" id="DejaVuSans-55"/>
      </defs>
      <g transform="translate(171.598438 266.598437)scale(0.1 -0.1)">
       <use xlink:href="#DejaVuSans-55"/>
       <use x="63.623047" xlink:href="#DejaVuSans-46"/>
       <use x="95.410156" xlink:href="#DejaVuSans-53"/>
      </g>
     </g>
    </g>
    <g id="xtick_5">
     <g id="line2d_5">
      <g>
       <use style="stroke:#000000;stroke-width:0.8;" x="221.4" xlink:href="#me3e87bdda0" y="252"/>
      </g>
     </g>
     <g id="text_5">
      <!-- 10.0 -->
      <defs>
       <path d="M 12.40625 8.296875 
L 28.515625 8.296875 
L 28.515625 63.921875 
L 10.984375 60.40625 
L 10.984375 69.390625 
L 28.421875 72.90625 
L 38.28125 72.90625 
L 38.28125 8.296875 
L 54.390625 8.296875 
L 54.390625 0 
L 12.40625 0 
z
" id="DejaVuSans-49"/>
      </defs>
      <g transform="translate(210.267188 266.598437)scale(0.1 -0.1)">
       <use xlink:href="#DejaVuSans-49"/>
       <use x="63.623047" xlink:href="#DejaVuSans-48"/>
       <use x="127.246094" xlink:href="#DejaVuSans-46"/>
       <use x="159.033203" xlink:href="#DejaVuSans-48"/>
      </g>
     </g>
    </g>
    <g id="xtick_6">
     <g id="line2d_6">
      <g>
       <use style="stroke:#000000;stroke-width:0.8;" x="263.25" xlink:href="#me3e87bdda0" y="252"/>
      </g>
     </g>
     <g id="text_6">
      <!-- 12.5 -->
      <g transform="translate(252.117188 266.598437)scale(0.1 -0.1)">
       <use xlink:href="#DejaVuSans-49"/>
       <use x="63.623047" xlink:href="#DejaVuSans-50"/>
       <use x="127.246094" xlink:href="#DejaVuSans-46"/>
       <use x="159.033203" xlink:href="#DejaVuSans-53"/>
      </g>
     </g>
    </g>
    <g id="xtick_7">
     <g id="line2d_7">
      <g>
       <use style="stroke:#000000;stroke-width:0.8;" x="305.1" xlink:href="#me3e87bdda0" y="252"/>
      </g>
     </g>
     <g id="text_7">
      <!-- 15.0 -->
      <g transform="translate(293.967188 266.598437)scale(0.1 -0.1)">
       <use xlink:href="#DejaVuSans-49"/>
       <use x="63.623047" xlink:href="#DejaVuSans-53"/>
       <use x="127.246094" xlink:href="#DejaVuSans-46"/>
       <use x="159.033203" xlink:href="#DejaVuSans-48"/>
      </g>
     </g>
    </g>
    <g id="xtick_8">
     <g id="line2d_8">
      <g>
       <use style="stroke:#000000;stroke-width:0.8;" x="346.95" xlink:href="#me3e87bdda0" y="252"/>
      </g>
     </g>
     <g id="text_8">
      <!-- 17.5 -->
      <g transform="translate(335.817188 266.598437)scale(0.1 -0.1)">
       <use xlink:href="#DejaVuSans-49"/>
       <use x="63.623047" xlink:href="#DejaVuSans-55"/>
       <use x="127.246094" xlink:href="#DejaVuSans-46"/>
       <use x="159.033203" xlink:href="#DejaVuSans-53"/>
      </g>
     </g>
    </g>
    <g id="xtick_9">
     <g id="line2d_9">
      <g>
       <use style="stroke:#000000;stroke-width:0.8;" x="388.8" xlink:href="#me3e87bdda0" y="252"/>
      </g>
     </g>
     <g id="text_9">
      <!-- 20.0 -->
      <g transform="translate(377.667188 266.598437)scale(0.1 -0.1)">
       <use xlink:href="#DejaVuSans-50"/>
       <use x="63.623047" xlink:href="#DejaVuSans-48"/>
       <use x="127.246094" xlink:href="#DejaVuSans-46"/>
       <use x="159.033203" xlink:href="#DejaVuSans-48"/>
      </g>
     </g>
    </g>
    <g id="text_10">
     <!-- time -->
     <defs>
      <path d="M 18.3125 70.21875 
L 18.3125 54.6875 
L 36.8125 54.6875 
L 36.8125 47.703125 
L 18.3125 47.703125 
L 18.3125 18.015625 
Q 18.3125 11.328125 20.140625 9.421875 
Q 21.96875 7.515625 27.59375 7.515625 
L 36.8125 7.515625 
L 36.8125 0 
L 27.59375 0 
Q 17.1875 0 13.234375 3.875 
Q 9.28125 7.765625 9.28125 18.015625 
L 9.28125 47.703125 
L 2.6875 47.703125 
L 2.6875 54.6875 
L 9.28125 54.6875 
L 9.28125 70.21875 
z
" id="DejaVuSans-116"/>
      <path d="M 9.421875 54.6875 
L 18.40625 54.6875 
L 18.40625 0 
L 9.421875 0 
z
M 9.421875 75.984375 
L 18.40625 75.984375 
L 18.40625 64.59375 
L 9.421875 64.59375 
z
" id="DejaVuSans-105"/>
      <path d="M 52 44.1875 
Q 55.375 50.25 60.0625 53.125 
Q 64.75 56 71.09375 56 
Q 79.640625 56 84.28125 50.015625 
Q 88.921875 44.046875 88.921875 33.015625 
L 88.921875 0 
L 79.890625 0 
L 79.890625 32.71875 
Q 79.890625 40.578125 77.09375 44.375 
Q 74.3125 48.1875 68.609375 48.1875 
Q 61.625 48.1875 57.5625 43.546875 
Q 53.515625 38.921875 53.515625 30.90625 
L 53.515625 0 
L 44.484375 0 
L 44.484375 32.71875 
Q 44.484375 40.625 41.703125 44.40625 
Q 38.921875 48.1875 33.109375 48.1875 
Q 26.21875 48.1875 22.15625 43.53125 
Q 18.109375 38.875 18.109375 30.90625 
L 18.109375 0 
L 9.078125 0 
L 9.078125 54.6875 
L 18.109375 54.6875 
L 18.109375 46.1875 
Q 21.1875 51.21875 25.484375 53.609375 
Q 29.78125 56 35.6875 56 
Q 41.65625 56 45.828125 52.96875 
Q 50 49.953125 52 44.1875 
z
" id="DejaVuSans-109"/>
      <path d="M 56.203125 29.59375 
L 56.203125 25.203125 
L 14.890625 25.203125 
Q 15.484375 15.921875 20.484375 11.0625 
Q 25.484375 6.203125 34.421875 6.203125 
Q 39.59375 6.203125 44.453125 7.46875 
Q 49.3125 8.734375 54.109375 11.28125 
L 54.109375 2.78125 
Q 49.265625 0.734375 44.1875 -0.34375 
Q 39.109375 -1.421875 33.890625 -1.421875 
Q 20.796875 -1.421875 13.15625 6.1875 
Q 5.515625 13.8125 5.515625 26.8125 
Q 5.515625 40.234375 12.765625 48.109375 
Q 20.015625 56 32.328125 56 
Q 43.359375 56 49.78125 48.890625 
Q 56.203125 41.796875 56.203125 29.59375 
z
M 47.21875 32.234375 
Q 47.125 39.59375 43.09375 43.984375 
Q 39.0625 48.390625 32.421875 48.390625 
Q 24.90625 48.390625 20.390625 44.140625 
Q 15.875 39.890625 15.1875 32.171875 
z
" id="DejaVuSans-101"/>
     </defs>
     <g transform="translate(210.103906 280.276563)scale(0.1 -0.1)">
      <use xlink:href="#DejaVuSans-116"/>
      <use x="39.208984" xlink:href="#DejaVuSans-105"/>
      <use x="66.992188" xlink:href="#DejaVuSans-109"/>
      <use x="164.404297" xlink:href="#DejaVuSans-101"/>
     </g>
    </g>
   </g>
   <g id="matplotlib.axis_2">
    <g id="ytick_1">
     <g id="line2d_10">
      <defs>
       <path d="M 0 0 
L -3.5 0 
" id="m525498ee59" style="stroke:#000000;stroke-width:0.8;"/>
      </defs>
      <g>
       <use style="stroke:#000000;stroke-width:0.8;" x="54" xlink:href="#m525498ee59" y="252"/>
      </g>
     </g>
     <g id="text_11">
      <!-- 0.0 -->
      <g transform="translate(31.096875 255.799219)scale(0.1 -0.1)">
       <use xlink:href="#DejaVuSans-48"/>
       <use x="63.623047" xlink:href="#DejaVuSans-46"/>
       <use x="95.410156" xlink:href="#DejaVuSans-48"/>
      </g>
     </g>
    </g>
    <g id="ytick_2">
     <g id="line2d_11">
      <g>
       <use style="stroke:#000000;stroke-width:0.8;" x="54" xlink:href="#m525498ee59" y="224.82"/>
      </g>
     </g>
     <g id="text_12">
      <!-- 0.5 -->
      <g transform="translate(31.096875 228.619219)scale(0.1 -0.1)">
       <use xlink:href="#DejaVuSans-48"/>
       <use x="63.623047" xlink:href="#DejaVuSans-46"/>
       <use x="95.410156" xlink:href="#DejaVuSans-53"/>
      </g>
     </g>
    </g>
    <g id="ytick_3">
     <g id="line2d_12">
      <g>
       <use style="stroke:#000000;stroke-width:0.8;" x="54" xlink:href="#m525498ee59" y="197.64"/>
      </g>
     </g>
     <g id="text_13">
      <!-- 1.0 -->
      <g transform="translate(31.096875 201.439219)scale(0.1 -0.1)">
       <use xlink:href="#DejaVuSans-49"/>
       <use x="63.623047" xlink:href="#DejaVuSans-46"/>
       <use x="95.410156" xlink:href="#DejaVuSans-48"/>
      </g>
     </g>
    </g>
    <g id="ytick_4">
     <g id="line2d_13">
      <g>
       <use style="stroke:#000000;stroke-width:0.8;" x="54" xlink:href="#m525498ee59" y="170.46"/>
      </g>
     </g>
     <g id="text_14">
      <!-- 1.5 -->
      <g transform="translate(31.096875 174.259219)scale(0.1 -0.1)">
       <use xlink:href="#DejaVuSans-49"/>
       <use x="63.623047" xlink:href="#DejaVuSans-46"/>
       <use x="95.410156" xlink:href="#DejaVuSans-53"/>
      </g>
     </g>
    </g>
    <g id="ytick_5">
     <g id="line2d_14">
      <g>
       <use style="stroke:#000000;stroke-width:0.8;" x="54" xlink:href="#m525498ee59" y="143.28"/>
      </g>
     </g>
     <g id="text_15">
      <!-- 2.0 -->
      <g transform="translate(31.096875 147.079219)scale(0.1 -0.1)">
       <use xlink:href="#DejaVuSans-50"/>
       <use x="63.623047" xlink:href="#DejaVuSans-46"/>
       <use x="95.410156" xlink:href="#DejaVuSans-48"/>
      </g>
     </g>
    </g>
    <g id="ytick_6">
     <g id="line2d_15">
      <g>
       <use style="stroke:#000000;stroke-width:0.8;" x="54" xlink:href="#m525498ee59" y="116.1"/>
      </g>
     </g>
     <g id="text_16">
      <!-- 2.5 -->
      <g transform="translate(31.096875 119.899219)scale(0.1 -0.1)">
       <use xlink:href="#DejaVuSans-50"/>
       <use x="63.623047" xlink:href="#DejaVuSans-46"/>
       <use x="95.410156" xlink:href="#DejaVuSans-53"/>
      </g>
     </g>
    </g>
    <g id="ytick_7">
     <g id="line2d_16">
      <g>
       <use style="stroke:#000000;stroke-width:0.8;" x="54" xlink:href="#m525498ee59" y="88.92"/>
      </g>
     </g>
     <g id="text_17">
      <!-- 3.0 -->
      <defs>
       <path d="M 40.578125 39.3125 
Q 47.65625 37.796875 51.625 33 
Q 55.609375 28.21875 55.609375 21.1875 
Q 55.609375 10.40625 48.1875 4.484375 
Q 40.765625 -1.421875 27.09375 -1.421875 
Q 22.515625 -1.421875 17.65625 -0.515625 
Q 12.796875 0.390625 7.625 2.203125 
L 7.625 11.71875 
Q 11.71875 9.328125 16.59375 8.109375 
Q 21.484375 6.890625 26.8125 6.890625 
Q 36.078125 6.890625 40.9375 10.546875 
Q 45.796875 14.203125 45.796875 21.1875 
Q 45.796875 27.640625 41.28125 31.265625 
Q 36.765625 34.90625 28.71875 34.90625 
L 20.21875 34.90625 
L 20.21875 43.015625 
L 29.109375 43.015625 
Q 36.375 43.015625 40.234375 45.921875 
Q 44.09375 48.828125 44.09375 54.296875 
Q 44.09375 59.90625 40.109375 62.90625 
Q 36.140625 65.921875 28.71875 65.921875 
Q 24.65625 65.921875 20.015625 65.03125 
Q 15.375 64.15625 9.8125 62.3125 
L 9.8125 71.09375 
Q 15.4375 72.65625 20.34375 73.4375 
Q 25.25 74.21875 29.59375 74.21875 
Q 40.828125 74.21875 47.359375 69.109375 
Q 53.90625 64.015625 53.90625 55.328125 
Q 53.90625 49.265625 50.4375 45.09375 
Q 46.96875 40.921875 40.578125 39.3125 
z
" id="DejaVuSans-51"/>
      </defs>
      <g transform="translate(31.096875 92.719219)scale(0.1 -0.1)">
       <use xlink:href="#DejaVuSans-51"/>
       <use x="63.623047" xlink:href="#DejaVuSans-46"/>
       <use x="95.410156" xlink:href="#DejaVuSans-48"/>
      </g>
     </g>
    </g>
    <g id="ytick_8">
     <g id="line2d_17">
      <g>
       <use style="stroke:#000000;stroke-width:0.8;" x="54" xlink:href="#m525498ee59" y="61.74"/>
      </g>
     </g>
     <g id="text_18">
      <!-- 3.5 -->
      <g transform="translate(31.096875 65.539219)scale(0.1 -0.1)">
       <use xlink:href="#DejaVuSans-51"/>
       <use x="63.623047" xlink:href="#DejaVuSans-46"/>
       <use x="95.410156" xlink:href="#DejaVuSans-53"/>
      </g>
     </g>
    </g>
    <g id="ytick_9">
     <g id="line2d_18">
      <g>
       <use style="stroke:#000000;stroke-width:0.8;" x="54" xlink:href="#m525498ee59" y="34.56"/>
      </g>
     </g>
     <g id="text_19">
      <!-- 4.0 -->
      <defs>
       <path d="M 37.796875 64.3125 
L 12.890625 25.390625 
L 37.796875 25.390625 
z
M 35.203125 72.90625 
L 47.609375 72.90625 
L 47.609375 25.390625 
L 58.015625 25.390625 
L 58.015625 17.1875 
L 47.609375 17.1875 
L 47.609375 0 
L 37.796875 0 
L 37.796875 17.1875 
L 4.890625 17.1875 
L 4.890625 26.703125 
z
" id="DejaVuSans-52"/>
      </defs>
      <g transform="translate(31.096875 38.359219)scale(0.1 -0.1)">
       <use xlink:href="#DejaVuSans-52"/>
       <use x="63.623047" xlink:href="#DejaVuSans-46"/>
       <use x="95.410156" xlink:href="#DejaVuSans-48"/>
      </g>
     </g>
    </g>
    <g id="text_20">
     <!-- Number of particles -->
     <defs>
      <path d="M 9.8125 72.90625 
L 23.09375 72.90625 
L 55.421875 11.921875 
L 55.421875 72.90625 
L 64.984375 72.90625 
L 64.984375 0 
L 51.703125 0 
L 19.390625 60.984375 
L 19.390625 0 
L 9.8125 0 
z
" id="DejaVuSans-78"/>
      <path d="M 8.5 21.578125 
L 8.5 54.6875 
L 17.484375 54.6875 
L 17.484375 21.921875 
Q 17.484375 14.15625 20.5 10.265625 
Q 23.53125 6.390625 29.59375 6.390625 
Q 36.859375 6.390625 41.078125 11.03125 
Q 45.3125 15.671875 45.3125 23.6875 
L 45.3125 54.6875 
L 54.296875 54.6875 
L 54.296875 0 
L 45.3125 0 
L 45.3125 8.40625 
Q 42.046875 3.421875 37.71875 1 
Q 33.40625 -1.421875 27.6875 -1.421875 
Q 18.265625 -1.421875 13.375 4.4375 
Q 8.5 10.296875 8.5 21.578125 
z
M 31.109375 56 
z
" id="DejaVuSans-117"/>
      <path d="M 48.6875 27.296875 
Q 48.6875 37.203125 44.609375 42.84375 
Q 40.53125 48.484375 33.40625 48.484375 
Q 26.265625 48.484375 22.1875 42.84375 
Q 18.109375 37.203125 18.109375 27.296875 
Q 18.109375 17.390625 22.1875 11.75 
Q 26.265625 6.109375 33.40625 6.109375 
Q 40.53125 6.109375 44.609375 11.75 
Q 48.6875 17.390625 48.6875 27.296875 
z
M 18.109375 46.390625 
Q 20.953125 51.265625 25.265625 53.625 
Q 29.59375 56 35.59375 56 
Q 45.5625 56 51.78125 48.09375 
Q 58.015625 40.1875 58.015625 27.296875 
Q 58.015625 14.40625 51.78125 6.484375 
Q 45.5625 -1.421875 35.59375 -1.421875 
Q 29.59375 -1.421875 25.265625 0.953125 
Q 20.953125 3.328125 18.109375 8.203125 
L 18.109375 0 
L 9.078125 0 
L 9.078125 75.984375 
L 18.109375 75.984375 
z
" id="DejaVuSans-98"/>
      <path d="M 41.109375 46.296875 
Q 39.59375 47.171875 37.8125 47.578125 
Q 36.03125 48 33.890625 48 
Q 26.265625 48 22.1875 43.046875 
Q 18.109375 38.09375 18.109375 28.8125 
L 18.109375 0 
L 9.078125 0 
L 9.078125 54.6875 
L 18.109375 54.6875 
L 18.109375 46.1875 
Q 20.953125 51.171875 25.484375 53.578125 
Q 30.03125 56 36.53125 56 
Q 37.453125 56 38.578125 55.875 
Q 39.703125 55.765625 41.0625 55.515625 
z
" id="DejaVuSans-114"/>
      <path id="DejaVuSans-32"/>
      <path d="M 30.609375 48.390625 
Q 23.390625 48.390625 19.1875 42.75 
Q 14.984375 37.109375 14.984375 27.296875 
Q 14.984375 17.484375 19.15625 11.84375 
Q 23.34375 6.203125 30.609375 6.203125 
Q 37.796875 6.203125 41.984375 11.859375 
Q 46.1875 17.53125 46.1875 27.296875 
Q 46.1875 37.015625 41.984375 42.703125 
Q 37.796875 48.390625 30.609375 48.390625 
z
M 30.609375 56 
Q 42.328125 56 49.015625 48.375 
Q 55.71875 40.765625 55.71875 27.296875 
Q 55.71875 13.875 49.015625 6.21875 
Q 42.328125 -1.421875 30.609375 -1.421875 
Q 18.84375 -1.421875 12.171875 6.21875 
Q 5.515625 13.875 5.515625 27.296875 
Q 5.515625 40.765625 12.171875 48.375 
Q 18.84375 56 30.609375 56 
z
" id="DejaVuSans-111"/>
      <path d="M 37.109375 75.984375 
L 37.109375 68.5 
L 28.515625 68.5 
Q 23.6875 68.5 21.796875 66.546875 
Q 19.921875 64.59375 19.921875 59.515625 
L 19.921875 54.6875 
L 34.71875 54.6875 
L 34.71875 47.703125 
L 19.921875 47.703125 
L 19.921875 0 
L 10.890625 0 
L 10.890625 47.703125 
L 2.296875 47.703125 
L 2.296875 54.6875 
L 10.890625 54.6875 
L 10.890625 58.5 
Q 10.890625 67.625 15.140625 71.796875 
Q 19.390625 75.984375 28.609375 75.984375 
z
" id="DejaVuSans-102"/>
      <path d="M 18.109375 8.203125 
L 18.109375 -20.796875 
L 9.078125 -20.796875 
L 9.078125 54.6875 
L 18.109375 54.6875 
L 18.109375 46.390625 
Q 20.953125 51.265625 25.265625 53.625 
Q 29.59375 56 35.59375 56 
Q 45.5625 56 51.78125 48.09375 
Q 58.015625 40.1875 58.015625 27.296875 
Q 58.015625 14.40625 51.78125 6.484375 
Q 45.5625 -1.421875 35.59375 -1.421875 
Q 29.59375 -1.421875 25.265625 0.953125 
Q 20.953125 3.328125 18.109375 8.203125 
z
M 48.6875 27.296875 
Q 48.6875 37.203125 44.609375 42.84375 
Q 40.53125 48.484375 33.40625 48.484375 
Q 26.265625 48.484375 22.1875 42.84375 
Q 18.109375 37.203125 18.109375 27.296875 
Q 18.109375 17.390625 22.1875 11.75 
Q 26.265625 6.109375 33.40625 6.109375 
Q 40.53125 6.109375 44.609375 11.75 
Q 48.6875 17.390625 48.6875 27.296875 
z
" id="DejaVuSans-112"/>
      <path d="M 34.28125 27.484375 
Q 23.390625 27.484375 19.1875 25 
Q 14.984375 22.515625 14.984375 16.5 
Q 14.984375 11.71875 18.140625 8.90625 
Q 21.296875 6.109375 26.703125 6.109375 
Q 34.1875 6.109375 38.703125 11.40625 
Q 43.21875 16.703125 43.21875 25.484375 
L 43.21875 27.484375 
z
M 52.203125 31.203125 
L 52.203125 0 
L 43.21875 0 
L 43.21875 8.296875 
Q 40.140625 3.328125 35.546875 0.953125 
Q 30.953125 -1.421875 24.3125 -1.421875 
Q 15.921875 -1.421875 10.953125 3.296875 
Q 6 8.015625 6 15.921875 
Q 6 25.140625 12.171875 29.828125 
Q 18.359375 34.515625 30.609375 34.515625 
L 43.21875 34.515625 
L 43.21875 35.40625 
Q 43.21875 41.609375 39.140625 45 
Q 35.0625 48.390625 27.6875 48.390625 
Q 23 48.390625 18.546875 47.265625 
Q 14.109375 46.140625 10.015625 43.890625 
L 10.015625 52.203125 
Q 14.9375 54.109375 19.578125 55.046875 
Q 24.21875 56 28.609375 56 
Q 40.484375 56 46.34375 49.84375 
Q 52.203125 43.703125 52.203125 31.203125 
z
" id="DejaVuSans-97"/>
      <path d="M 48.78125 52.59375 
L 48.78125 44.1875 
Q 44.96875 46.296875 41.140625 47.34375 
Q 37.3125 48.390625 33.40625 48.390625 
Q 24.65625 48.390625 19.8125 42.84375 
Q 14.984375 37.3125 14.984375 27.296875 
Q 14.984375 17.28125 19.8125 11.734375 
Q 24.65625 6.203125 33.40625 6.203125 
Q 37.3125 6.203125 41.140625 7.25 
Q 44.96875 8.296875 48.78125 10.40625 
L 48.78125 2.09375 
Q 45.015625 0.34375 40.984375 -0.53125 
Q 36.96875 -1.421875 32.421875 -1.421875 
Q 20.0625 -1.421875 12.78125 6.34375 
Q 5.515625 14.109375 5.515625 27.296875 
Q 5.515625 40.671875 12.859375 48.328125 
Q 20.21875 56 33.015625 56 
Q 37.15625 56 41.109375 55.140625 
Q 45.0625 54.296875 48.78125 52.59375 
z
" id="DejaVuSans-99"/>
      <path d="M 9.421875 75.984375 
L 18.40625 75.984375 
L 18.40625 0 
L 9.421875 0 
z
" id="DejaVuSans-108"/>
      <path d="M 44.28125 53.078125 
L 44.28125 44.578125 
Q 40.484375 46.53125 36.375 47.5 
Q 32.28125 48.484375 27.875 48.484375 
Q 21.1875 48.484375 17.84375 46.4375 
Q 14.5 44.390625 14.5 40.28125 
Q 14.5 37.15625 16.890625 35.375 
Q 19.28125 33.59375 26.515625 31.984375 
L 29.59375 31.296875 
Q 39.15625 29.25 43.1875 25.515625 
Q 47.21875 21.78125 47.21875 15.09375 
Q 47.21875 7.46875 41.1875 3.015625 
Q 35.15625 -1.421875 24.609375 -1.421875 
Q 20.21875 -1.421875 15.453125 -0.5625 
Q 10.6875 0.296875 5.421875 2 
L 5.421875 11.28125 
Q 10.40625 8.6875 15.234375 7.390625 
Q 20.0625 6.109375 24.8125 6.109375 
Q 31.15625 6.109375 34.5625 8.28125 
Q 37.984375 10.453125 37.984375 14.40625 
Q 37.984375 18.0625 35.515625 20.015625 
Q 33.0625 21.96875 24.703125 23.78125 
L 21.578125 24.515625 
Q 13.234375 26.265625 9.515625 29.90625 
Q 5.8125 33.546875 5.8125 39.890625 
Q 5.8125 47.609375 11.28125 51.796875 
Q 16.75 56 26.8125 56 
Q 31.78125 56 36.171875 55.265625 
Q 40.578125 54.546875 44.28125 53.078125 
z
" id="DejaVuSans-115"/>
     </defs>
     <g transform="translate(25.017187 192.826094)rotate(-90)scale(0.1 -0.1)">
      <use xlink:href="#DejaVuSans-78"/>
      <use x="74.804688" xlink:href="#DejaVuSans-117"/>
      <use x="138.183594" xlink:href="#DejaVuSans-109"/>
      <use x="235.595703" xlink:href="#DejaVuSans-98"/>
      <use x="299.072266" xlink:href="#DejaVuSans-101"/>
      <use x="360.595703" xlink:href="#DejaVuSans-114"/>
      <use x="401.708984" xlink:href="#DejaVuSans-32"/>
      <use x="433.496094" xlink:href="#DejaVuSans-111"/>
      <use x="494.677734" xlink:href="#DejaVuSans-102"/>
      <use x="529.882812" xlink:href="#DejaVuSans-32"/>
      <use x="561.669922" xlink:href="#DejaVuSans-112"/>
      <use x="625.146484" xlink:href="#DejaVuSans-97"/>
      <use x="686.425781" xlink:href="#DejaVuSans-114"/>
      <use x="727.539062" xlink:href="#DejaVuSans-116"/>
      <use x="766.748047" xlink:href="#DejaVuSans-105"/>
      <use x="794.53125" xlink:href="#DejaVuSans-99"/>
      <use x="849.511719" xlink:href="#DejaVuSans-108"/>
      <use x="877.294922" xlink:href="#DejaVuSans-101"/>
      <use x="938.818359" xlink:href="#DejaVuSans-115"/>
     </g>
    </g>
   </g>
   <g id="line2d_19">
    <path clip-path="url(#p6d7c587035)" d="M 54 234.65887 
L 57.351351 234.744997 
L 59.027027 235.029754 
L 60.367568 235.468553 
L 62.043243 236.258042 
L 67.07027 238.846857 
L 74.108108 241.811369 
L 75.113514 241.968132 
L 76.118919 241.907027 
L 77.124324 241.595963 
L 78.12973 241.033919 
L 79.47027 239.954714 
L 84.162162 235.669012 
L 85.167568 235.140368 
L 86.172973 234.834819 
L 87.178378 234.740993 
L 88.518919 234.884681 
L 90.194595 235.326657 
L 93.210811 236.14591 
L 94.886486 236.338542 
L 96.562162 236.283043 
L 98.572973 235.95885 
L 101.924324 235.375298 
L 103.264865 235.395306 
L 104.605405 235.685107 
L 105.945946 236.270172 
L 107.621622 237.337347 
L 110.302703 239.166874 
L 111.308108 239.640486 
L 112.313514 239.893981 
L 113.318919 239.891719 
L 114.324324 239.629609 
L 115.32973 239.136256 
L 116.67027 238.220591 
L 119.686486 236.017771 
L 121.027027 235.38966 
L 122.032432 235.161856 
L 123.037838 235.157162 
L 124.043243 235.36433 
L 125.383784 235.915105 
L 127.394595 237.091148 
L 129.740541 238.440716 
L 131.081081 238.96635 
L 132.421622 239.228339 
L 133.762162 239.22589 
L 135.437838 238.936944 
L 140.464865 237.81616 
L 142.810811 237.674251 
L 146.162162 237.748619 
L 151.189189 238.108137 
L 153.535135 238.183879 
L 155.210811 238.049757 
L 157.221622 237.644788 
L 160.908108 236.801106 
L 162.248649 236.758467 
L 163.589189 236.962076 
L 164.92973 237.404408 
L 166.940541 238.352668 
L 169.286486 239.422818 
L 170.627027 239.807939 
L 171.967568 239.954048 
L 173.308108 239.856781 
L 174.648649 239.550513 
L 176.659459 238.831663 
L 180.345946 237.428445 
L 182.021622 237.075772 
L 183.362162 237.040127 
L 184.702703 237.262107 
L 186.043243 237.73373 
L 187.718919 238.57671 
L 190.4 239.954555 
L 191.740541 240.366869 
L 192.745946 240.470266 
L 193.751351 240.378282 
L 194.756757 240.096897 
L 196.097297 239.474244 
L 198.108108 238.234984 
L 200.118919 237.041428 
L 201.459459 236.493761 
L 202.464865 236.283869 
L 203.47027 236.267142 
L 204.475676 236.437128 
L 205.816216 236.894668 
L 208.832432 238.105243 
L 209.837838 238.27576 
L 210.843243 238.218355 
L 211.848649 237.905567 
L 212.854054 237.346727 
L 214.194595 236.304416 
L 217.210811 233.768934 
L 218.216216 233.230946 
L 219.221622 232.982696 
L 220.227027 233.060731 
L 221.232432 233.463987 
L 222.237838 234.155327 
L 223.578378 235.405814 
L 226.92973 238.805506 
L 227.935135 239.532584 
L 228.940541 240.011555 
L 229.945946 240.218835 
L 230.951351 240.158758 
L 231.956757 239.861235 
L 233.297297 239.185091 
L 237.654054 236.64725 
L 238.994595 236.284938 
L 240 236.216351 
L 241.340541 236.367912 
L 243.351351 236.91049 
L 245.362162 237.395006 
L 246.702703 237.442447 
L 247.708108 237.264228 
L 248.713514 236.892258 
L 250.054054 236.134812 
L 254.410811 233.268679 
L 255.416216 232.915119 
L 256.421622 232.760892 
L 257.427027 232.801362 
L 258.767568 233.108223 
L 260.778378 233.887416 
L 263.794595 235.05954 
L 265.805405 235.559705 
L 267.816216 235.826421 
L 270.497297 235.943233 
L 273.848649 235.860458 
L 277.87027 235.758054 
L 279.545946 235.930818 
L 281.221622 236.313925 
L 286.583784 237.794743 
L 287.589189 237.759367 
L 288.594595 237.53813 
L 289.6 237.126781 
L 290.940541 236.315534 
L 292.951351 234.749985 
L 294.962162 233.204136 
L 296.302703 232.4216 
L 297.308108 232.034884 
L 298.313514 231.839639 
L 299.318919 231.834014 
L 300.659459 232.089758 
L 302 232.580172 
L 304.345946 233.74164 
L 307.362162 235.202178 
L 309.037838 235.772079 
L 310.713514 236.08624 
L 312.389189 236.12531 
L 314.064865 235.913916 
L 316.410811 235.348398 
L 319.091892 234.727012 
L 320.767568 234.56431 
L 322.443243 234.619195 
L 326.8 234.944848 
L 328.140541 234.767545 
L 329.481081 234.385478 
L 331.491892 233.537213 
L 333.837838 232.551044 
L 335.178378 232.216559 
L 336.183784 232.14537 
L 337.189189 232.252304 
L 338.194595 232.54345 
L 339.535135 233.200921 
L 341.210811 234.364059 
L 345.232432 237.444559 
L 346.572973 238.103786 
L 347.578378 238.365611 
L 348.583784 238.406202 
L 349.589189 238.227898 
L 350.594595 237.853679 
L 351.935135 237.122426 
L 356.627027 234.253614 
L 357.967568 233.755938 
L 359.643243 233.401409 
L 361.654054 233.238945 
L 366.010811 232.958436 
L 373.048649 232.168319 
L 374.389189 232.318506 
L 375.72973 232.677885 
L 377.07027 233.268943 
L 378.745946 234.307142 
L 383.772973 237.79598 
L 384.778378 238.18576 
L 385.783784 238.38306 
L 386.789189 238.378009 
L 387.794595 238.179159 
L 388.8 237.811418 
L 388.8 237.811418 
" style="fill:none;stroke:#0000ff;stroke-linecap:square;stroke-width:1.5;"/>
   </g>
   <g id="line2d_20">
    <path clip-path="url(#p6d7c587035)" d="M 54 234.65887 
L 55.340541 234.737871 
L 56.010811 235.008019 
L 56.681081 235.565588 
L 58.021622 237.015473 
L 58.356757 237.144297 
L 58.691892 237.015623 
L 59.027027 236.531289 
L 59.362162 235.593323 
L 59.697297 234.111898 
L 60.367568 229.252378 
L 61.037838 221.720683 
L 62.043243 206.399247 
L 63.383784 184.681563 
L 64.054054 176.338719 
L 64.724324 170.788526 
L 65.059459 169.075784 
L 65.394595 167.988184 
L 65.72973 167.415342 
L 66.064865 167.217857 
L 67.07027 167.240182 
L 67.405405 166.890595 
L 67.740541 166.104843 
L 68.075676 164.760076 
L 68.410811 162.765276 
L 69.081081 156.656206 
L 69.751351 147.872981 
L 72.767568 102.98319 
L 73.437838 98.007024 
L 74.108108 95.354652 
L 74.443243 94.69783 
L 74.778378 94.343138 
L 76.118919 93.566682 
L 76.454054 92.981239 
L 76.789189 92.063466 
L 77.459459 89.039678 
L 78.12973 84.361552 
L 79.135135 74.91077 
L 80.810811 58.355663 
L 81.481081 53.526123 
L 82.151351 50.338278 
L 82.486486 49.36513 
L 82.821622 48.76867 
L 83.156757 48.499918 
L 83.491892 48.497091 
L 84.162162 49.003761 
L 85.167568 49.968819 
L 85.502703 50.105633 
L 85.837838 50.085344 
L 86.172973 49.891283 
L 86.843243 48.986415 
L 87.513514 47.516498 
L 89.524324 42.456645 
L 90.194595 41.463829 
L 90.52973 41.198833 
L 90.864865 41.096788 
L 91.2 41.156047 
L 91.535135 41.369543 
L 92.205405 42.213129 
L 92.875676 43.525904 
L 93.881081 46.222758 
L 94.886486 49.794786 
L 95.891892 54.295632 
L 98.237838 65.633975 
L 98.908108 67.936543 
L 99.578378 69.556908 
L 100.248649 70.611089 
L 101.589189 72.280977 
L 102.259459 73.723845 
L 102.92973 76.049384 
L 103.6 79.401536 
L 104.605405 86.062749 
L 106.281081 97.976661 
L 106.951351 101.579363 
L 107.621622 104.057072 
L 108.291892 105.430708 
L 108.627027 105.775193 
L 109.297297 106.016328 
L 110.302703 106.080614 
L 110.972973 106.482175 
L 111.643243 107.427631 
L 112.313514 108.934203 
L 113.318919 111.927064 
L 114.659459 116.063245 
L 115.32973 117.70833 
L 116 118.90338 
L 116.67027 119.633509 
L 117.340541 119.959247 
L 118.010811 119.976989 
L 118.681081 119.768275 
L 119.351351 119.361302 
L 120.021622 118.729176 
L 120.691892 117.831709 
L 121.697297 116.027288 
L 123.372973 112.878446 
L 124.043243 112.029813 
L 124.713514 111.530382 
L 125.383784 111.345007 
L 126.389189 111.435357 
L 127.394595 111.490119 
L 127.72973 111.373377 
L 128.064865 111.134407 
L 128.4 110.740127 
L 129.07027 109.375538 
L 129.740541 107.149492 
L 130.745946 102.401894 
L 132.421622 93.776112 
L 133.091892 91.333873 
L 133.762162 89.863852 
L 134.097297 89.499857 
L 134.432432 89.361691 
L 134.767568 89.419334 
L 135.437838 89.955516 
L 136.443243 91.009708 
L 136.778378 91.189717 
L 137.113514 91.188159 
L 137.448649 90.957873 
L 137.783784 90.463984 
L 138.118919 89.687118 
L 138.789189 87.295731 
L 139.794595 82.109285 
L 141.135135 74.755565 
L 141.805405 72.046036 
L 142.475676 70.41245 
L 142.810811 70.018732 
L 143.145946 69.886594 
L 143.481081 69.983703 
L 144.151351 70.686222 
L 145.491892 72.628177 
L 145.827027 72.92906 
L 146.162162 73.078963 
L 146.497297 73.056355 
L 146.832432 72.851145 
L 147.502703 71.908679 
L 148.172973 70.379031 
L 150.518919 64.068197 
L 151.189189 62.945856 
L 151.859459 62.310287 
L 152.52973 62.10166 
L 153.2 62.212628 
L 153.87027 62.541273 
L 154.875676 63.288714 
L 156.886486 64.948291 
L 157.556757 65.286327 
L 158.227027 65.43503 
L 159.232432 65.341865 
L 161.913514 64.653392 
L 162.583784 64.833092 
L 163.254054 65.413519 
L 163.924324 66.499734 
L 164.594595 68.093291 
L 165.6 71.159191 
L 167.275676 76.39682 
L 168.281081 78.671967 
L 168.951351 79.654197 
L 169.621622 80.259995 
L 171.297297 81.435382 
L 171.967568 82.481519 
L 172.637838 84.148546 
L 173.308108 86.41715 
L 175.989189 96.550234 
L 176.659459 97.980593 
L 177.32973 98.733327 
L 178 98.936263 
L 179.675676 98.766811 
L 180.345946 99.151679 
L 181.016216 100.037035 
L 181.686486 101.393544 
L 184.032432 106.980199 
L 184.702703 107.908527 
L 185.372973 108.369258 
L 186.043243 108.467211 
L 187.718919 108.340761 
L 188.389189 108.499656 
L 189.394595 108.987663 
L 192.075676 110.60515 
L 193.081081 111.515034 
L 194.086486 112.830748 
L 196.767568 117.020365 
L 197.437838 117.47144 
L 198.108108 117.465974 
L 198.778378 117.083311 
L 200.118919 116.065709 
L 200.789189 115.916024 
L 201.124324 116.001913 
L 201.794595 116.514745 
L 202.464865 117.427091 
L 204.810811 121.239446 
L 205.481081 121.621812 
L 205.816216 121.591561 
L 206.151351 121.40534 
L 206.821622 120.583547 
L 207.491892 119.261197 
L 210.508108 112.382384 
L 211.178378 111.671311 
L 211.848649 111.436269 
L 212.518919 111.599711 
L 213.859459 112.293926 
L 214.194595 112.339378 
L 214.52973 112.261559 
L 214.864865 112.030319 
L 215.2 111.622193 
L 215.87027 110.225026 
L 216.540541 108.072217 
L 217.545946 103.84619 
L 218.886486 98.255056 
L 219.556757 96.349103 
L 220.227027 95.328057 
L 220.562162 95.138052 
L 220.897297 95.125061 
L 221.567568 95.448926 
L 222.237838 95.879345 
L 222.572973 96.000072 
L 222.908108 95.997076 
L 223.243243 95.836785 
L 223.578378 95.497439 
L 224.248649 94.258543 
L 224.918919 92.360552 
L 226.92973 85.730988 
L 227.6 84.365865 
L 227.935135 83.959941 
L 228.27027 83.734028 
L 228.605405 83.668715 
L 229.275676 83.891815 
L 230.616216 84.636699 
L 231.286486 84.632197 
L 231.956757 84.237272 
L 232.627027 83.510985 
L 235.308108 79.98731 
L 236.313514 79.250617 
L 237.318919 78.853575 
L 238.659459 78.637311 
L 239.664865 78.696996 
L 240.67027 78.98569 
L 242.345946 79.546933 
L 243.016216 79.510733 
L 243.686486 79.208185 
L 244.356757 78.654229 
L 246.032432 77.016099 
L 246.702703 76.734658 
L 247.372973 76.862492 
L 248.043243 77.395829 
L 249.048649 78.70569 
L 250.389189 80.537689 
L 251.059459 81.193879 
L 251.72973 81.593532 
L 252.4 81.73507 
L 253.07027 81.660508 
L 255.416216 81.049242 
L 256.086486 81.185182 
L 256.756757 81.549355 
L 257.762162 82.447858 
L 260.778378 85.580094 
L 261.448649 85.81752 
L 262.118919 85.718292 
L 262.789189 85.317367 
L 264.464865 83.996539 
L 265.135135 83.824608 
L 265.805405 84.005227 
L 266.475676 84.480146 
L 267.816216 85.614104 
L 268.486486 85.841904 
L 268.821622 85.792627 
L 269.491892 85.32612 
L 270.162162 84.422944 
L 271.837838 81.738689 
L 272.508108 81.232756 
L 272.843243 81.198277 
L 273.178378 81.314168 
L 273.848649 81.947036 
L 275.859459 84.782995 
L 276.194595 84.990916 
L 276.52973 85.04185 
L 276.864865 84.924467 
L 277.2 84.63934 
L 277.87027 83.628392 
L 279.881081 79.636463 
L 280.551351 78.983392 
L 280.886486 78.875909 
L 281.221622 78.910207 
L 281.891892 79.342033 
L 282.897297 80.522694 
L 283.902703 81.6211 
L 284.572973 81.945626 
L 284.908108 81.934796 
L 285.578378 81.554426 
L 286.248649 80.769534 
L 288.259459 77.893108 
L 288.92973 77.387484 
L 289.6 77.255703 
L 290.27027 77.457159 
L 291.275676 78.150315 
L 292.616216 79.087947 
L 293.286486 79.29637 
L 293.956757 79.261364 
L 294.962162 78.854997 
L 295.967568 78.379058 
L 296.637838 78.246872 
L 297.308108 78.360076 
L 297.978378 78.713695 
L 300.659459 80.535404 
L 301.664865 80.69662 
L 303.340541 80.578313 
L 304.681081 80.568654 
L 305.686486 80.795907 
L 307.027027 81.4375 
L 308.032432 81.870223 
L 308.702703 81.969602 
L 309.708108 81.814204 
L 311.383784 81.446074 
L 312.389189 81.515819 
L 313.72973 81.843074 
L 314.735135 82.264867 
L 315.740541 83.013318 
L 316.745946 84.127405 
L 318.756757 86.87979 
L 320.432432 89.17509 
L 321.102703 89.877334 
L 321.772973 90.339276 
L 322.443243 90.565347 
L 324.118919 90.944894 
L 324.789189 91.478286 
L 325.459459 92.393162 
L 326.464865 94.413541 
L 328.475676 99.00797 
L 329.145946 100.025004 
L 329.816216 100.519858 
L 330.151351 100.548236 
L 330.486486 100.431533 
L 331.156757 99.812972 
L 332.162162 98.308019 
L 332.832432 97.342707 
L 333.502703 96.764587 
L 333.837838 96.694378 
L 334.172973 96.79214 
L 334.508108 97.061302 
L 335.178378 98.074403 
L 336.183784 100.400361 
L 337.189189 102.799715 
L 337.859459 103.916645 
L 338.194595 104.237372 
L 338.52973 104.375633 
L 338.864865 104.325753 
L 339.2 104.093058 
L 339.87027 103.157164 
L 341.545946 99.961122 
L 341.881081 99.581109 
L 342.216216 99.39358 
L 342.551351 99.424487 
L 342.886486 99.685157 
L 343.221622 100.171544 
L 343.891892 101.733443 
L 346.237838 108.725723 
L 346.908108 109.655137 
L 347.243243 109.803641 
L 347.578378 109.741946 
L 347.913514 109.485361 
L 348.583784 108.50533 
L 350.259459 105.531102 
L 350.594595 105.258878 
L 350.92973 105.186438 
L 351.264865 105.329124 
L 351.6 105.686718 
L 352.27027 106.970133 
L 354.616216 112.779919 
L 354.951351 113.150731 
L 355.286486 113.319575 
L 355.621622 113.285387 
L 355.956757 113.058768 
L 356.627027 112.119647 
L 357.632432 109.999999 
L 358.637838 107.89013 
L 359.308108 106.843996 
L 359.978378 106.176553 
L 360.648649 105.842605 
L 361.654054 105.696939 
L 362.659459 105.520493 
L 363.32973 105.164278 
L 364 104.539521 
L 365.005405 103.171968 
L 369.027027 96.738722 
L 370.367568 93.870214 
L 371.708108 91.02998 
L 372.378378 89.925561 
L 373.048649 89.16443 
L 373.718919 88.798663 
L 374.389189 88.810372 
L 375.394595 89.253998 
L 376.064865 89.497498 
L 376.4 89.501352 
L 376.735135 89.385238 
L 377.07027 89.125779 
L 377.740541 88.130351 
L 378.410811 86.534108 
L 380.756757 79.801949 
L 381.427027 78.7521 
L 381.762162 78.480779 
L 382.097297 78.3786 
L 382.432432 78.435853 
L 383.102703 78.95476 
L 384.108108 80.314233 
L 384.778378 81.180404 
L 385.448649 81.651053 
L 385.783784 81.656216 
L 386.118919 81.479268 
L 386.454054 81.111943 
L 387.124324 79.834566 
L 388.12973 76.967784 
L 388.8 74.909942 
L 388.8 74.909942 
" style="fill:none;stroke:#ff0000;stroke-linecap:square;stroke-width:1.5;"/>
   </g>
   <g id="patch_3">
    <path d="M 54 252 
L 54 34.56 
" style="fill:none;stroke:#000000;stroke-linecap:square;stroke-linejoin:miter;stroke-width:0.8;"/>
   </g>
   <g id="patch_4">
    <path d="M 388.8 252 
L 388.8 34.56 
" style="fill:none;stroke:#000000;stroke-linecap:square;stroke-linejoin:miter;stroke-width:0.8;"/>
   </g>
   <g id="patch_5">
    <path d="M 54 252 
L 388.8 252 
" style="fill:none;stroke:#000000;stroke-linecap:square;stroke-linejoin:miter;stroke-width:0.8;"/>
   </g>
   <g id="patch_6">
    <path d="M 54 34.56 
L 388.8 34.56 
" style="fill:none;stroke:#000000;stroke-linecap:square;stroke-linejoin:miter;stroke-width:0.8;"/>
   </g>
   <g id="text_21">
    <!-- Time evolution on 2x2 lattice -->
    <defs>
     <path d="M -0.296875 72.90625 
L 61.375 72.90625 
L 61.375 64.59375 
L 35.5 64.59375 
L 35.5 0 
L 25.59375 0 
L 25.59375 64.59375 
L -0.296875 64.59375 
z
" id="DejaVuSans-84"/>
     <path d="M 2.984375 54.6875 
L 12.5 54.6875 
L 29.59375 8.796875 
L 46.6875 54.6875 
L 56.203125 54.6875 
L 35.6875 0 
L 23.484375 0 
z
" id="DejaVuSans-118"/>
     <path d="M 54.890625 33.015625 
L 54.890625 0 
L 45.90625 0 
L 45.90625 32.71875 
Q 45.90625 40.484375 42.875 44.328125 
Q 39.84375 48.1875 33.796875 48.1875 
Q 26.515625 48.1875 22.3125 43.546875 
Q 18.109375 38.921875 18.109375 30.90625 
L 18.109375 0 
L 9.078125 0 
L 9.078125 54.6875 
L 18.109375 54.6875 
L 18.109375 46.1875 
Q 21.34375 51.125 25.703125 53.5625 
Q 30.078125 56 35.796875 56 
Q 45.21875 56 50.046875 50.171875 
Q 54.890625 44.34375 54.890625 33.015625 
z
" id="DejaVuSans-110"/>
     <path d="M 54.890625 54.6875 
L 35.109375 28.078125 
L 55.90625 0 
L 45.3125 0 
L 29.390625 21.484375 
L 13.484375 0 
L 2.875 0 
L 24.125 28.609375 
L 4.6875 54.6875 
L 15.28125 54.6875 
L 29.78125 35.203125 
L 44.28125 54.6875 
z
" id="DejaVuSans-120"/>
    </defs>
    <g transform="translate(133.665 28.56)scale(0.12 -0.12)">
     <use xlink:href="#DejaVuSans-84"/>
     <use x="61.037109" xlink:href="#DejaVuSans-105"/>
     <use x="88.820312" xlink:href="#DejaVuSans-109"/>
     <use x="186.232422" xlink:href="#DejaVuSans-101"/>
     <use x="247.755859" xlink:href="#DejaVuSans-32"/>
     <use x="279.542969" xlink:href="#DejaVuSans-101"/>
     <use x="341.066406" xlink:href="#DejaVuSans-118"/>
     <use x="400.246094" xlink:href="#DejaVuSans-111"/>
     <use x="461.427734" xlink:href="#DejaVuSans-108"/>
     <use x="489.210938" xlink:href="#DejaVuSans-117"/>
     <use x="552.589844" xlink:href="#DejaVuSans-116"/>
     <use x="591.798828" xlink:href="#DejaVuSans-105"/>
     <use x="619.582031" xlink:href="#DejaVuSans-111"/>
     <use x="680.763672" xlink:href="#DejaVuSans-110"/>
     <use x="744.142578" xlink:href="#DejaVuSans-32"/>
     <use x="775.929688" xlink:href="#DejaVuSans-111"/>
     <use x="837.111328" xlink:href="#DejaVuSans-110"/>
     <use x="900.490234" xlink:href="#DejaVuSans-32"/>
     <use x="932.277344" xlink:href="#DejaVuSans-50"/>
     <use x="995.900391" xlink:href="#DejaVuSans-120"/>
     <use x="1055.080078" xlink:href="#DejaVuSans-50"/>
     <use x="1118.703125" xlink:href="#DejaVuSans-32"/>
     <use x="1150.490234" xlink:href="#DejaVuSans-108"/>
     <use x="1178.273438" xlink:href="#DejaVuSans-97"/>
     <use x="1239.552734" xlink:href="#DejaVuSans-116"/>
     <use x="1278.761719" xlink:href="#DejaVuSans-116"/>
     <use x="1317.970703" xlink:href="#DejaVuSans-105"/>
     <use x="1345.753906" xlink:href="#DejaVuSans-99"/>
     <use x="1400.734375" xlink:href="#DejaVuSans-101"/>
    </g>
   </g>
  </g>
 </g>
 <defs>
  <clipPath id="p6d7c587035">
   <rect height="217.44" width="334.8" x="54" y="34.56"/>
  </clipPath>
 </defs>
</svg>
