<?xml version="1.0" encoding="utf-8" standalone="no"?>
<!DOCTYPE svg PUBLIC "-//W3C//DTD SVG 1.1//EN"
  "http://www.w3.org/Graphics/SVG/1.1/DTD/svg11.dtd">
<!-- Created with matplotlib (https://matplotlib.org/) -->
<svg height="288pt" version="1.1" viewBox="0 0 432 288" width="432pt" xmlns="http://www.w3.org/2000/svg" xmlns:xlink="http://www.w3.org/1999/xlink">
 <defs>
  <style type="text/css">
*{stroke-linecap:butt;stroke-linejoin:round;}
  </style>
 </defs>
 <g id="figure_1">
  <g id="patch_1">
   <path d="M 0 288 
L 432 288 
L 432 0 
L 0 0 
z
" style="fill:#ffffff;"/>
  </g>
  <g id="axes_1">
   <g id="patch_2">
    <path d="M 54 252 
L 388.8 252 
L 388.8 34.56 
L 54 34.56 
z
" style="fill:#ffffff;"/>
   </g>
   <g id="matplotlib.axis_1">
    <g id="xtick_1">
     <g id="line2d_1">
      <defs>
       <path d="M 0 0 
L 0 3.5 
" id="m05a7b2edeb" style="stroke:#000000;stroke-width:0.8;"/>
      </defs>
      <g>
       <use style="stroke:#000000;stroke-width:0.8;" x="54" xlink:href="#m05a7b2edeb" y="252"/>
      </g>
     </g>
     <g id="text_1">
      <!-- 0.0 -->
      <defs>
       <path d="M 31.78125 66.40625 
Q 24.171875 66.40625 20.328125 58.90625 
Q 16.5 51.421875 16.5 36.375 
Q 16.5 21.390625 20.328125 13.890625 
Q 24.171875 6.390625 31.78125 6.390625 
Q 39.453125 6.390625 43.28125 13.890625 
Q 47.125 21.390625 47.125 36.375 
Q 47.125 51.421875 43.28125 58.90625 
Q 39.453125 66.40625 31.78125 66.40625 
z
M 31.78125 74.21875 
Q 44.046875 74.21875 50.515625 64.515625 
Q 56.984375 54.828125 56.984375 36.375 
Q 56.984375 17.96875 50.515625 8.265625 
Q 44.046875 -1.421875 31.78125 -1.421875 
Q 19.53125 -1.421875 13.0625 8.265625 
Q 6.59375 17.96875 6.59375 36.375 
Q 6.59375 54.828125 13.0625 64.515625 
Q 19.53125 74.21875 31.78125 74.21875 
z
" id="DejaVuSans-48"/>
       <path d="M 10.6875 12.40625 
L 21 12.40625 
L 21 0 
L 10.6875 0 
z
" id="DejaVuSans-46"/>
      </defs>
      <g transform="translate(46.048437 266.598437)scale(0.1 -0.1)">
       <use xlink:href="#DejaVuSans-48"/>
       <use x="63.623047" xlink:href="#DejaVuSans-46"/>
       <use x="95.410156" xlink:href="#DejaVuSans-48"/>
      </g>
     </g>
    </g>
    <g id="xtick_2">
     <g id="line2d_2">
      <g>
       <use style="stroke:#000000;stroke-width:0.8;" x="95.85" xlink:href="#m05a7b2edeb" y="252"/>
      </g>
     </g>
     <g id="text_2">
      <!-- 2.5 -->
      <defs>
       <path d="M 19.1875 8.296875 
L 53.609375 8.296875 
L 53.609375 0 
L 7.328125 0 
L 7.328125 8.296875 
Q 12.9375 14.109375 22.625 23.890625 
Q 32.328125 33.6875 34.8125 36.53125 
Q 39.546875 41.84375 41.421875 45.53125 
Q 43.3125 49.21875 43.3125 52.78125 
Q 43.3125 58.59375 39.234375 62.25 
Q 35.15625 65.921875 28.609375 65.921875 
Q 23.96875 65.921875 18.8125 64.3125 
Q 13.671875 62.703125 7.8125 59.421875 
L 7.8125 69.390625 
Q 13.765625 71.78125 18.9375 73 
Q 24.125 74.21875 28.421875 74.21875 
Q 39.75 74.21875 46.484375 68.546875 
Q 53.21875 62.890625 53.21875 53.421875 
Q 53.21875 48.921875 51.53125 44.890625 
Q 49.859375 40.875 45.40625 35.40625 
Q 44.1875 33.984375 37.640625 27.21875 
Q 31.109375 20.453125 19.1875 8.296875 
z
" id="DejaVuSans-50"/>
       <path d="M 10.796875 72.90625 
L 49.515625 72.90625 
L 49.515625 64.59375 
L 19.828125 64.59375 
L 19.828125 46.734375 
Q 21.96875 47.46875 24.109375 47.828125 
Q 26.265625 48.1875 28.421875 48.1875 
Q 40.625 48.1875 47.75 41.5 
Q 54.890625 34.8125 54.890625 23.390625 
Q 54.890625 11.625 47.5625 5.09375 
Q 40.234375 -1.421875 26.90625 -1.421875 
Q 22.3125 -1.421875 17.546875 -0.640625 
Q 12.796875 0.140625 7.71875 1.703125 
L 7.71875 11.625 
Q 12.109375 9.234375 16.796875 8.0625 
Q 21.484375 6.890625 26.703125 6.890625 
Q 35.15625 6.890625 40.078125 11.328125 
Q 45.015625 15.765625 45.015625 23.390625 
Q 45.015625 31 40.078125 35.4375 
Q 35.15625 39.890625 26.703125 39.890625 
Q 22.75 39.890625 18.8125 39.015625 
Q 14.890625 38.140625 10.796875 36.28125 
z
" id="DejaVuSans-53"/>
      </defs>
      <g transform="translate(87.898438 266.598437)scale(0.1 -0.1)">
       <use xlink:href="#DejaVuSans-50"/>
       <use x="63.623047" xlink:href="#DejaVuSans-46"/>
       <use x="95.410156" xlink:href="#DejaVuSans-53"/>
      </g>
     </g>
    </g>
    <g id="xtick_3">
     <g id="line2d_3">
      <g>
       <use style="stroke:#000000;stroke-width:0.8;" x="137.7" xlink:href="#m05a7b2edeb" y="252"/>
      </g>
     </g>
     <g id="text_3">
      <!-- 5.0 -->
      <g transform="translate(129.748438 266.598437)scale(0.1 -0.1)">
       <use xlink:href="#DejaVuSans-53"/>
       <use x="63.623047" xlink:href="#DejaVuSans-46"/>
       <use x="95.410156" xlink:href="#DejaVuSans-48"/>
      </g>
     </g>
    </g>
    <g id="xtick_4">
     <g id="line2d_4">
      <g>
       <use style="stroke:#000000;stroke-width:0.8;" x="179.55" xlink:href="#m05a7b2edeb" y="252"/>
      </g>
     </g>
     <g id="text_4">
      <!-- 7.5 -->
      <defs>
       <path d="M 8.203125 72.90625 
L 55.078125 72.90625 
L 55.078125 68.703125 
L 28.609375 0 
L 18.3125 0 
L 43.21875 64.59375 
L 8.203125 64.59375 
z
" id="DejaVuSans-55"/>
      </defs>
      <g transform="translate(171.598438 266.598437)scale(0.1 -0.1)">
       <use xlink:href="#DejaVuSans-55"/>
       <use x="63.623047" xlink:href="#DejaVuSans-46"/>
       <use x="95.410156" xlink:href="#DejaVuSans-53"/>
      </g>
     </g>
    </g>
    <g id="xtick_5">
     <g id="line2d_5">
      <g>
       <use style="stroke:#000000;stroke-width:0.8;" x="221.4" xlink:href="#m05a7b2edeb" y="252"/>
      </g>
     </g>
     <g id="text_5">
      <!-- 10.0 -->
      <defs>
       <path d="M 12.40625 8.296875 
L 28.515625 8.296875 
L 28.515625 63.921875 
L 10.984375 60.40625 
L 10.984375 69.390625 
L 28.421875 72.90625 
L 38.28125 72.90625 
L 38.28125 8.296875 
L 54.390625 8.296875 
L 54.390625 0 
L 12.40625 0 
z
" id="DejaVuSans-49"/>
      </defs>
      <g transform="translate(210.267188 266.598437)scale(0.1 -0.1)">
       <use xlink:href="#DejaVuSans-49"/>
       <use x="63.623047" xlink:href="#DejaVuSans-48"/>
       <use x="127.246094" xlink:href="#DejaVuSans-46"/>
       <use x="159.033203" xlink:href="#DejaVuSans-48"/>
      </g>
     </g>
    </g>
    <g id="xtick_6">
     <g id="line2d_6">
      <g>
       <use style="stroke:#000000;stroke-width:0.8;" x="263.25" xlink:href="#m05a7b2edeb" y="252"/>
      </g>
     </g>
     <g id="text_6">
      <!-- 12.5 -->
      <g transform="translate(252.117188 266.598437)scale(0.1 -0.1)">
       <use xlink:href="#DejaVuSans-49"/>
       <use x="63.623047" xlink:href="#DejaVuSans-50"/>
       <use x="127.246094" xlink:href="#DejaVuSans-46"/>
       <use x="159.033203" xlink:href="#DejaVuSans-53"/>
      </g>
     </g>
    </g>
    <g id="xtick_7">
     <g id="line2d_7">
      <g>
       <use style="stroke:#000000;stroke-width:0.8;" x="305.1" xlink:href="#m05a7b2edeb" y="252"/>
      </g>
     </g>
     <g id="text_7">
      <!-- 15.0 -->
      <g transform="translate(293.967188 266.598437)scale(0.1 -0.1)">
       <use xlink:href="#DejaVuSans-49"/>
       <use x="63.623047" xlink:href="#DejaVuSans-53"/>
       <use x="127.246094" xlink:href="#DejaVuSans-46"/>
       <use x="159.033203" xlink:href="#DejaVuSans-48"/>
      </g>
     </g>
    </g>
    <g id="xtick_8">
     <g id="line2d_8">
      <g>
       <use style="stroke:#000000;stroke-width:0.8;" x="346.95" xlink:href="#m05a7b2edeb" y="252"/>
      </g>
     </g>
     <g id="text_8">
      <!-- 17.5 -->
      <g transform="translate(335.817188 266.598437)scale(0.1 -0.1)">
       <use xlink:href="#DejaVuSans-49"/>
       <use x="63.623047" xlink:href="#DejaVuSans-55"/>
       <use x="127.246094" xlink:href="#DejaVuSans-46"/>
       <use x="159.033203" xlink:href="#DejaVuSans-53"/>
      </g>
     </g>
    </g>
    <g id="xtick_9">
     <g id="line2d_9">
      <g>
       <use style="stroke:#000000;stroke-width:0.8;" x="388.8" xlink:href="#m05a7b2edeb" y="252"/>
      </g>
     </g>
     <g id="text_9">
      <!-- 20.0 -->
      <g transform="translate(377.667188 266.598437)scale(0.1 -0.1)">
       <use xlink:href="#DejaVuSans-50"/>
       <use x="63.623047" xlink:href="#DejaVuSans-48"/>
       <use x="127.246094" xlink:href="#DejaVuSans-46"/>
       <use x="159.033203" xlink:href="#DejaVuSans-48"/>
      </g>
     </g>
    </g>
    <g id="text_10">
     <!-- time -->
     <defs>
      <path d="M 18.3125 70.21875 
L 18.3125 54.6875 
L 36.8125 54.6875 
L 36.8125 47.703125 
L 18.3125 47.703125 
L 18.3125 18.015625 
Q 18.3125 11.328125 20.140625 9.421875 
Q 21.96875 7.515625 27.59375 7.515625 
L 36.8125 7.515625 
L 36.8125 0 
L 27.59375 0 
Q 17.1875 0 13.234375 3.875 
Q 9.28125 7.765625 9.28125 18.015625 
L 9.28125 47.703125 
L 2.6875 47.703125 
L 2.6875 54.6875 
L 9.28125 54.6875 
L 9.28125 70.21875 
z
" id="DejaVuSans-116"/>
      <path d="M 9.421875 54.6875 
L 18.40625 54.6875 
L 18.40625 0 
L 9.421875 0 
z
M 9.421875 75.984375 
L 18.40625 75.984375 
L 18.40625 64.59375 
L 9.421875 64.59375 
z
" id="DejaVuSans-105"/>
      <path d="M 52 44.1875 
Q 55.375 50.25 60.0625 53.125 
Q 64.75 56 71.09375 56 
Q 79.640625 56 84.28125 50.015625 
Q 88.921875 44.046875 88.921875 33.015625 
L 88.921875 0 
L 79.890625 0 
L 79.890625 32.71875 
Q 79.890625 40.578125 77.09375 44.375 
Q 74.3125 48.1875 68.609375 48.1875 
Q 61.625 48.1875 57.5625 43.546875 
Q 53.515625 38.921875 53.515625 30.90625 
L 53.515625 0 
L 44.484375 0 
L 44.484375 32.71875 
Q 44.484375 40.625 41.703125 44.40625 
Q 38.921875 48.1875 33.109375 48.1875 
Q 26.21875 48.1875 22.15625 43.53125 
Q 18.109375 38.875 18.109375 30.90625 
L 18.109375 0 
L 9.078125 0 
L 9.078125 54.6875 
L 18.109375 54.6875 
L 18.109375 46.1875 
Q 21.1875 51.21875 25.484375 53.609375 
Q 29.78125 56 35.6875 56 
Q 41.65625 56 45.828125 52.96875 
Q 50 49.953125 52 44.1875 
z
" id="DejaVuSans-109"/>
      <path d="M 56.203125 29.59375 
L 56.203125 25.203125 
L 14.890625 25.203125 
Q 15.484375 15.921875 20.484375 11.0625 
Q 25.484375 6.203125 34.421875 6.203125 
Q 39.59375 6.203125 44.453125 7.46875 
Q 49.3125 8.734375 54.109375 11.28125 
L 54.109375 2.78125 
Q 49.265625 0.734375 44.1875 -0.34375 
Q 39.109375 -1.421875 33.890625 -1.421875 
Q 20.796875 -1.421875 13.15625 6.1875 
Q 5.515625 13.8125 5.515625 26.8125 
Q 5.515625 40.234375 12.765625 48.109375 
Q 20.015625 56 32.328125 56 
Q 43.359375 56 49.78125 48.890625 
Q 56.203125 41.796875 56.203125 29.59375 
z
M 47.21875 32.234375 
Q 47.125 39.59375 43.09375 43.984375 
Q 39.0625 48.390625 32.421875 48.390625 
Q 24.90625 48.390625 20.390625 44.140625 
Q 15.875 39.890625 15.1875 32.171875 
z
" id="DejaVuSans-101"/>
     </defs>
     <g transform="translate(210.103906 280.276563)scale(0.1 -0.1)">
      <use xlink:href="#DejaVuSans-116"/>
      <use x="39.208984" xlink:href="#DejaVuSans-105"/>
      <use x="66.992188" xlink:href="#DejaVuSans-109"/>
      <use x="164.404297" xlink:href="#DejaVuSans-101"/>
     </g>
    </g>
   </g>
   <g id="matplotlib.axis_2">
    <g id="ytick_1">
     <g id="line2d_10">
      <defs>
       <path d="M 0 0 
L -3.5 0 
" id="ma6deb971ed" style="stroke:#000000;stroke-width:0.8;"/>
      </defs>
      <g>
       <use style="stroke:#000000;stroke-width:0.8;" x="54" xlink:href="#ma6deb971ed" y="252"/>
      </g>
     </g>
     <g id="text_11">
      <!-- 0.0 -->
      <g transform="translate(31.096875 255.799219)scale(0.1 -0.1)">
       <use xlink:href="#DejaVuSans-48"/>
       <use x="63.623047" xlink:href="#DejaVuSans-46"/>
       <use x="95.410156" xlink:href="#DejaVuSans-48"/>
      </g>
     </g>
    </g>
    <g id="ytick_2">
     <g id="line2d_11">
      <g>
       <use style="stroke:#000000;stroke-width:0.8;" x="54" xlink:href="#ma6deb971ed" y="224.82"/>
      </g>
     </g>
     <g id="text_12">
      <!-- 0.5 -->
      <g transform="translate(31.096875 228.619219)scale(0.1 -0.1)">
       <use xlink:href="#DejaVuSans-48"/>
       <use x="63.623047" xlink:href="#DejaVuSans-46"/>
       <use x="95.410156" xlink:href="#DejaVuSans-53"/>
      </g>
     </g>
    </g>
    <g id="ytick_3">
     <g id="line2d_12">
      <g>
       <use style="stroke:#000000;stroke-width:0.8;" x="54" xlink:href="#ma6deb971ed" y="197.64"/>
      </g>
     </g>
     <g id="text_13">
      <!-- 1.0 -->
      <g transform="translate(31.096875 201.439219)scale(0.1 -0.1)">
       <use xlink:href="#DejaVuSans-49"/>
       <use x="63.623047" xlink:href="#DejaVuSans-46"/>
       <use x="95.410156" xlink:href="#DejaVuSans-48"/>
      </g>
     </g>
    </g>
    <g id="ytick_4">
     <g id="line2d_13">
      <g>
       <use style="stroke:#000000;stroke-width:0.8;" x="54" xlink:href="#ma6deb971ed" y="170.46"/>
      </g>
     </g>
     <g id="text_14">
      <!-- 1.5 -->
      <g transform="translate(31.096875 174.259219)scale(0.1 -0.1)">
       <use xlink:href="#DejaVuSans-49"/>
       <use x="63.623047" xlink:href="#DejaVuSans-46"/>
       <use x="95.410156" xlink:href="#DejaVuSans-53"/>
      </g>
     </g>
    </g>
    <g id="ytick_5">
     <g id="line2d_14">
      <g>
       <use style="stroke:#000000;stroke-width:0.8;" x="54" xlink:href="#ma6deb971ed" y="143.28"/>
      </g>
     </g>
     <g id="text_15">
      <!-- 2.0 -->
      <g transform="translate(31.096875 147.079219)scale(0.1 -0.1)">
       <use xlink:href="#DejaVuSans-50"/>
       <use x="63.623047" xlink:href="#DejaVuSans-46"/>
       <use x="95.410156" xlink:href="#DejaVuSans-48"/>
      </g>
     </g>
    </g>
    <g id="ytick_6">
     <g id="line2d_15">
      <g>
       <use style="stroke:#000000;stroke-width:0.8;" x="54" xlink:href="#ma6deb971ed" y="116.1"/>
      </g>
     </g>
     <g id="text_16">
      <!-- 2.5 -->
      <g transform="translate(31.096875 119.899219)scale(0.1 -0.1)">
       <use xlink:href="#DejaVuSans-50"/>
       <use x="63.623047" xlink:href="#DejaVuSans-46"/>
       <use x="95.410156" xlink:href="#DejaVuSans-53"/>
      </g>
     </g>
    </g>
    <g id="ytick_7">
     <g id="line2d_16">
      <g>
       <use style="stroke:#000000;stroke-width:0.8;" x="54" xlink:href="#ma6deb971ed" y="88.92"/>
      </g>
     </g>
     <g id="text_17">
      <!-- 3.0 -->
      <defs>
       <path d="M 40.578125 39.3125 
Q 47.65625 37.796875 51.625 33 
Q 55.609375 28.21875 55.609375 21.1875 
Q 55.609375 10.40625 48.1875 4.484375 
Q 40.765625 -1.421875 27.09375 -1.421875 
Q 22.515625 -1.421875 17.65625 -0.515625 
Q 12.796875 0.390625 7.625 2.203125 
L 7.625 11.71875 
Q 11.71875 9.328125 16.59375 8.109375 
Q 21.484375 6.890625 26.8125 6.890625 
Q 36.078125 6.890625 40.9375 10.546875 
Q 45.796875 14.203125 45.796875 21.1875 
Q 45.796875 27.640625 41.28125 31.265625 
Q 36.765625 34.90625 28.71875 34.90625 
L 20.21875 34.90625 
L 20.21875 43.015625 
L 29.109375 43.015625 
Q 36.375 43.015625 40.234375 45.921875 
Q 44.09375 48.828125 44.09375 54.296875 
Q 44.09375 59.90625 40.109375 62.90625 
Q 36.140625 65.921875 28.71875 65.921875 
Q 24.65625 65.921875 20.015625 65.03125 
Q 15.375 64.15625 9.8125 62.3125 
L 9.8125 71.09375 
Q 15.4375 72.65625 20.34375 73.4375 
Q 25.25 74.21875 29.59375 74.21875 
Q 40.828125 74.21875 47.359375 69.109375 
Q 53.90625 64.015625 53.90625 55.328125 
Q 53.90625 49.265625 50.4375 45.09375 
Q 46.96875 40.921875 40.578125 39.3125 
z
" id="DejaVuSans-51"/>
      </defs>
      <g transform="translate(31.096875 92.719219)scale(0.1 -0.1)">
       <use xlink:href="#DejaVuSans-51"/>
       <use x="63.623047" xlink:href="#DejaVuSans-46"/>
       <use x="95.410156" xlink:href="#DejaVuSans-48"/>
      </g>
     </g>
    </g>
    <g id="ytick_8">
     <g id="line2d_17">
      <g>
       <use style="stroke:#000000;stroke-width:0.8;" x="54" xlink:href="#ma6deb971ed" y="61.74"/>
      </g>
     </g>
     <g id="text_18">
      <!-- 3.5 -->
      <g transform="translate(31.096875 65.539219)scale(0.1 -0.1)">
       <use xlink:href="#DejaVuSans-51"/>
       <use x="63.623047" xlink:href="#DejaVuSans-46"/>
       <use x="95.410156" xlink:href="#DejaVuSans-53"/>
      </g>
     </g>
    </g>
    <g id="ytick_9">
     <g id="line2d_18">
      <g>
       <use style="stroke:#000000;stroke-width:0.8;" x="54" xlink:href="#ma6deb971ed" y="34.56"/>
      </g>
     </g>
     <g id="text_19">
      <!-- 4.0 -->
      <defs>
       <path d="M 37.796875 64.3125 
L 12.890625 25.390625 
L 37.796875 25.390625 
z
M 35.203125 72.90625 
L 47.609375 72.90625 
L 47.609375 25.390625 
L 58.015625 25.390625 
L 58.015625 17.1875 
L 47.609375 17.1875 
L 47.609375 0 
L 37.796875 0 
L 37.796875 17.1875 
L 4.890625 17.1875 
L 4.890625 26.703125 
z
" id="DejaVuSans-52"/>
      </defs>
      <g transform="translate(31.096875 38.359219)scale(0.1 -0.1)">
       <use xlink:href="#DejaVuSans-52"/>
       <use x="63.623047" xlink:href="#DejaVuSans-46"/>
       <use x="95.410156" xlink:href="#DejaVuSans-48"/>
      </g>
     </g>
    </g>
    <g id="text_20">
     <!-- Number of particles -->
     <defs>
      <path d="M 9.8125 72.90625 
L 23.09375 72.90625 
L 55.421875 11.921875 
L 55.421875 72.90625 
L 64.984375 72.90625 
L 64.984375 0 
L 51.703125 0 
L 19.390625 60.984375 
L 19.390625 0 
L 9.8125 0 
z
" id="DejaVuSans-78"/>
      <path d="M 8.5 21.578125 
L 8.5 54.6875 
L 17.484375 54.6875 
L 17.484375 21.921875 
Q 17.484375 14.15625 20.5 10.265625 
Q 23.53125 6.390625 29.59375 6.390625 
Q 36.859375 6.390625 41.078125 11.03125 
Q 45.3125 15.671875 45.3125 23.6875 
L 45.3125 54.6875 
L 54.296875 54.6875 
L 54.296875 0 
L 45.3125 0 
L 45.3125 8.40625 
Q 42.046875 3.421875 37.71875 1 
Q 33.40625 -1.421875 27.6875 -1.421875 
Q 18.265625 -1.421875 13.375 4.4375 
Q 8.5 10.296875 8.5 21.578125 
z
M 31.109375 56 
z
" id="DejaVuSans-117"/>
      <path d="M 48.6875 27.296875 
Q 48.6875 37.203125 44.609375 42.84375 
Q 40.53125 48.484375 33.40625 48.484375 
Q 26.265625 48.484375 22.1875 42.84375 
Q 18.109375 37.203125 18.109375 27.296875 
Q 18.109375 17.390625 22.1875 11.75 
Q 26.265625 6.109375 33.40625 6.109375 
Q 40.53125 6.109375 44.609375 11.75 
Q 48.6875 17.390625 48.6875 27.296875 
z
M 18.109375 46.390625 
Q 20.953125 51.265625 25.265625 53.625 
Q 29.59375 56 35.59375 56 
Q 45.5625 56 51.78125 48.09375 
Q 58.015625 40.1875 58.015625 27.296875 
Q 58.015625 14.40625 51.78125 6.484375 
Q 45.5625 -1.421875 35.59375 -1.421875 
Q 29.59375 -1.421875 25.265625 0.953125 
Q 20.953125 3.328125 18.109375 8.203125 
L 18.109375 0 
L 9.078125 0 
L 9.078125 75.984375 
L 18.109375 75.984375 
z
" id="DejaVuSans-98"/>
      <path d="M 41.109375 46.296875 
Q 39.59375 47.171875 37.8125 47.578125 
Q 36.03125 48 33.890625 48 
Q 26.265625 48 22.1875 43.046875 
Q 18.109375 38.09375 18.109375 28.8125 
L 18.109375 0 
L 9.078125 0 
L 9.078125 54.6875 
L 18.109375 54.6875 
L 18.109375 46.1875 
Q 20.953125 51.171875 25.484375 53.578125 
Q 30.03125 56 36.53125 56 
Q 37.453125 56 38.578125 55.875 
Q 39.703125 55.765625 41.0625 55.515625 
z
" id="DejaVuSans-114"/>
      <path id="DejaVuSans-32"/>
      <path d="M 30.609375 48.390625 
Q 23.390625 48.390625 19.1875 42.75 
Q 14.984375 37.109375 14.984375 27.296875 
Q 14.984375 17.484375 19.15625 11.84375 
Q 23.34375 6.203125 30.609375 6.203125 
Q 37.796875 6.203125 41.984375 11.859375 
Q 46.1875 17.53125 46.1875 27.296875 
Q 46.1875 37.015625 41.984375 42.703125 
Q 37.796875 48.390625 30.609375 48.390625 
z
M 30.609375 56 
Q 42.328125 56 49.015625 48.375 
Q 55.71875 40.765625 55.71875 27.296875 
Q 55.71875 13.875 49.015625 6.21875 
Q 42.328125 -1.421875 30.609375 -1.421875 
Q 18.84375 -1.421875 12.171875 6.21875 
Q 5.515625 13.875 5.515625 27.296875 
Q 5.515625 40.765625 12.171875 48.375 
Q 18.84375 56 30.609375 56 
z
" id="DejaVuSans-111"/>
      <path d="M 37.109375 75.984375 
L 37.109375 68.5 
L 28.515625 68.5 
Q 23.6875 68.5 21.796875 66.546875 
Q 19.921875 64.59375 19.921875 59.515625 
L 19.921875 54.6875 
L 34.71875 54.6875 
L 34.71875 47.703125 
L 19.921875 47.703125 
L 19.921875 0 
L 10.890625 0 
L 10.890625 47.703125 
L 2.296875 47.703125 
L 2.296875 54.6875 
L 10.890625 54.6875 
L 10.890625 58.5 
Q 10.890625 67.625 15.140625 71.796875 
Q 19.390625 75.984375 28.609375 75.984375 
z
" id="DejaVuSans-102"/>
      <path d="M 18.109375 8.203125 
L 18.109375 -20.796875 
L 9.078125 -20.796875 
L 9.078125 54.6875 
L 18.109375 54.6875 
L 18.109375 46.390625 
Q 20.953125 51.265625 25.265625 53.625 
Q 29.59375 56 35.59375 56 
Q 45.5625 56 51.78125 48.09375 
Q 58.015625 40.1875 58.015625 27.296875 
Q 58.015625 14.40625 51.78125 6.484375 
Q 45.5625 -1.421875 35.59375 -1.421875 
Q 29.59375 -1.421875 25.265625 0.953125 
Q 20.953125 3.328125 18.109375 8.203125 
z
M 48.6875 27.296875 
Q 48.6875 37.203125 44.609375 42.84375 
Q 40.53125 48.484375 33.40625 48.484375 
Q 26.265625 48.484375 22.1875 42.84375 
Q 18.109375 37.203125 18.109375 27.296875 
Q 18.109375 17.390625 22.1875 11.75 
Q 26.265625 6.109375 33.40625 6.109375 
Q 40.53125 6.109375 44.609375 11.75 
Q 48.6875 17.390625 48.6875 27.296875 
z
" id="DejaVuSans-112"/>
      <path d="M 34.28125 27.484375 
Q 23.390625 27.484375 19.1875 25 
Q 14.984375 22.515625 14.984375 16.5 
Q 14.984375 11.71875 18.140625 8.90625 
Q 21.296875 6.109375 26.703125 6.109375 
Q 34.1875 6.109375 38.703125 11.40625 
Q 43.21875 16.703125 43.21875 25.484375 
L 43.21875 27.484375 
z
M 52.203125 31.203125 
L 52.203125 0 
L 43.21875 0 
L 43.21875 8.296875 
Q 40.140625 3.328125 35.546875 0.953125 
Q 30.953125 -1.421875 24.3125 -1.421875 
Q 15.921875 -1.421875 10.953125 3.296875 
Q 6 8.015625 6 15.921875 
Q 6 25.140625 12.171875 29.828125 
Q 18.359375 34.515625 30.609375 34.515625 
L 43.21875 34.515625 
L 43.21875 35.40625 
Q 43.21875 41.609375 39.140625 45 
Q 35.0625 48.390625 27.6875 48.390625 
Q 23 48.390625 18.546875 47.265625 
Q 14.109375 46.140625 10.015625 43.890625 
L 10.015625 52.203125 
Q 14.9375 54.109375 19.578125 55.046875 
Q 24.21875 56 28.609375 56 
Q 40.484375 56 46.34375 49.84375 
Q 52.203125 43.703125 52.203125 31.203125 
z
" id="DejaVuSans-97"/>
      <path d="M 48.78125 52.59375 
L 48.78125 44.1875 
Q 44.96875 46.296875 41.140625 47.34375 
Q 37.3125 48.390625 33.40625 48.390625 
Q 24.65625 48.390625 19.8125 42.84375 
Q 14.984375 37.3125 14.984375 27.296875 
Q 14.984375 17.28125 19.8125 11.734375 
Q 24.65625 6.203125 33.40625 6.203125 
Q 37.3125 6.203125 41.140625 7.25 
Q 44.96875 8.296875 48.78125 10.40625 
L 48.78125 2.09375 
Q 45.015625 0.34375 40.984375 -0.53125 
Q 36.96875 -1.421875 32.421875 -1.421875 
Q 20.0625 -1.421875 12.78125 6.34375 
Q 5.515625 14.109375 5.515625 27.296875 
Q 5.515625 40.671875 12.859375 48.328125 
Q 20.21875 56 33.015625 56 
Q 37.15625 56 41.109375 55.140625 
Q 45.0625 54.296875 48.78125 52.59375 
z
" id="DejaVuSans-99"/>
      <path d="M 9.421875 75.984375 
L 18.40625 75.984375 
L 18.40625 0 
L 9.421875 0 
z
" id="DejaVuSans-108"/>
      <path d="M 44.28125 53.078125 
L 44.28125 44.578125 
Q 40.484375 46.53125 36.375 47.5 
Q 32.28125 48.484375 27.875 48.484375 
Q 21.1875 48.484375 17.84375 46.4375 
Q 14.5 44.390625 14.5 40.28125 
Q 14.5 37.15625 16.890625 35.375 
Q 19.28125 33.59375 26.515625 31.984375 
L 29.59375 31.296875 
Q 39.15625 29.25 43.1875 25.515625 
Q 47.21875 21.78125 47.21875 15.09375 
Q 47.21875 7.46875 41.1875 3.015625 
Q 35.15625 -1.421875 24.609375 -1.421875 
Q 20.21875 -1.421875 15.453125 -0.5625 
Q 10.6875 0.296875 5.421875 2 
L 5.421875 11.28125 
Q 10.40625 8.6875 15.234375 7.390625 
Q 20.0625 6.109375 24.8125 6.109375 
Q 31.15625 6.109375 34.5625 8.28125 
Q 37.984375 10.453125 37.984375 14.40625 
Q 37.984375 18.0625 35.515625 20.015625 
Q 33.0625 21.96875 24.703125 23.78125 
L 21.578125 24.515625 
Q 13.234375 26.265625 9.515625 29.90625 
Q 5.8125 33.546875 5.8125 39.890625 
Q 5.8125 47.609375 11.28125 51.796875 
Q 16.75 56 26.8125 56 
Q 31.78125 56 36.171875 55.265625 
Q 40.578125 54.546875 44.28125 53.078125 
z
" id="DejaVuSans-115"/>
     </defs>
     <g transform="translate(25.017187 192.826094)rotate(-90)scale(0.1 -0.1)">
      <use xlink:href="#DejaVuSans-78"/>
      <use x="74.804688" xlink:href="#DejaVuSans-117"/>
      <use x="138.183594" xlink:href="#DejaVuSans-109"/>
      <use x="235.595703" xlink:href="#DejaVuSans-98"/>
      <use x="299.072266" xlink:href="#DejaVuSans-101"/>
      <use x="360.595703" xlink:href="#DejaVuSans-114"/>
      <use x="401.708984" xlink:href="#DejaVuSans-32"/>
      <use x="433.496094" xlink:href="#DejaVuSans-111"/>
      <use x="494.677734" xlink:href="#DejaVuSans-102"/>
      <use x="529.882812" xlink:href="#DejaVuSans-32"/>
      <use x="561.669922" xlink:href="#DejaVuSans-112"/>
      <use x="625.146484" xlink:href="#DejaVuSans-97"/>
      <use x="686.425781" xlink:href="#DejaVuSans-114"/>
      <use x="727.539062" xlink:href="#DejaVuSans-116"/>
      <use x="766.748047" xlink:href="#DejaVuSans-105"/>
      <use x="794.53125" xlink:href="#DejaVuSans-99"/>
      <use x="849.511719" xlink:href="#DejaVuSans-108"/>
      <use x="877.294922" xlink:href="#DejaVuSans-101"/>
      <use x="938.818359" xlink:href="#DejaVuSans-115"/>
     </g>
    </g>
   </g>
   <g id="line2d_19">
    <path clip-path="url(#p31b4d8ba4c)" d="M 54 143.927225 
L 54.67027 143.946318 
L 55.340541 143.5626 
L 56.010811 142.75859 
L 56.681081 141.554424 
L 57.686486 139.122257 
L 59.027027 135.082061 
L 60.702703 129.285493 
L 64.724324 114.981958 
L 68.745946 102.020254 
L 70.756757 95.371704 
L 72.097297 91.614072 
L 73.772973 87.69364 
L 76.118919 82.931053 
L 77.794595 79.918269 
L 78.8 78.518025 
L 79.47027 77.858956 
L 80.140541 77.455535 
L 80.810811 77.311609 
L 81.481081 77.408935 
L 82.151351 77.716399 
L 83.156757 78.502279 
L 84.162162 79.613185 
L 85.167568 81.014161 
L 86.508108 83.278668 
L 91.535135 92.461209 
L 92.540541 93.752285 
L 93.545946 94.727791 
L 94.551351 95.351364 
L 95.221622 95.558099 
L 95.891892 95.596694 
L 96.897297 95.363661 
L 97.902703 94.853369 
L 102.259459 92.180569 
L 104.605405 91.413996 
L 105.945946 90.867341 
L 107.621622 89.922675 
L 113.318919 86.279902 
L 115.32973 84.704601 
L 116.335135 84.17923 
L 117.340541 83.96345 
L 118.345946 84.072109 
L 119.351351 84.46194 
L 120.691892 85.290754 
L 124.378378 87.85074 
L 125.383784 88.234123 
L 126.389189 88.362726 
L 127.394595 88.212811 
L 128.4 87.781712 
L 129.405405 87.085831 
L 130.745946 85.827045 
L 135.772973 80.668769 
L 139.459459 77.302627 
L 140.464865 76.660147 
L 141.47027 76.28954 
L 142.475676 76.189586 
L 143.816216 76.350062 
L 146.497297 77.009763 
L 147.837838 77.531001 
L 148.843243 78.155162 
L 149.848649 79.057243 
L 151.189189 80.677876 
L 155.545946 86.803353 
L 156.886486 88.902842 
L 158.562162 92.004528 
L 160.572973 95.787644 
L 161.913514 97.831517 
L 163.254054 99.383434 
L 164.594595 100.567866 
L 166.27027 101.751714 
L 167.610811 102.483332 
L 168.616216 102.820865 
L 169.621622 102.903626 
L 170.627027 102.711912 
L 171.632432 102.28105 
L 172.972973 101.43708 
L 174.648649 100.07489 
L 176.659459 98.083578 
L 178.67027 95.749558 
L 180.010811 93.88845 
L 181.686486 91.160774 
L 185.372973 84.543054 
L 187.718919 80.447545 
L 189.059459 78.572845 
L 190.064865 77.498637 
L 191.07027 76.708711 
L 192.075676 76.204346 
L 193.081081 76.010029 
L 194.086486 76.145157 
L 195.091892 76.588306 
L 196.097297 77.281082 
L 197.437838 78.493732 
L 199.448649 80.720171 
L 201.124324 82.542977 
L 202.464865 83.643595 
L 203.805405 84.37412 
L 206.821622 85.743643 
L 208.497297 86.872956 
L 210.172973 88.006954 
L 211.178378 88.468199 
L 212.183784 88.69187 
L 213.524324 88.683655 
L 215.2 88.410427 
L 217.210811 87.844741 
L 221.902703 86.283765 
L 223.578378 86.000978 
L 224.918919 86.004611 
L 225.924324 86.217132 
L 227.264865 86.785834 
L 228.940541 87.831439 
L 230.951351 89.391896 
L 238.324324 95.514139 
L 239.664865 96.191997 
L 240.67027 96.489372 
L 242.010811 96.60932 
L 243.351351 96.47739 
L 245.027027 96.057415 
L 246.702703 95.404331 
L 250.054054 93.751934 
L 252.064865 92.632107 
L 253.405405 91.653254 
L 255.416216 89.84674 
L 263.459459 82.261248 
L 264.8 81.422016 
L 265.805405 81.044967 
L 266.810811 80.92164 
L 267.816216 81.040468 
L 268.821622 81.363797 
L 270.162162 82.049958 
L 271.837838 83.212066 
L 275.859459 86.160674 
L 278.205405 87.636551 
L 279.545946 88.263567 
L 281.221622 88.779872 
L 282.897297 89.301289 
L 284.237838 89.943264 
L 286.248649 91.242627 
L 287.589189 92.005021 
L 288.594595 92.322295 
L 289.6 92.37667 
L 290.940541 92.1604 
L 293.621622 91.424847 
L 294.627027 90.966266 
L 295.632432 90.304965 
L 296.972973 89.137896 
L 298.983784 87.026429 
L 300.659459 84.936198 
L 302.335135 82.436604 
L 305.016216 78.291707 
L 306.021622 77.147411 
L 306.691892 76.633685 
L 307.362162 76.344772 
L 308.032432 76.27358 
L 308.702703 76.388805 
L 309.708108 76.810476 
L 311.383784 77.85622 
L 313.059459 79.193495 
L 314.4 80.566616 
L 315.740541 82.262624 
L 317.416216 84.796758 
L 321.102703 90.604249 
L 323.113514 93.153415 
L 325.124324 95.429361 
L 326.464865 96.636241 
L 327.47027 97.25258 
L 328.475676 97.599928 
L 329.481081 97.716594 
L 330.821622 97.621844 
L 332.497297 97.241676 
L 333.837838 96.683676 
L 334.843243 96.024514 
L 335.848649 95.120169 
L 337.524324 93.204852 
L 340.540541 89.684981 
L 342.551351 87.255354 
L 344.562162 84.335746 
L 346.237838 82.049506 
L 347.243243 81.058717 
L 347.913514 80.618659 
L 348.583784 80.363568 
L 349.254054 80.286399 
L 349.924324 80.372734 
L 350.92973 80.774863 
L 351.935135 81.471904 
L 352.940541 82.44353 
L 354.281081 84.097147 
L 357.632432 88.488037 
L 361.318919 92.827236 
L 363.664865 95.811224 
L 365.005405 97.09852 
L 366.345946 98.000528 
L 370.702703 100.383722 
L 371.708108 100.596781 
L 372.378378 100.541563 
L 373.383784 100.172797 
L 374.724324 99.325615 
L 378.745946 96.338722 
L 383.102703 92.778503 
L 384.443243 92.14596 
L 386.118919 91.654417 
L 388.12973 91.289467 
L 388.8 91.211598 
L 388.8 91.211598 
" style="fill:none;stroke:#0000ff;stroke-linecap:square;stroke-width:1.5;"/>
   </g>
   <g id="line2d_20">
    <path clip-path="url(#p31b4d8ba4c)" d="M 54 204.149934 
L 57.016216 208.439194 
L 57.686486 208.964814 
L 58.356757 209.242902 
L 59.027027 209.277848 
L 59.697297 209.08796 
L 60.367568 208.701126 
L 61.372973 207.832307 
L 63.383784 205.614231 
L 65.059459 203.884184 
L 67.07027 202.143174 
L 69.751351 200.08455 
L 75.448649 196.305394 
L 76.789189 195.612361 
L 77.794595 195.358741 
L 78.464865 195.3612 
L 79.135135 195.517439 
L 80.140541 196.039816 
L 81.145946 196.85932 
L 82.821622 198.60064 
L 85.167568 201.013279 
L 86.843243 202.405617 
L 88.854054 203.735049 
L 91.2 204.977911 
L 93.881081 206.133979 
L 96.227027 206.940296 
L 97.567568 207.215182 
L 98.908108 207.271404 
L 100.248649 207.081121 
L 101.589189 206.654243 
L 102.92973 206.016309 
L 104.605405 204.970108 
L 106.951351 203.178721 
L 111.308108 199.753038 
L 114.324324 197.762159 
L 116.335135 196.631549 
L 117.675676 196.093063 
L 119.016216 195.778066 
L 120.356757 195.670401 
L 122.367568 195.759866 
L 124.043243 195.792905 
L 125.383784 195.603556 
L 127.394595 195.024692 
L 129.740541 194.398616 
L 131.751351 194.058822 
L 133.091892 194.009116 
L 134.432432 194.171357 
L 136.108108 194.632611 
L 141.135135 196.445243 
L 143.145946 197.371274 
L 146.162162 199.05936 
L 148.843243 200.780218 
L 151.189189 202.555144 
L 153.535135 204.603844 
L 155.210811 206.330685 
L 156.886486 208.372542 
L 159.902703 212.214442 
L 161.243243 213.461535 
L 162.248649 214.115455 
L 163.254054 214.547302 
L 164.259459 214.785918 
L 165.6 214.861546 
L 167.275676 214.707324 
L 169.286486 214.31386 
L 170.962162 213.780689 
L 175.318919 212.201417 
L 180.681081 210.743074 
L 185.708108 208.626262 
L 187.383784 208.361706 
L 189.72973 208.293745 
L 194.756757 208.318054 
L 196.097297 208.610281 
L 197.772973 209.233863 
L 201.794595 210.951809 
L 203.135135 211.188447 
L 204.475676 211.154578 
L 205.816216 210.858746 
L 207.491892 210.211832 
L 210.843243 208.82886 
L 212.183784 208.535961 
L 213.524324 208.48653 
L 215.2 208.697098 
L 217.881081 209.062569 
L 220.897297 209.396572 
L 222.572973 209.811613 
L 224.248649 210.458848 
L 225.924324 211.403694 
L 230.281081 214.155443 
L 231.956757 214.799463 
L 233.967568 215.305109 
L 235.978378 215.60901 
L 237.654054 215.661798 
L 239.664865 215.492861 
L 243.016216 214.967029 
L 245.027027 214.450364 
L 250.054054 212.860612 
L 255.081081 211.984281 
L 256.756757 211.372565 
L 258.432432 210.490649 
L 260.778378 208.911558 
L 263.459459 207.123278 
L 264.8 206.449242 
L 266.140541 206.028297 
L 267.145946 205.907063 
L 268.486486 205.997925 
L 270.162162 206.388821 
L 272.172973 206.833258 
L 273.513514 206.867098 
L 275.189189 206.598208 
L 277.2 206.254546 
L 278.540541 206.296754 
L 279.545946 206.530817 
L 280.886486 207.088971 
L 282.897297 208.227557 
L 285.913514 209.895803 
L 287.254054 210.379655 
L 288.259459 210.508846 
L 289.264865 210.388376 
L 290.27027 210.030851 
L 291.610811 209.30294 
L 294.962162 207.366397 
L 297.643243 206.136496 
L 300.659459 204.994702 
L 304.345946 203.634969 
L 307.362162 202.368986 
L 308.702703 202.104639 
L 309.708108 202.103585 
L 311.048649 202.347888 
L 312.389189 202.815081 
L 314.735135 203.936355 
L 317.081081 205.020669 
L 318.756757 205.556883 
L 323.448649 206.827489 
L 325.459459 207.808005 
L 327.805405 208.945621 
L 329.145946 209.382717 
L 330.486486 209.588234 
L 331.827027 209.568581 
L 333.502703 209.314383 
L 338.52973 208.389366 
L 341.210811 208.013931 
L 343.221622 207.423357 
L 344.562162 207.075521 
L 345.567568 207.004155 
L 346.572973 207.159017 
L 347.578378 207.526549 
L 349.924324 208.759037 
L 351.264865 209.340708 
L 352.605405 209.683305 
L 354.281081 209.840631 
L 356.627027 209.814282 
L 358.637838 209.798255 
L 359.643243 209.95293 
L 360.648649 210.297629 
L 361.989189 211.038668 
L 365.005405 212.933054 
L 366.345946 213.459129 
L 368.021622 213.831971 
L 371.708108 214.365096 
L 373.383784 214.37907 
L 375.394595 214.120216 
L 377.405405 213.653713 
L 379.751351 212.860471 
L 382.097297 212.107956 
L 385.113514 211.439165 
L 388.12973 210.90325 
L 388.8 210.84169 
L 388.8 210.84169 
" style="fill:none;stroke:#ff0000;stroke-linecap:square;stroke-width:1.5;"/>
   </g>
   <g id="line2d_21">
    <path clip-path="url(#p31b4d8ba4c)" d="M 54 242.251113 
L 54.67027 242.218619 
L 55.340541 241.845301 
L 56.010811 241.1663 
L 57.016216 239.718487 
L 61.037838 233.174272 
L 62.043243 232.048401 
L 63.048649 231.241986 
L 64.054054 230.767146 
L 65.059459 230.606133 
L 66.064865 230.706679 
L 67.405405 231.11486 
L 70.086486 232.280347 
L 73.437838 233.656424 
L 75.448649 234.265678 
L 76.789189 234.446327 
L 78.12973 234.380694 
L 79.805405 234.042005 
L 83.827027 232.928175 
L 86.172973 232.011104 
L 91.87027 229.649779 
L 96.562162 227.95464 
L 98.908108 227.124442 
L 100.248649 226.891946 
L 101.589189 226.894362 
L 103.6 227.195239 
L 105.610811 227.450333 
L 107.286486 227.398522 
L 110.302703 226.956447 
L 113.654054 226.321394 
L 117.005405 225.629562 
L 119.016216 225.498827 
L 123.037838 225.364852 
L 129.07027 224.654977 
L 130.410811 224.214751 
L 131.751351 223.536246 
L 139.124324 219.28971 
L 140.8 218.600487 
L 142.140541 218.276285 
L 143.816216 218.146442 
L 146.832432 218.01901 
L 148.508108 217.65876 
L 152.864865 216.516931 
L 156.551351 215.937281 
L 158.897297 215.749743 
L 161.243243 215.790737 
L 163.254054 216.050125 
L 165.935135 216.66215 
L 168.616216 217.233709 
L 170.291892 217.358773 
L 174.648649 217.507582 
L 177.664865 217.764255 
L 179.675676 217.646993 
L 182.691892 217.181927 
L 184.367568 216.7478 
L 185.708108 216.192739 
L 190.064865 214.058324 
L 191.405405 213.78223 
L 193.416216 213.648935 
L 196.097297 213.444209 
L 198.778378 212.931325 
L 201.124324 212.296426 
L 205.481081 210.854422 
L 206.486486 210.85168 
L 207.491892 211.049577 
L 209.167568 211.6551 
L 210.843243 212.192948 
L 212.183784 212.340026 
L 213.524324 212.227201 
L 215.535135 211.78325 
L 220.897297 210.463921 
L 222.908108 210.336057 
L 231.621622 210.186503 
L 234.302703 210.527309 
L 235.978378 210.940446 
L 238.659459 211.922719 
L 240 212.290256 
L 241.005405 212.383798 
L 242.345946 212.245565 
L 244.356757 211.699015 
L 255.081081 208.277356 
L 256.756757 207.575697 
L 258.767568 206.449892 
L 261.113514 205.136027 
L 262.454054 204.694507 
L 263.794595 204.546801 
L 265.47027 204.649943 
L 268.486486 205.123969 
L 270.497297 205.593547 
L 271.837838 206.104916 
L 273.513514 207.013408 
L 277.2 209.166269 
L 278.875676 209.854168 
L 280.886486 210.420779 
L 284.572973 211.375408 
L 286.248649 212.094886 
L 290.940541 214.399005 
L 292.281081 214.67756 
L 293.286486 214.698435 
L 294.627027 214.469628 
L 296.302703 213.893396 
L 301.32973 211.827274 
L 304.010811 210.38118 
L 307.027027 208.777221 
L 309.037838 208.027318 
L 312.389189 207.104508 
L 314.064865 206.813816 
L 315.405405 206.775534 
L 316.745946 206.953515 
L 318.086486 207.344539 
L 320.097297 208.201656 
L 323.113514 209.468016 
L 329.481081 211.868487 
L 335.848649 214.426921 
L 341.545946 216.106266 
L 342.886486 216.312975 
L 344.227027 216.253914 
L 345.567568 215.936551 
L 350.594595 214.355828 
L 351.935135 214.258534 
L 353.275676 214.364948 
L 354.951351 214.720914 
L 361.318919 216.316258 
L 364 216.663909 
L 367.351351 217.03249 
L 370.702703 217.593293 
L 371.708108 217.481379 
L 373.048649 217.03541 
L 377.07027 215.367198 
L 380.086486 214.355172 
L 384.443243 212.646481 
L 386.454054 212.208631 
L 388.8 211.914577 
L 388.8 211.914577 
" style="fill:none;stroke:#008000;stroke-linecap:square;stroke-width:1.5;"/>
   </g>
   <g id="patch_3">
    <path d="M 54 252 
L 54 34.56 
" style="fill:none;stroke:#000000;stroke-linecap:square;stroke-linejoin:miter;stroke-width:0.8;"/>
   </g>
   <g id="patch_4">
    <path d="M 388.8 252 
L 388.8 34.56 
" style="fill:none;stroke:#000000;stroke-linecap:square;stroke-linejoin:miter;stroke-width:0.8;"/>
   </g>
   <g id="patch_5">
    <path d="M 54 252 
L 388.8 252 
" style="fill:none;stroke:#000000;stroke-linecap:square;stroke-linejoin:miter;stroke-width:0.8;"/>
   </g>
   <g id="patch_6">
    <path d="M 54 34.56 
L 388.8 34.56 
" style="fill:none;stroke:#000000;stroke-linecap:square;stroke-linejoin:miter;stroke-width:0.8;"/>
   </g>
   <g id="text_21">
    <!-- String breaking - matter fields -->
    <defs>
     <path d="M 53.515625 70.515625 
L 53.515625 60.890625 
Q 47.90625 63.578125 42.921875 64.890625 
Q 37.9375 66.21875 33.296875 66.21875 
Q 25.25 66.21875 20.875 63.09375 
Q 16.5 59.96875 16.5 54.203125 
Q 16.5 49.359375 19.40625 46.890625 
Q 22.3125 44.4375 30.421875 42.921875 
L 36.375 41.703125 
Q 47.40625 39.59375 52.65625 34.296875 
Q 57.90625 29 57.90625 20.125 
Q 57.90625 9.515625 50.796875 4.046875 
Q 43.703125 -1.421875 29.984375 -1.421875 
Q 24.8125 -1.421875 18.96875 -0.25 
Q 13.140625 0.921875 6.890625 3.21875 
L 6.890625 13.375 
Q 12.890625 10.015625 18.65625 8.296875 
Q 24.421875 6.59375 29.984375 6.59375 
Q 38.421875 6.59375 43.015625 9.90625 
Q 47.609375 13.234375 47.609375 19.390625 
Q 47.609375 24.75 44.3125 27.78125 
Q 41.015625 30.8125 33.5 32.328125 
L 27.484375 33.5 
Q 16.453125 35.6875 11.515625 40.375 
Q 6.59375 45.0625 6.59375 53.421875 
Q 6.59375 63.09375 13.40625 68.65625 
Q 20.21875 74.21875 32.171875 74.21875 
Q 37.3125 74.21875 42.625 73.28125 
Q 47.953125 72.359375 53.515625 70.515625 
z
" id="DejaVuSans-83"/>
     <path d="M 54.890625 33.015625 
L 54.890625 0 
L 45.90625 0 
L 45.90625 32.71875 
Q 45.90625 40.484375 42.875 44.328125 
Q 39.84375 48.1875 33.796875 48.1875 
Q 26.515625 48.1875 22.3125 43.546875 
Q 18.109375 38.921875 18.109375 30.90625 
L 18.109375 0 
L 9.078125 0 
L 9.078125 54.6875 
L 18.109375 54.6875 
L 18.109375 46.1875 
Q 21.34375 51.125 25.703125 53.5625 
Q 30.078125 56 35.796875 56 
Q 45.21875 56 50.046875 50.171875 
Q 54.890625 44.34375 54.890625 33.015625 
z
" id="DejaVuSans-110"/>
     <path d="M 45.40625 27.984375 
Q 45.40625 37.75 41.375 43.109375 
Q 37.359375 48.484375 30.078125 48.484375 
Q 22.859375 48.484375 18.828125 43.109375 
Q 14.796875 37.75 14.796875 27.984375 
Q 14.796875 18.265625 18.828125 12.890625 
Q 22.859375 7.515625 30.078125 7.515625 
Q 37.359375 7.515625 41.375 12.890625 
Q 45.40625 18.265625 45.40625 27.984375 
z
M 54.390625 6.78125 
Q 54.390625 -7.171875 48.1875 -13.984375 
Q 42 -20.796875 29.203125 -20.796875 
Q 24.46875 -20.796875 20.265625 -20.09375 
Q 16.0625 -19.390625 12.109375 -17.921875 
L 12.109375 -9.1875 
Q 16.0625 -11.328125 19.921875 -12.34375 
Q 23.78125 -13.375 27.78125 -13.375 
Q 36.625 -13.375 41.015625 -8.765625 
Q 45.40625 -4.15625 45.40625 5.171875 
L 45.40625 9.625 
Q 42.625 4.78125 38.28125 2.390625 
Q 33.9375 0 27.875 0 
Q 17.828125 0 11.671875 7.65625 
Q 5.515625 15.328125 5.515625 27.984375 
Q 5.515625 40.671875 11.671875 48.328125 
Q 17.828125 56 27.875 56 
Q 33.9375 56 38.28125 53.609375 
Q 42.625 51.21875 45.40625 46.390625 
L 45.40625 54.6875 
L 54.390625 54.6875 
z
" id="DejaVuSans-103"/>
     <path d="M 9.078125 75.984375 
L 18.109375 75.984375 
L 18.109375 31.109375 
L 44.921875 54.6875 
L 56.390625 54.6875 
L 27.390625 29.109375 
L 57.625 0 
L 45.90625 0 
L 18.109375 26.703125 
L 18.109375 0 
L 9.078125 0 
z
" id="DejaVuSans-107"/>
     <path d="M 4.890625 31.390625 
L 31.203125 31.390625 
L 31.203125 23.390625 
L 4.890625 23.390625 
z
" id="DejaVuSans-45"/>
     <path d="M 45.40625 46.390625 
L 45.40625 75.984375 
L 54.390625 75.984375 
L 54.390625 0 
L 45.40625 0 
L 45.40625 8.203125 
Q 42.578125 3.328125 38.25 0.953125 
Q 33.9375 -1.421875 27.875 -1.421875 
Q 17.96875 -1.421875 11.734375 6.484375 
Q 5.515625 14.40625 5.515625 27.296875 
Q 5.515625 40.1875 11.734375 48.09375 
Q 17.96875 56 27.875 56 
Q 33.9375 56 38.25 53.625 
Q 42.578125 51.265625 45.40625 46.390625 
z
M 14.796875 27.296875 
Q 14.796875 17.390625 18.875 11.75 
Q 22.953125 6.109375 30.078125 6.109375 
Q 37.203125 6.109375 41.296875 11.75 
Q 45.40625 17.390625 45.40625 27.296875 
Q 45.40625 37.203125 41.296875 42.84375 
Q 37.203125 48.484375 30.078125 48.484375 
Q 22.953125 48.484375 18.875 42.84375 
Q 14.796875 37.203125 14.796875 27.296875 
z
" id="DejaVuSans-100"/>
    </defs>
    <g transform="translate(130.849688 28.56)scale(0.12 -0.12)">
     <use xlink:href="#DejaVuSans-83"/>
     <use x="63.476562" xlink:href="#DejaVuSans-116"/>
     <use x="102.685547" xlink:href="#DejaVuSans-114"/>
     <use x="143.798828" xlink:href="#DejaVuSans-105"/>
     <use x="171.582031" xlink:href="#DejaVuSans-110"/>
     <use x="234.960938" xlink:href="#DejaVuSans-103"/>
     <use x="298.4375" xlink:href="#DejaVuSans-32"/>
     <use x="330.224609" xlink:href="#DejaVuSans-98"/>
     <use x="393.701172" xlink:href="#DejaVuSans-114"/>
     <use x="434.783203" xlink:href="#DejaVuSans-101"/>
     <use x="496.306641" xlink:href="#DejaVuSans-97"/>
     <use x="557.585938" xlink:href="#DejaVuSans-107"/>
     <use x="615.496094" xlink:href="#DejaVuSans-105"/>
     <use x="643.279297" xlink:href="#DejaVuSans-110"/>
     <use x="706.658203" xlink:href="#DejaVuSans-103"/>
     <use x="770.134766" xlink:href="#DejaVuSans-32"/>
     <use x="801.921875" xlink:href="#DejaVuSans-45"/>
     <use x="838.005859" xlink:href="#DejaVuSans-32"/>
     <use x="869.792969" xlink:href="#DejaVuSans-109"/>
     <use x="967.205078" xlink:href="#DejaVuSans-97"/>
     <use x="1028.484375" xlink:href="#DejaVuSans-116"/>
     <use x="1067.693359" xlink:href="#DejaVuSans-116"/>
     <use x="1106.902344" xlink:href="#DejaVuSans-101"/>
     <use x="1168.425781" xlink:href="#DejaVuSans-114"/>
     <use x="1209.539062" xlink:href="#DejaVuSans-32"/>
     <use x="1241.326172" xlink:href="#DejaVuSans-102"/>
     <use x="1276.53125" xlink:href="#DejaVuSans-105"/>
     <use x="1304.314453" xlink:href="#DejaVuSans-101"/>
     <use x="1365.837891" xlink:href="#DejaVuSans-108"/>
     <use x="1393.621094" xlink:href="#DejaVuSans-100"/>
     <use x="1457.097656" xlink:href="#DejaVuSans-115"/>
    </g>
   </g>
  </g>
 </g>
 <defs>
  <clipPath id="p31b4d8ba4c">
   <rect height="217.44" width="334.8" x="54" y="34.56"/>
  </clipPath>
 </defs>
</svg>
