<?xml version="1.0" encoding="utf-8" standalone="no"?>
<!DOCTYPE svg PUBLIC "-//W3C//DTD SVG 1.1//EN"
  "http://www.w3.org/Graphics/SVG/1.1/DTD/svg11.dtd">
<!-- Created with matplotlib (https://matplotlib.org/) -->
<svg height="345.6pt" version="1.1" viewBox="0 0 460.8 345.6" width="460.8pt" xmlns="http://www.w3.org/2000/svg" xmlns:xlink="http://www.w3.org/1999/xlink">
 <defs>
  <style type="text/css">
*{stroke-linecap:butt;stroke-linejoin:round;}
  </style>
 </defs>
 <g id="figure_1">
  <g id="patch_1">
   <path d="M 0 345.6 
L 460.8 345.6 
L 460.8 0 
L 0 0 
z
" style="fill:#ffffff;"/>
  </g>
  <g id="axes_1">
   <g id="patch_2">
    <path d="M 57.6 307.584 
L 414.72 307.584 
L 414.72 41.472 
L 57.6 41.472 
z
" style="fill:#ffffff;"/>
   </g>
   <g id="matplotlib.axis_1">
    <g id="xtick_1">
     <g id="line2d_1">
      <defs>
       <path d="M 0 0 
L 0 3.5 
" id="m9d8e74c2e4" style="stroke:#000000;stroke-width:0.8;"/>
      </defs>
      <g>
       <use style="stroke:#000000;stroke-width:0.8;" x="57.6" xlink:href="#m9d8e74c2e4" y="307.584"/>
      </g>
     </g>
     <g id="text_1">
      <!-- 0.0 -->
      <defs>
       <path d="M 31.78125 66.40625 
Q 24.171875 66.40625 20.328125 58.90625 
Q 16.5 51.421875 16.5 36.375 
Q 16.5 21.390625 20.328125 13.890625 
Q 24.171875 6.390625 31.78125 6.390625 
Q 39.453125 6.390625 43.28125 13.890625 
Q 47.125 21.390625 47.125 36.375 
Q 47.125 51.421875 43.28125 58.90625 
Q 39.453125 66.40625 31.78125 66.40625 
z
M 31.78125 74.21875 
Q 44.046875 74.21875 50.515625 64.515625 
Q 56.984375 54.828125 56.984375 36.375 
Q 56.984375 17.96875 50.515625 8.265625 
Q 44.046875 -1.421875 31.78125 -1.421875 
Q 19.53125 -1.421875 13.0625 8.265625 
Q 6.59375 17.96875 6.59375 36.375 
Q 6.59375 54.828125 13.0625 64.515625 
Q 19.53125 74.21875 31.78125 74.21875 
z
" id="DejaVuSans-48"/>
       <path d="M 10.6875 12.40625 
L 21 12.40625 
L 21 0 
L 10.6875 0 
z
" id="DejaVuSans-46"/>
      </defs>
      <g transform="translate(49.648438 322.182437)scale(0.1 -0.1)">
       <use xlink:href="#DejaVuSans-48"/>
       <use x="63.623047" xlink:href="#DejaVuSans-46"/>
       <use x="95.410156" xlink:href="#DejaVuSans-48"/>
      </g>
     </g>
    </g>
    <g id="xtick_2">
     <g id="line2d_2">
      <g>
       <use style="stroke:#000000;stroke-width:0.8;" x="102.24" xlink:href="#m9d8e74c2e4" y="307.584"/>
      </g>
     </g>
     <g id="text_2">
      <!-- 2.5 -->
      <defs>
       <path d="M 19.1875 8.296875 
L 53.609375 8.296875 
L 53.609375 0 
L 7.328125 0 
L 7.328125 8.296875 
Q 12.9375 14.109375 22.625 23.890625 
Q 32.328125 33.6875 34.8125 36.53125 
Q 39.546875 41.84375 41.421875 45.53125 
Q 43.3125 49.21875 43.3125 52.78125 
Q 43.3125 58.59375 39.234375 62.25 
Q 35.15625 65.921875 28.609375 65.921875 
Q 23.96875 65.921875 18.8125 64.3125 
Q 13.671875 62.703125 7.8125 59.421875 
L 7.8125 69.390625 
Q 13.765625 71.78125 18.9375 73 
Q 24.125 74.21875 28.421875 74.21875 
Q 39.75 74.21875 46.484375 68.546875 
Q 53.21875 62.890625 53.21875 53.421875 
Q 53.21875 48.921875 51.53125 44.890625 
Q 49.859375 40.875 45.40625 35.40625 
Q 44.1875 33.984375 37.640625 27.21875 
Q 31.109375 20.453125 19.1875 8.296875 
z
" id="DejaVuSans-50"/>
       <path d="M 10.796875 72.90625 
L 49.515625 72.90625 
L 49.515625 64.59375 
L 19.828125 64.59375 
L 19.828125 46.734375 
Q 21.96875 47.46875 24.109375 47.828125 
Q 26.265625 48.1875 28.421875 48.1875 
Q 40.625 48.1875 47.75 41.5 
Q 54.890625 34.8125 54.890625 23.390625 
Q 54.890625 11.625 47.5625 5.09375 
Q 40.234375 -1.421875 26.90625 -1.421875 
Q 22.3125 -1.421875 17.546875 -0.640625 
Q 12.796875 0.140625 7.71875 1.703125 
L 7.71875 11.625 
Q 12.109375 9.234375 16.796875 8.0625 
Q 21.484375 6.890625 26.703125 6.890625 
Q 35.15625 6.890625 40.078125 11.328125 
Q 45.015625 15.765625 45.015625 23.390625 
Q 45.015625 31 40.078125 35.4375 
Q 35.15625 39.890625 26.703125 39.890625 
Q 22.75 39.890625 18.8125 39.015625 
Q 14.890625 38.140625 10.796875 36.28125 
z
" id="DejaVuSans-53"/>
      </defs>
      <g transform="translate(94.288438 322.182437)scale(0.1 -0.1)">
       <use xlink:href="#DejaVuSans-50"/>
       <use x="63.623047" xlink:href="#DejaVuSans-46"/>
       <use x="95.410156" xlink:href="#DejaVuSans-53"/>
      </g>
     </g>
    </g>
    <g id="xtick_3">
     <g id="line2d_3">
      <g>
       <use style="stroke:#000000;stroke-width:0.8;" x="146.88" xlink:href="#m9d8e74c2e4" y="307.584"/>
      </g>
     </g>
     <g id="text_3">
      <!-- 5.0 -->
      <g transform="translate(138.928438 322.182437)scale(0.1 -0.1)">
       <use xlink:href="#DejaVuSans-53"/>
       <use x="63.623047" xlink:href="#DejaVuSans-46"/>
       <use x="95.410156" xlink:href="#DejaVuSans-48"/>
      </g>
     </g>
    </g>
    <g id="xtick_4">
     <g id="line2d_4">
      <g>
       <use style="stroke:#000000;stroke-width:0.8;" x="191.52" xlink:href="#m9d8e74c2e4" y="307.584"/>
      </g>
     </g>
     <g id="text_4">
      <!-- 7.5 -->
      <defs>
       <path d="M 8.203125 72.90625 
L 55.078125 72.90625 
L 55.078125 68.703125 
L 28.609375 0 
L 18.3125 0 
L 43.21875 64.59375 
L 8.203125 64.59375 
z
" id="DejaVuSans-55"/>
      </defs>
      <g transform="translate(183.568438 322.182437)scale(0.1 -0.1)">
       <use xlink:href="#DejaVuSans-55"/>
       <use x="63.623047" xlink:href="#DejaVuSans-46"/>
       <use x="95.410156" xlink:href="#DejaVuSans-53"/>
      </g>
     </g>
    </g>
    <g id="xtick_5">
     <g id="line2d_5">
      <g>
       <use style="stroke:#000000;stroke-width:0.8;" x="236.16" xlink:href="#m9d8e74c2e4" y="307.584"/>
      </g>
     </g>
     <g id="text_5">
      <!-- 10.0 -->
      <defs>
       <path d="M 12.40625 8.296875 
L 28.515625 8.296875 
L 28.515625 63.921875 
L 10.984375 60.40625 
L 10.984375 69.390625 
L 28.421875 72.90625 
L 38.28125 72.90625 
L 38.28125 8.296875 
L 54.390625 8.296875 
L 54.390625 0 
L 12.40625 0 
z
" id="DejaVuSans-49"/>
      </defs>
      <g transform="translate(225.027187 322.182437)scale(0.1 -0.1)">
       <use xlink:href="#DejaVuSans-49"/>
       <use x="63.623047" xlink:href="#DejaVuSans-48"/>
       <use x="127.246094" xlink:href="#DejaVuSans-46"/>
       <use x="159.033203" xlink:href="#DejaVuSans-48"/>
      </g>
     </g>
    </g>
    <g id="xtick_6">
     <g id="line2d_6">
      <g>
       <use style="stroke:#000000;stroke-width:0.8;" x="280.8" xlink:href="#m9d8e74c2e4" y="307.584"/>
      </g>
     </g>
     <g id="text_6">
      <!-- 12.5 -->
      <g transform="translate(269.667188 322.182437)scale(0.1 -0.1)">
       <use xlink:href="#DejaVuSans-49"/>
       <use x="63.623047" xlink:href="#DejaVuSans-50"/>
       <use x="127.246094" xlink:href="#DejaVuSans-46"/>
       <use x="159.033203" xlink:href="#DejaVuSans-53"/>
      </g>
     </g>
    </g>
    <g id="xtick_7">
     <g id="line2d_7">
      <g>
       <use style="stroke:#000000;stroke-width:0.8;" x="325.44" xlink:href="#m9d8e74c2e4" y="307.584"/>
      </g>
     </g>
     <g id="text_7">
      <!-- 15.0 -->
      <g transform="translate(314.307188 322.182437)scale(0.1 -0.1)">
       <use xlink:href="#DejaVuSans-49"/>
       <use x="63.623047" xlink:href="#DejaVuSans-53"/>
       <use x="127.246094" xlink:href="#DejaVuSans-46"/>
       <use x="159.033203" xlink:href="#DejaVuSans-48"/>
      </g>
     </g>
    </g>
    <g id="xtick_8">
     <g id="line2d_8">
      <g>
       <use style="stroke:#000000;stroke-width:0.8;" x="370.08" xlink:href="#m9d8e74c2e4" y="307.584"/>
      </g>
     </g>
     <g id="text_8">
      <!-- 17.5 -->
      <g transform="translate(358.947188 322.182437)scale(0.1 -0.1)">
       <use xlink:href="#DejaVuSans-49"/>
       <use x="63.623047" xlink:href="#DejaVuSans-55"/>
       <use x="127.246094" xlink:href="#DejaVuSans-46"/>
       <use x="159.033203" xlink:href="#DejaVuSans-53"/>
      </g>
     </g>
    </g>
    <g id="xtick_9">
     <g id="line2d_9">
      <g>
       <use style="stroke:#000000;stroke-width:0.8;" x="414.72" xlink:href="#m9d8e74c2e4" y="307.584"/>
      </g>
     </g>
     <g id="text_9">
      <!-- 20.0 -->
      <g transform="translate(403.587188 322.182437)scale(0.1 -0.1)">
       <use xlink:href="#DejaVuSans-50"/>
       <use x="63.623047" xlink:href="#DejaVuSans-48"/>
       <use x="127.246094" xlink:href="#DejaVuSans-46"/>
       <use x="159.033203" xlink:href="#DejaVuSans-48"/>
      </g>
     </g>
    </g>
    <g id="text_10">
     <!-- time -->
     <defs>
      <path d="M 18.3125 70.21875 
L 18.3125 54.6875 
L 36.8125 54.6875 
L 36.8125 47.703125 
L 18.3125 47.703125 
L 18.3125 18.015625 
Q 18.3125 11.328125 20.140625 9.421875 
Q 21.96875 7.515625 27.59375 7.515625 
L 36.8125 7.515625 
L 36.8125 0 
L 27.59375 0 
Q 17.1875 0 13.234375 3.875 
Q 9.28125 7.765625 9.28125 18.015625 
L 9.28125 47.703125 
L 2.6875 47.703125 
L 2.6875 54.6875 
L 9.28125 54.6875 
L 9.28125 70.21875 
z
" id="DejaVuSans-116"/>
      <path d="M 9.421875 54.6875 
L 18.40625 54.6875 
L 18.40625 0 
L 9.421875 0 
z
M 9.421875 75.984375 
L 18.40625 75.984375 
L 18.40625 64.59375 
L 9.421875 64.59375 
z
" id="DejaVuSans-105"/>
      <path d="M 52 44.1875 
Q 55.375 50.25 60.0625 53.125 
Q 64.75 56 71.09375 56 
Q 79.640625 56 84.28125 50.015625 
Q 88.921875 44.046875 88.921875 33.015625 
L 88.921875 0 
L 79.890625 0 
L 79.890625 32.71875 
Q 79.890625 40.578125 77.09375 44.375 
Q 74.3125 48.1875 68.609375 48.1875 
Q 61.625 48.1875 57.5625 43.546875 
Q 53.515625 38.921875 53.515625 30.90625 
L 53.515625 0 
L 44.484375 0 
L 44.484375 32.71875 
Q 44.484375 40.625 41.703125 44.40625 
Q 38.921875 48.1875 33.109375 48.1875 
Q 26.21875 48.1875 22.15625 43.53125 
Q 18.109375 38.875 18.109375 30.90625 
L 18.109375 0 
L 9.078125 0 
L 9.078125 54.6875 
L 18.109375 54.6875 
L 18.109375 46.1875 
Q 21.1875 51.21875 25.484375 53.609375 
Q 29.78125 56 35.6875 56 
Q 41.65625 56 45.828125 52.96875 
Q 50 49.953125 52 44.1875 
z
" id="DejaVuSans-109"/>
      <path d="M 56.203125 29.59375 
L 56.203125 25.203125 
L 14.890625 25.203125 
Q 15.484375 15.921875 20.484375 11.0625 
Q 25.484375 6.203125 34.421875 6.203125 
Q 39.59375 6.203125 44.453125 7.46875 
Q 49.3125 8.734375 54.109375 11.28125 
L 54.109375 2.78125 
Q 49.265625 0.734375 44.1875 -0.34375 
Q 39.109375 -1.421875 33.890625 -1.421875 
Q 20.796875 -1.421875 13.15625 6.1875 
Q 5.515625 13.8125 5.515625 26.8125 
Q 5.515625 40.234375 12.765625 48.109375 
Q 20.015625 56 32.328125 56 
Q 43.359375 56 49.78125 48.890625 
Q 56.203125 41.796875 56.203125 29.59375 
z
M 47.21875 32.234375 
Q 47.125 39.59375 43.09375 43.984375 
Q 39.0625 48.390625 32.421875 48.390625 
Q 24.90625 48.390625 20.390625 44.140625 
Q 15.875 39.890625 15.1875 32.171875 
z
" id="DejaVuSans-101"/>
     </defs>
     <g transform="translate(224.863906 335.860562)scale(0.1 -0.1)">
      <use xlink:href="#DejaVuSans-116"/>
      <use x="39.208984" xlink:href="#DejaVuSans-105"/>
      <use x="66.992188" xlink:href="#DejaVuSans-109"/>
      <use x="164.404297" xlink:href="#DejaVuSans-101"/>
     </g>
    </g>
   </g>
   <g id="matplotlib.axis_2">
    <g id="ytick_1">
     <g id="line2d_10">
      <defs>
       <path d="M 0 0 
L -3.5 0 
" id="m9c34a17e08" style="stroke:#000000;stroke-width:0.8;"/>
      </defs>
      <g>
       <use style="stroke:#000000;stroke-width:0.8;" x="57.6" xlink:href="#m9c34a17e08" y="307.584"/>
      </g>
     </g>
     <g id="text_11">
      <!-- 0.0 -->
      <g transform="translate(34.696875 311.383219)scale(0.1 -0.1)">
       <use xlink:href="#DejaVuSans-48"/>
       <use x="63.623047" xlink:href="#DejaVuSans-46"/>
       <use x="95.410156" xlink:href="#DejaVuSans-48"/>
      </g>
     </g>
    </g>
    <g id="ytick_2">
     <g id="line2d_11">
      <g>
       <use style="stroke:#000000;stroke-width:0.8;" x="57.6" xlink:href="#m9c34a17e08" y="274.32"/>
      </g>
     </g>
     <g id="text_12">
      <!-- 0.5 -->
      <g transform="translate(34.696875 278.119219)scale(0.1 -0.1)">
       <use xlink:href="#DejaVuSans-48"/>
       <use x="63.623047" xlink:href="#DejaVuSans-46"/>
       <use x="95.410156" xlink:href="#DejaVuSans-53"/>
      </g>
     </g>
    </g>
    <g id="ytick_3">
     <g id="line2d_12">
      <g>
       <use style="stroke:#000000;stroke-width:0.8;" x="57.6" xlink:href="#m9c34a17e08" y="241.056"/>
      </g>
     </g>
     <g id="text_13">
      <!-- 1.0 -->
      <g transform="translate(34.696875 244.855219)scale(0.1 -0.1)">
       <use xlink:href="#DejaVuSans-49"/>
       <use x="63.623047" xlink:href="#DejaVuSans-46"/>
       <use x="95.410156" xlink:href="#DejaVuSans-48"/>
      </g>
     </g>
    </g>
    <g id="ytick_4">
     <g id="line2d_13">
      <g>
       <use style="stroke:#000000;stroke-width:0.8;" x="57.6" xlink:href="#m9c34a17e08" y="207.792"/>
      </g>
     </g>
     <g id="text_14">
      <!-- 1.5 -->
      <g transform="translate(34.696875 211.591219)scale(0.1 -0.1)">
       <use xlink:href="#DejaVuSans-49"/>
       <use x="63.623047" xlink:href="#DejaVuSans-46"/>
       <use x="95.410156" xlink:href="#DejaVuSans-53"/>
      </g>
     </g>
    </g>
    <g id="ytick_5">
     <g id="line2d_14">
      <g>
       <use style="stroke:#000000;stroke-width:0.8;" x="57.6" xlink:href="#m9c34a17e08" y="174.528"/>
      </g>
     </g>
     <g id="text_15">
      <!-- 2.0 -->
      <g transform="translate(34.696875 178.327219)scale(0.1 -0.1)">
       <use xlink:href="#DejaVuSans-50"/>
       <use x="63.623047" xlink:href="#DejaVuSans-46"/>
       <use x="95.410156" xlink:href="#DejaVuSans-48"/>
      </g>
     </g>
    </g>
    <g id="ytick_6">
     <g id="line2d_15">
      <g>
       <use style="stroke:#000000;stroke-width:0.8;" x="57.6" xlink:href="#m9c34a17e08" y="141.264"/>
      </g>
     </g>
     <g id="text_16">
      <!-- 2.5 -->
      <g transform="translate(34.696875 145.063219)scale(0.1 -0.1)">
       <use xlink:href="#DejaVuSans-50"/>
       <use x="63.623047" xlink:href="#DejaVuSans-46"/>
       <use x="95.410156" xlink:href="#DejaVuSans-53"/>
      </g>
     </g>
    </g>
    <g id="ytick_7">
     <g id="line2d_16">
      <g>
       <use style="stroke:#000000;stroke-width:0.8;" x="57.6" xlink:href="#m9c34a17e08" y="108"/>
      </g>
     </g>
     <g id="text_17">
      <!-- 3.0 -->
      <defs>
       <path d="M 40.578125 39.3125 
Q 47.65625 37.796875 51.625 33 
Q 55.609375 28.21875 55.609375 21.1875 
Q 55.609375 10.40625 48.1875 4.484375 
Q 40.765625 -1.421875 27.09375 -1.421875 
Q 22.515625 -1.421875 17.65625 -0.515625 
Q 12.796875 0.390625 7.625 2.203125 
L 7.625 11.71875 
Q 11.71875 9.328125 16.59375 8.109375 
Q 21.484375 6.890625 26.8125 6.890625 
Q 36.078125 6.890625 40.9375 10.546875 
Q 45.796875 14.203125 45.796875 21.1875 
Q 45.796875 27.640625 41.28125 31.265625 
Q 36.765625 34.90625 28.71875 34.90625 
L 20.21875 34.90625 
L 20.21875 43.015625 
L 29.109375 43.015625 
Q 36.375 43.015625 40.234375 45.921875 
Q 44.09375 48.828125 44.09375 54.296875 
Q 44.09375 59.90625 40.109375 62.90625 
Q 36.140625 65.921875 28.71875 65.921875 
Q 24.65625 65.921875 20.015625 65.03125 
Q 15.375 64.15625 9.8125 62.3125 
L 9.8125 71.09375 
Q 15.4375 72.65625 20.34375 73.4375 
Q 25.25 74.21875 29.59375 74.21875 
Q 40.828125 74.21875 47.359375 69.109375 
Q 53.90625 64.015625 53.90625 55.328125 
Q 53.90625 49.265625 50.4375 45.09375 
Q 46.96875 40.921875 40.578125 39.3125 
z
" id="DejaVuSans-51"/>
      </defs>
      <g transform="translate(34.696875 111.799219)scale(0.1 -0.1)">
       <use xlink:href="#DejaVuSans-51"/>
       <use x="63.623047" xlink:href="#DejaVuSans-46"/>
       <use x="95.410156" xlink:href="#DejaVuSans-48"/>
      </g>
     </g>
    </g>
    <g id="ytick_8">
     <g id="line2d_17">
      <g>
       <use style="stroke:#000000;stroke-width:0.8;" x="57.6" xlink:href="#m9c34a17e08" y="74.736"/>
      </g>
     </g>
     <g id="text_18">
      <!-- 3.5 -->
      <g transform="translate(34.696875 78.535219)scale(0.1 -0.1)">
       <use xlink:href="#DejaVuSans-51"/>
       <use x="63.623047" xlink:href="#DejaVuSans-46"/>
       <use x="95.410156" xlink:href="#DejaVuSans-53"/>
      </g>
     </g>
    </g>
    <g id="ytick_9">
     <g id="line2d_18">
      <g>
       <use style="stroke:#000000;stroke-width:0.8;" x="57.6" xlink:href="#m9c34a17e08" y="41.472"/>
      </g>
     </g>
     <g id="text_19">
      <!-- 4.0 -->
      <defs>
       <path d="M 37.796875 64.3125 
L 12.890625 25.390625 
L 37.796875 25.390625 
z
M 35.203125 72.90625 
L 47.609375 72.90625 
L 47.609375 25.390625 
L 58.015625 25.390625 
L 58.015625 17.1875 
L 47.609375 17.1875 
L 47.609375 0 
L 37.796875 0 
L 37.796875 17.1875 
L 4.890625 17.1875 
L 4.890625 26.703125 
z
" id="DejaVuSans-52"/>
      </defs>
      <g transform="translate(34.696875 45.271219)scale(0.1 -0.1)">
       <use xlink:href="#DejaVuSans-52"/>
       <use x="63.623047" xlink:href="#DejaVuSans-46"/>
       <use x="95.410156" xlink:href="#DejaVuSans-48"/>
      </g>
     </g>
    </g>
    <g id="text_20">
     <!-- Number of particles -->
     <defs>
      <path d="M 9.8125 72.90625 
L 23.09375 72.90625 
L 55.421875 11.921875 
L 55.421875 72.90625 
L 64.984375 72.90625 
L 64.984375 0 
L 51.703125 0 
L 19.390625 60.984375 
L 19.390625 0 
L 9.8125 0 
z
" id="DejaVuSans-78"/>
      <path d="M 8.5 21.578125 
L 8.5 54.6875 
L 17.484375 54.6875 
L 17.484375 21.921875 
Q 17.484375 14.15625 20.5 10.265625 
Q 23.53125 6.390625 29.59375 6.390625 
Q 36.859375 6.390625 41.078125 11.03125 
Q 45.3125 15.671875 45.3125 23.6875 
L 45.3125 54.6875 
L 54.296875 54.6875 
L 54.296875 0 
L 45.3125 0 
L 45.3125 8.40625 
Q 42.046875 3.421875 37.71875 1 
Q 33.40625 -1.421875 27.6875 -1.421875 
Q 18.265625 -1.421875 13.375 4.4375 
Q 8.5 10.296875 8.5 21.578125 
z
M 31.109375 56 
z
" id="DejaVuSans-117"/>
      <path d="M 48.6875 27.296875 
Q 48.6875 37.203125 44.609375 42.84375 
Q 40.53125 48.484375 33.40625 48.484375 
Q 26.265625 48.484375 22.1875 42.84375 
Q 18.109375 37.203125 18.109375 27.296875 
Q 18.109375 17.390625 22.1875 11.75 
Q 26.265625 6.109375 33.40625 6.109375 
Q 40.53125 6.109375 44.609375 11.75 
Q 48.6875 17.390625 48.6875 27.296875 
z
M 18.109375 46.390625 
Q 20.953125 51.265625 25.265625 53.625 
Q 29.59375 56 35.59375 56 
Q 45.5625 56 51.78125 48.09375 
Q 58.015625 40.1875 58.015625 27.296875 
Q 58.015625 14.40625 51.78125 6.484375 
Q 45.5625 -1.421875 35.59375 -1.421875 
Q 29.59375 -1.421875 25.265625 0.953125 
Q 20.953125 3.328125 18.109375 8.203125 
L 18.109375 0 
L 9.078125 0 
L 9.078125 75.984375 
L 18.109375 75.984375 
z
" id="DejaVuSans-98"/>
      <path d="M 41.109375 46.296875 
Q 39.59375 47.171875 37.8125 47.578125 
Q 36.03125 48 33.890625 48 
Q 26.265625 48 22.1875 43.046875 
Q 18.109375 38.09375 18.109375 28.8125 
L 18.109375 0 
L 9.078125 0 
L 9.078125 54.6875 
L 18.109375 54.6875 
L 18.109375 46.1875 
Q 20.953125 51.171875 25.484375 53.578125 
Q 30.03125 56 36.53125 56 
Q 37.453125 56 38.578125 55.875 
Q 39.703125 55.765625 41.0625 55.515625 
z
" id="DejaVuSans-114"/>
      <path id="DejaVuSans-32"/>
      <path d="M 30.609375 48.390625 
Q 23.390625 48.390625 19.1875 42.75 
Q 14.984375 37.109375 14.984375 27.296875 
Q 14.984375 17.484375 19.15625 11.84375 
Q 23.34375 6.203125 30.609375 6.203125 
Q 37.796875 6.203125 41.984375 11.859375 
Q 46.1875 17.53125 46.1875 27.296875 
Q 46.1875 37.015625 41.984375 42.703125 
Q 37.796875 48.390625 30.609375 48.390625 
z
M 30.609375 56 
Q 42.328125 56 49.015625 48.375 
Q 55.71875 40.765625 55.71875 27.296875 
Q 55.71875 13.875 49.015625 6.21875 
Q 42.328125 -1.421875 30.609375 -1.421875 
Q 18.84375 -1.421875 12.171875 6.21875 
Q 5.515625 13.875 5.515625 27.296875 
Q 5.515625 40.765625 12.171875 48.375 
Q 18.84375 56 30.609375 56 
z
" id="DejaVuSans-111"/>
      <path d="M 37.109375 75.984375 
L 37.109375 68.5 
L 28.515625 68.5 
Q 23.6875 68.5 21.796875 66.546875 
Q 19.921875 64.59375 19.921875 59.515625 
L 19.921875 54.6875 
L 34.71875 54.6875 
L 34.71875 47.703125 
L 19.921875 47.703125 
L 19.921875 0 
L 10.890625 0 
L 10.890625 47.703125 
L 2.296875 47.703125 
L 2.296875 54.6875 
L 10.890625 54.6875 
L 10.890625 58.5 
Q 10.890625 67.625 15.140625 71.796875 
Q 19.390625 75.984375 28.609375 75.984375 
z
" id="DejaVuSans-102"/>
      <path d="M 18.109375 8.203125 
L 18.109375 -20.796875 
L 9.078125 -20.796875 
L 9.078125 54.6875 
L 18.109375 54.6875 
L 18.109375 46.390625 
Q 20.953125 51.265625 25.265625 53.625 
Q 29.59375 56 35.59375 56 
Q 45.5625 56 51.78125 48.09375 
Q 58.015625 40.1875 58.015625 27.296875 
Q 58.015625 14.40625 51.78125 6.484375 
Q 45.5625 -1.421875 35.59375 -1.421875 
Q 29.59375 -1.421875 25.265625 0.953125 
Q 20.953125 3.328125 18.109375 8.203125 
z
M 48.6875 27.296875 
Q 48.6875 37.203125 44.609375 42.84375 
Q 40.53125 48.484375 33.40625 48.484375 
Q 26.265625 48.484375 22.1875 42.84375 
Q 18.109375 37.203125 18.109375 27.296875 
Q 18.109375 17.390625 22.1875 11.75 
Q 26.265625 6.109375 33.40625 6.109375 
Q 40.53125 6.109375 44.609375 11.75 
Q 48.6875 17.390625 48.6875 27.296875 
z
" id="DejaVuSans-112"/>
      <path d="M 34.28125 27.484375 
Q 23.390625 27.484375 19.1875 25 
Q 14.984375 22.515625 14.984375 16.5 
Q 14.984375 11.71875 18.140625 8.90625 
Q 21.296875 6.109375 26.703125 6.109375 
Q 34.1875 6.109375 38.703125 11.40625 
Q 43.21875 16.703125 43.21875 25.484375 
L 43.21875 27.484375 
z
M 52.203125 31.203125 
L 52.203125 0 
L 43.21875 0 
L 43.21875 8.296875 
Q 40.140625 3.328125 35.546875 0.953125 
Q 30.953125 -1.421875 24.3125 -1.421875 
Q 15.921875 -1.421875 10.953125 3.296875 
Q 6 8.015625 6 15.921875 
Q 6 25.140625 12.171875 29.828125 
Q 18.359375 34.515625 30.609375 34.515625 
L 43.21875 34.515625 
L 43.21875 35.40625 
Q 43.21875 41.609375 39.140625 45 
Q 35.0625 48.390625 27.6875 48.390625 
Q 23 48.390625 18.546875 47.265625 
Q 14.109375 46.140625 10.015625 43.890625 
L 10.015625 52.203125 
Q 14.9375 54.109375 19.578125 55.046875 
Q 24.21875 56 28.609375 56 
Q 40.484375 56 46.34375 49.84375 
Q 52.203125 43.703125 52.203125 31.203125 
z
" id="DejaVuSans-97"/>
      <path d="M 48.78125 52.59375 
L 48.78125 44.1875 
Q 44.96875 46.296875 41.140625 47.34375 
Q 37.3125 48.390625 33.40625 48.390625 
Q 24.65625 48.390625 19.8125 42.84375 
Q 14.984375 37.3125 14.984375 27.296875 
Q 14.984375 17.28125 19.8125 11.734375 
Q 24.65625 6.203125 33.40625 6.203125 
Q 37.3125 6.203125 41.140625 7.25 
Q 44.96875 8.296875 48.78125 10.40625 
L 48.78125 2.09375 
Q 45.015625 0.34375 40.984375 -0.53125 
Q 36.96875 -1.421875 32.421875 -1.421875 
Q 20.0625 -1.421875 12.78125 6.34375 
Q 5.515625 14.109375 5.515625 27.296875 
Q 5.515625 40.671875 12.859375 48.328125 
Q 20.21875 56 33.015625 56 
Q 37.15625 56 41.109375 55.140625 
Q 45.0625 54.296875 48.78125 52.59375 
z
" id="DejaVuSans-99"/>
      <path d="M 9.421875 75.984375 
L 18.40625 75.984375 
L 18.40625 0 
L 9.421875 0 
z
" id="DejaVuSans-108"/>
      <path d="M 44.28125 53.078125 
L 44.28125 44.578125 
Q 40.484375 46.53125 36.375 47.5 
Q 32.28125 48.484375 27.875 48.484375 
Q 21.1875 48.484375 17.84375 46.4375 
Q 14.5 44.390625 14.5 40.28125 
Q 14.5 37.15625 16.890625 35.375 
Q 19.28125 33.59375 26.515625 31.984375 
L 29.59375 31.296875 
Q 39.15625 29.25 43.1875 25.515625 
Q 47.21875 21.78125 47.21875 15.09375 
Q 47.21875 7.46875 41.1875 3.015625 
Q 35.15625 -1.421875 24.609375 -1.421875 
Q 20.21875 -1.421875 15.453125 -0.5625 
Q 10.6875 0.296875 5.421875 2 
L 5.421875 11.28125 
Q 10.40625 8.6875 15.234375 7.390625 
Q 20.0625 6.109375 24.8125 6.109375 
Q 31.15625 6.109375 34.5625 8.28125 
Q 37.984375 10.453125 37.984375 14.40625 
Q 37.984375 18.0625 35.515625 20.015625 
Q 33.0625 21.96875 24.703125 23.78125 
L 21.578125 24.515625 
Q 13.234375 26.265625 9.515625 29.90625 
Q 5.8125 33.546875 5.8125 39.890625 
Q 5.8125 47.609375 11.28125 51.796875 
Q 16.75 56 26.8125 56 
Q 31.78125 56 36.171875 55.265625 
Q 40.578125 54.546875 44.28125 53.078125 
z
" id="DejaVuSans-115"/>
     </defs>
     <g transform="translate(28.617187 224.074094)rotate(-90)scale(0.1 -0.1)">
      <use xlink:href="#DejaVuSans-78"/>
      <use x="74.804688" xlink:href="#DejaVuSans-117"/>
      <use x="138.183594" xlink:href="#DejaVuSans-109"/>
      <use x="235.595703" xlink:href="#DejaVuSans-98"/>
      <use x="299.072266" xlink:href="#DejaVuSans-101"/>
      <use x="360.595703" xlink:href="#DejaVuSans-114"/>
      <use x="401.708984" xlink:href="#DejaVuSans-32"/>
      <use x="433.496094" xlink:href="#DejaVuSans-111"/>
      <use x="494.677734" xlink:href="#DejaVuSans-102"/>
      <use x="529.882812" xlink:href="#DejaVuSans-32"/>
      <use x="561.669922" xlink:href="#DejaVuSans-112"/>
      <use x="625.146484" xlink:href="#DejaVuSans-97"/>
      <use x="686.425781" xlink:href="#DejaVuSans-114"/>
      <use x="727.539062" xlink:href="#DejaVuSans-116"/>
      <use x="766.748047" xlink:href="#DejaVuSans-105"/>
      <use x="794.53125" xlink:href="#DejaVuSans-99"/>
      <use x="849.511719" xlink:href="#DejaVuSans-108"/>
      <use x="877.294922" xlink:href="#DejaVuSans-101"/>
      <use x="938.818359" xlink:href="#DejaVuSans-115"/>
     </g>
    </g>
   </g>
   <g id="line2d_19">
    <path clip-path="url(#p76764faef4)" d="M 57.6 307.583159 
L 61.207273 303.505067 
L 64.814545 297.122251 
L 68.421818 287.625932 
L 72.029091 276.944638 
L 75.636364 267.810984 
L 79.243636 260.285182 
L 82.850909 255.772009 
L 86.458182 253.84685 
L 90.065455 253.68148 
L 93.672727 254.763661 
L 97.28 255.937894 
L 100.887273 257.42594 
L 104.494545 258.719351 
L 108.101818 260.518962 
L 111.709091 262.303971 
L 115.316364 264.094356 
L 118.923636 265.248121 
L 122.530909 265.033867 
L 126.138182 263.270154 
L 129.745455 260.569955 
L 133.352727 257.448653 
L 136.96 254.611713 
L 140.567273 252.282784 
L 144.174545 250.667225 
L 147.781818 250.282004 
L 151.389091 250.348359 
L 154.996364 250.940639 
L 158.603636 251.488056 
L 162.210909 252.428014 
L 165.818182 253.69933 
L 169.425455 255.173982 
L 173.032727 256.967659 
L 176.64 258.470329 
L 180.247273 259.314882 
L 183.854545 259.327892 
L 187.461818 258.561205 
L 191.069091 256.283432 
L 194.676364 253.798395 
L 198.283636 251.554221 
L 201.890909 249.93715 
L 205.498182 249.263484 
L 209.105455 249.622059 
L 212.712727 251.371055 
L 216.32 253.866821 
L 219.927273 257.082091 
L 223.534545 260.339263 
L 227.141818 263.008927 
L 230.749091 265.378698 
L 234.356364 267.042268 
L 237.963636 268.270213 
L 241.570909 269.255868 
L 245.178182 269.126203 
L 248.785455 268.84649 
L 252.392727 268.041742 
L 256 265.825455 
L 259.607273 263.309103 
L 263.214545 259.739262 
L 266.821818 256.182511 
L 270.429091 253.333502 
L 274.036364 251.756285 
L 277.643636 251.645459 
L 281.250909 253.152995 
L 284.858182 255.5617 
L 288.465455 258.349444 
L 292.072727 261.291971 
L 295.68 262.854943 
L 299.287273 263.304242 
L 302.894545 262.393862 
L 306.501818 260.295106 
L 310.109091 257.69821 
L 313.716364 255.31697 
L 317.323636 253.814981 
L 320.930909 253.885192 
L 324.538182 255.010034 
L 328.145455 257.455625 
L 331.752727 259.863654 
L 335.36 261.676431 
L 338.967273 262.792056 
L 342.574545 262.781681 
L 346.181818 262.634923 
L 349.789091 261.55351 
L 353.396364 261.675041 
L 357.003636 262.198596 
L 360.610909 262.727271 
L 364.218182 263.338868 
L 367.825455 262.744751 
L 371.432727 261.186477 
L 375.04 259.268678 
L 378.647273 256.914642 
L 382.254545 255.616695 
L 385.861818 255.164192 
L 389.469091 255.797804 
L 393.076364 257.608458 
L 396.683636 260.174363 
L 400.290909 262.596296 
L 403.898182 265.035083 
L 407.505455 266.535942 
L 411.112727 267.192596 
L 414.72 266.781935 
" style="fill:none;stroke:#0000ff;stroke-linecap:square;stroke-width:1.5;"/>
   </g>
   <g id="line2d_20">
    <path clip-path="url(#p76764faef4)" d="M 57.6 307.583159 
L 61.207273 303.505067 
L 64.814545 297.122251 
L 68.421818 287.625932 
L 72.029091 276.944638 
L 75.636364 267.810984 
L 79.243636 260.285182 
L 82.850909 255.772009 
L 86.458182 253.84685 
L 90.065455 253.68148 
L 93.672727 254.763661 
L 97.28 255.937894 
L 100.887273 257.42594 
L 104.494545 258.719351 
L 108.101818 260.518962 
L 111.709091 262.303971 
L 115.316364 264.094356 
L 118.923636 265.248121 
L 122.530909 265.033867 
L 126.138182 263.270154 
L 129.745455 260.569955 
L 133.352727 257.448653 
L 136.96 254.611713 
L 140.567273 252.282784 
L 144.174545 250.667225 
L 147.781818 250.282004 
L 151.389091 250.348359 
L 154.996364 250.940639 
L 158.603636 251.488056 
L 162.210909 252.428014 
L 165.818182 253.69933 
L 169.425455 255.173982 
L 173.032727 256.967659 
L 176.64 258.470329 
L 180.247273 259.314882 
L 183.854545 259.327892 
L 187.461818 258.561205 
L 191.069091 256.283432 
L 194.676364 253.798395 
L 198.283636 251.554221 
L 201.890909 249.93715 
L 205.498182 249.263484 
L 209.105455 249.622059 
L 212.712727 251.371055 
L 216.32 253.866821 
L 219.927273 257.082091 
L 223.534545 260.339263 
L 227.141818 263.008927 
L 230.749091 265.378698 
L 234.356364 267.042268 
L 237.963636 268.270213 
L 241.570909 269.255868 
L 245.178182 269.126203 
L 248.785455 268.84649 
L 252.392727 268.041742 
L 256 265.825455 
L 259.607273 263.309103 
L 263.214545 259.739262 
L 266.821818 256.182511 
L 270.429091 253.333502 
L 274.036364 251.756285 
L 277.643636 251.645459 
L 281.250909 253.152995 
L 284.858182 255.5617 
L 288.465455 258.349444 
L 292.072727 261.291971 
L 295.68 262.854943 
L 299.287273 263.304242 
L 302.894545 262.393862 
L 306.501818 260.295106 
L 310.109091 257.69821 
L 313.716364 255.31697 
L 317.323636 253.814981 
L 320.930909 253.885192 
L 324.538182 255.010034 
L 328.145455 257.455625 
L 331.752727 259.863654 
L 335.36 261.676431 
L 338.967273 262.792056 
L 342.574545 262.781681 
L 346.181818 262.634923 
L 349.789091 261.55351 
L 353.396364 261.675041 
L 357.003636 262.198596 
L 360.610909 262.727271 
L 364.218182 263.338868 
L 367.825455 262.744751 
L 371.432727 261.186477 
L 375.04 259.268678 
L 378.647273 256.914642 
L 382.254545 255.616695 
L 385.861818 255.164192 
L 389.469091 255.797804 
L 393.076364 257.608458 
L 396.683636 260.174363 
L 400.290909 262.596296 
L 403.898182 265.035083 
L 407.505455 266.535942 
L 411.112727 267.192596 
L 414.72 266.781935 
" style="fill:none;stroke:#ffa500;stroke-dasharray:5.55,2.4;stroke-dashoffset:0;stroke-width:1.5;"/>
   </g>
   <g id="line2d_21">
    <path clip-path="url(#p76764faef4)" d="M 57.6 307.583159 
L 61.207273 303.456708 
L 64.814545 297.164188 
L 68.421818 287.778213 
L 72.029091 276.861011 
L 75.636364 268.003373 
L 79.243636 259.915674 
L 82.850909 254.864284 
L 86.458182 251.906456 
L 90.065455 250.435879 
L 93.672727 250.668814 
L 97.28 252.283585 
L 100.887273 254.972023 
L 104.494545 258.334695 
L 108.101818 262.767373 
L 111.709091 267.045729 
L 115.316364 270.157029 
L 118.923636 271.763632 
L 122.530909 271.52257 
L 126.138182 269.529172 
L 129.745455 266.977666 
L 133.352727 263.912511 
L 136.96 261.580612 
L 140.567273 259.971923 
L 144.174545 258.826063 
L 147.781818 258.044858 
L 151.389091 256.664022 
L 154.996364 255.71765 
L 158.603636 255.468279 
L 162.210909 255.970575 
L 165.818182 257.606341 
L 169.425455 260.156535 
L 173.032727 262.532015 
L 176.64 264.332518 
L 180.247273 264.788482 
L 183.854545 263.992606 
L 187.461818 262.942898 
L 191.069091 261.365721 
L 194.676364 259.736337 
L 198.283636 258.084777 
L 201.890909 256.193646 
L 205.498182 254.3229 
L 209.105455 252.150216 
L 212.712727 250.54597 
L 216.32 249.302625 
L 219.927273 248.285289 
L 223.534545 247.74036 
L 227.141818 247.115797 
L 230.749091 246.442761 
L 234.356364 245.420747 
L 237.963636 244.805922 
L 241.570909 246.294617 
L 245.178182 248.728205 
L 248.785455 251.698629 
L 252.392727 254.307935 
L 256 255.294007 
L 259.607273 254.81892 
L 263.214545 252.555687 
L 266.821818 250.207785 
L 270.429091 248.7313 
L 274.036364 248.847464 
L 277.643636 250.69885 
L 281.250909 253.50889 
L 284.858182 256.481739 
L 288.465455 258.670842 
L 292.072727 259.98736 
L 295.68 260.460036 
L 299.287273 260.541298 
L 302.894545 260.336541 
L 306.501818 259.137076 
L 310.109091 257.589142 
L 313.716364 255.124062 
L 317.323636 251.925158 
L 320.930909 249.291416 
L 324.538182 248.385211 
L 328.145455 249.723615 
L 331.752727 252.485044 
L 335.36 256.150365 
L 338.967273 259.177342 
L 342.574545 260.310464 
L 346.181818 260.513374 
L 349.789091 259.14955 
L 353.396364 258.006531 
L 357.003636 257.416661 
L 360.610909 257.359627 
L 364.218182 257.58142 
L 367.825455 257.688647 
L 371.432727 256.592328 
L 375.04 255.219652 
L 378.647273 253.490843 
L 382.254545 251.948716 
L 385.861818 251.641385 
L 389.469091 252.477737 
L 393.076364 253.936647 
L 396.683636 255.692046 
L 400.290909 257.401276 
L 403.898182 259.257931 
L 407.505455 260.786226 
L 411.112727 262.325962 
L 414.72 263.242907 
" style="fill:none;stroke:#008000;stroke-linecap:square;stroke-width:1.5;"/>
   </g>
   <g id="line2d_22">
    <path clip-path="url(#p76764faef4)" d="M 57.6 307.583159 
L 61.207273 303.456708 
L 64.814545 297.164188 
L 68.421818 287.778213 
L 72.029091 276.861011 
L 75.636364 268.003373 
L 79.243636 259.915674 
L 82.850909 254.864284 
L 86.458182 251.906456 
L 90.065455 250.435879 
L 93.672727 250.668814 
L 97.28 252.283585 
L 100.887273 254.972023 
L 104.494545 258.334695 
L 108.101818 262.767373 
L 111.709091 267.045729 
L 115.316364 270.157029 
L 118.923636 271.763632 
L 122.530909 271.52257 
L 126.138182 269.529172 
L 129.745455 266.977666 
L 133.352727 263.912511 
L 136.96 261.580612 
L 140.567273 259.971923 
L 144.174545 258.826063 
L 147.781818 258.044858 
L 151.389091 256.664022 
L 154.996364 255.71765 
L 158.603636 255.468279 
L 162.210909 255.970575 
L 165.818182 257.606341 
L 169.425455 260.156535 
L 173.032727 262.532015 
L 176.64 264.332518 
L 180.247273 264.788482 
L 183.854545 263.992606 
L 187.461818 262.942898 
L 191.069091 261.365721 
L 194.676364 259.736337 
L 198.283636 258.084777 
L 201.890909 256.193646 
L 205.498182 254.3229 
L 209.105455 252.150216 
L 212.712727 250.54597 
L 216.32 249.302625 
L 219.927273 248.285289 
L 223.534545 247.74036 
L 227.141818 247.115797 
L 230.749091 246.442761 
L 234.356364 245.420747 
L 237.963636 244.805922 
L 241.570909 246.294617 
L 245.178182 248.728205 
L 248.785455 251.698629 
L 252.392727 254.307935 
L 256 255.294007 
L 259.607273 254.81892 
L 263.214545 252.555687 
L 266.821818 250.207785 
L 270.429091 248.7313 
L 274.036364 248.847464 
L 277.643636 250.69885 
L 281.250909 253.50889 
L 284.858182 256.481739 
L 288.465455 258.670842 
L 292.072727 259.98736 
L 295.68 260.460036 
L 299.287273 260.541298 
L 302.894545 260.336541 
L 306.501818 259.137076 
L 310.109091 257.589142 
L 313.716364 255.124062 
L 317.323636 251.925158 
L 320.930909 249.291416 
L 324.538182 248.385211 
L 328.145455 249.723615 
L 331.752727 252.485044 
L 335.36 256.150365 
L 338.967273 259.177342 
L 342.574545 260.310464 
L 346.181818 260.513374 
L 349.789091 259.14955 
L 353.396364 258.006531 
L 357.003636 257.416661 
L 360.610909 257.359627 
L 364.218182 257.58142 
L 367.825455 257.688647 
L 371.432727 256.592328 
L 375.04 255.219652 
L 378.647273 253.490843 
L 382.254545 251.948716 
L 385.861818 251.641385 
L 389.469091 252.477737 
L 393.076364 253.936647 
L 396.683636 255.692046 
L 400.290909 257.401276 
L 403.898182 259.257931 
L 407.505455 260.786226 
L 411.112727 262.325962 
L 414.72 263.242907 
" style="fill:none;stroke:#ff0000;stroke-dasharray:5.55,2.4;stroke-dashoffset:0;stroke-width:1.5;"/>
   </g>
   <g id="patch_3">
    <path d="M 57.6 307.584 
L 57.6 41.472 
" style="fill:none;stroke:#000000;stroke-linecap:square;stroke-linejoin:miter;stroke-width:0.8;"/>
   </g>
   <g id="patch_4">
    <path d="M 414.72 307.584 
L 414.72 41.472 
" style="fill:none;stroke:#000000;stroke-linecap:square;stroke-linejoin:miter;stroke-width:0.8;"/>
   </g>
   <g id="patch_5">
    <path d="M 57.6 307.584 
L 414.72 307.584 
" style="fill:none;stroke:#000000;stroke-linecap:square;stroke-linejoin:miter;stroke-width:0.8;"/>
   </g>
   <g id="patch_6">
    <path d="M 57.6 41.472 
L 414.72 41.472 
" style="fill:none;stroke:#000000;stroke-linecap:square;stroke-linejoin:miter;stroke-width:0.8;"/>
   </g>
   <g id="text_21">
    <!-- Time evolution on 2x2 lattice -->
    <defs>
     <path d="M -0.296875 72.90625 
L 61.375 72.90625 
L 61.375 64.59375 
L 35.5 64.59375 
L 35.5 0 
L 25.59375 0 
L 25.59375 64.59375 
L -0.296875 64.59375 
z
" id="DejaVuSans-84"/>
     <path d="M 2.984375 54.6875 
L 12.5 54.6875 
L 29.59375 8.796875 
L 46.6875 54.6875 
L 56.203125 54.6875 
L 35.6875 0 
L 23.484375 0 
z
" id="DejaVuSans-118"/>
     <path d="M 54.890625 33.015625 
L 54.890625 0 
L 45.90625 0 
L 45.90625 32.71875 
Q 45.90625 40.484375 42.875 44.328125 
Q 39.84375 48.1875 33.796875 48.1875 
Q 26.515625 48.1875 22.3125 43.546875 
Q 18.109375 38.921875 18.109375 30.90625 
L 18.109375 0 
L 9.078125 0 
L 9.078125 54.6875 
L 18.109375 54.6875 
L 18.109375 46.1875 
Q 21.34375 51.125 25.703125 53.5625 
Q 30.078125 56 35.796875 56 
Q 45.21875 56 50.046875 50.171875 
Q 54.890625 44.34375 54.890625 33.015625 
z
" id="DejaVuSans-110"/>
     <path d="M 54.890625 54.6875 
L 35.109375 28.078125 
L 55.90625 0 
L 45.3125 0 
L 29.390625 21.484375 
L 13.484375 0 
L 2.875 0 
L 24.125 28.609375 
L 4.6875 54.6875 
L 15.28125 54.6875 
L 29.78125 35.203125 
L 44.28125 54.6875 
z
" id="DejaVuSans-120"/>
    </defs>
    <g transform="translate(148.425 35.472)scale(0.12 -0.12)">
     <use xlink:href="#DejaVuSans-84"/>
     <use x="61.037109" xlink:href="#DejaVuSans-105"/>
     <use x="88.820312" xlink:href="#DejaVuSans-109"/>
     <use x="186.232422" xlink:href="#DejaVuSans-101"/>
     <use x="247.755859" xlink:href="#DejaVuSans-32"/>
     <use x="279.542969" xlink:href="#DejaVuSans-101"/>
     <use x="341.066406" xlink:href="#DejaVuSans-118"/>
     <use x="400.246094" xlink:href="#DejaVuSans-111"/>
     <use x="461.427734" xlink:href="#DejaVuSans-108"/>
     <use x="489.210938" xlink:href="#DejaVuSans-117"/>
     <use x="552.589844" xlink:href="#DejaVuSans-116"/>
     <use x="591.798828" xlink:href="#DejaVuSans-105"/>
     <use x="619.582031" xlink:href="#DejaVuSans-111"/>
     <use x="680.763672" xlink:href="#DejaVuSans-110"/>
     <use x="744.142578" xlink:href="#DejaVuSans-32"/>
     <use x="775.929688" xlink:href="#DejaVuSans-111"/>
     <use x="837.111328" xlink:href="#DejaVuSans-110"/>
     <use x="900.490234" xlink:href="#DejaVuSans-32"/>
     <use x="932.277344" xlink:href="#DejaVuSans-50"/>
     <use x="995.900391" xlink:href="#DejaVuSans-120"/>
     <use x="1055.080078" xlink:href="#DejaVuSans-50"/>
     <use x="1118.703125" xlink:href="#DejaVuSans-32"/>
     <use x="1150.490234" xlink:href="#DejaVuSans-108"/>
     <use x="1178.273438" xlink:href="#DejaVuSans-97"/>
     <use x="1239.552734" xlink:href="#DejaVuSans-116"/>
     <use x="1278.761719" xlink:href="#DejaVuSans-116"/>
     <use x="1317.970703" xlink:href="#DejaVuSans-105"/>
     <use x="1345.753906" xlink:href="#DejaVuSans-99"/>
     <use x="1400.734375" xlink:href="#DejaVuSans-101"/>
    </g>
   </g>
   <g id="legend_1">
    <g id="patch_7">
     <path d="M 315.329375 108.1845 
L 407.72 108.1845 
Q 409.72 108.1845 409.72 106.1845 
L 409.72 48.472 
Q 409.72 46.472 407.72 46.472 
L 315.329375 46.472 
Q 313.329375 46.472 313.329375 48.472 
L 313.329375 106.1845 
Q 313.329375 108.1845 315.329375 108.1845 
z
" style="fill:#ffffff;opacity:0.8;stroke:#cccccc;stroke-linejoin:miter;"/>
    </g>
    <g id="patch_8">
     <path d="M 317.329375 58.070438 
L 337.329375 58.070438 
L 337.329375 51.070438 
L 317.329375 51.070438 
z
" style="fill:#0000ff;stroke:#0000ff;stroke-linejoin:miter;"/>
    </g>
    <g id="text_22">
     <!-- x = 1, y = 1 -->
     <defs>
      <path d="M 10.59375 45.40625 
L 73.1875 45.40625 
L 73.1875 37.203125 
L 10.59375 37.203125 
z
M 10.59375 25.484375 
L 73.1875 25.484375 
L 73.1875 17.1875 
L 10.59375 17.1875 
z
" id="DejaVuSans-61"/>
      <path d="M 11.71875 12.40625 
L 22.015625 12.40625 
L 22.015625 4 
L 14.015625 -11.625 
L 7.71875 -11.625 
L 11.71875 4 
z
" id="DejaVuSans-44"/>
      <path d="M 32.171875 -5.078125 
Q 28.375 -14.84375 24.75 -17.8125 
Q 21.140625 -20.796875 15.09375 -20.796875 
L 7.90625 -20.796875 
L 7.90625 -13.28125 
L 13.1875 -13.28125 
Q 16.890625 -13.28125 18.9375 -11.515625 
Q 21 -9.765625 23.484375 -3.21875 
L 25.09375 0.875 
L 2.984375 54.6875 
L 12.5 54.6875 
L 29.59375 11.921875 
L 46.6875 54.6875 
L 56.203125 54.6875 
z
" id="DejaVuSans-121"/>
     </defs>
     <g transform="translate(345.329375 58.070438)scale(0.1 -0.1)">
      <use xlink:href="#DejaVuSans-120"/>
      <use x="59.179688" xlink:href="#DejaVuSans-32"/>
      <use x="90.966797" xlink:href="#DejaVuSans-61"/>
      <use x="174.755859" xlink:href="#DejaVuSans-32"/>
      <use x="206.542969" xlink:href="#DejaVuSans-49"/>
      <use x="270.166016" xlink:href="#DejaVuSans-44"/>
      <use x="301.953125" xlink:href="#DejaVuSans-32"/>
      <use x="333.740234" xlink:href="#DejaVuSans-121"/>
      <use x="392.919922" xlink:href="#DejaVuSans-32"/>
      <use x="424.707031" xlink:href="#DejaVuSans-61"/>
      <use x="508.496094" xlink:href="#DejaVuSans-32"/>
      <use x="540.283203" xlink:href="#DejaVuSans-49"/>
     </g>
    </g>
    <g id="patch_9">
     <path d="M 317.329375 72.748563 
L 337.329375 72.748563 
L 337.329375 65.748563 
L 317.329375 65.748563 
z
" style="fill:#ffa500;stroke:#ffa500;stroke-linejoin:miter;"/>
    </g>
    <g id="text_23">
     <!-- x = 2, y = 1 -->
     <g transform="translate(345.329375 72.748563)scale(0.1 -0.1)">
      <use xlink:href="#DejaVuSans-120"/>
      <use x="59.179688" xlink:href="#DejaVuSans-32"/>
      <use x="90.966797" xlink:href="#DejaVuSans-61"/>
      <use x="174.755859" xlink:href="#DejaVuSans-32"/>
      <use x="206.542969" xlink:href="#DejaVuSans-50"/>
      <use x="270.166016" xlink:href="#DejaVuSans-44"/>
      <use x="301.953125" xlink:href="#DejaVuSans-32"/>
      <use x="333.740234" xlink:href="#DejaVuSans-121"/>
      <use x="392.919922" xlink:href="#DejaVuSans-32"/>
      <use x="424.707031" xlink:href="#DejaVuSans-61"/>
      <use x="508.496094" xlink:href="#DejaVuSans-32"/>
      <use x="540.283203" xlink:href="#DejaVuSans-49"/>
     </g>
    </g>
    <g id="patch_10">
     <path d="M 317.329375 87.426688 
L 337.329375 87.426688 
L 337.329375 80.426688 
L 317.329375 80.426688 
z
" style="fill:#008000;stroke:#008000;stroke-linejoin:miter;"/>
    </g>
    <g id="text_24">
     <!-- x = 1, y = 2 -->
     <g transform="translate(345.329375 87.426688)scale(0.1 -0.1)">
      <use xlink:href="#DejaVuSans-120"/>
      <use x="59.179688" xlink:href="#DejaVuSans-32"/>
      <use x="90.966797" xlink:href="#DejaVuSans-61"/>
      <use x="174.755859" xlink:href="#DejaVuSans-32"/>
      <use x="206.542969" xlink:href="#DejaVuSans-49"/>
      <use x="270.166016" xlink:href="#DejaVuSans-44"/>
      <use x="301.953125" xlink:href="#DejaVuSans-32"/>
      <use x="333.740234" xlink:href="#DejaVuSans-121"/>
      <use x="392.919922" xlink:href="#DejaVuSans-32"/>
      <use x="424.707031" xlink:href="#DejaVuSans-61"/>
      <use x="508.496094" xlink:href="#DejaVuSans-32"/>
      <use x="540.283203" xlink:href="#DejaVuSans-50"/>
     </g>
    </g>
    <g id="patch_11">
     <path d="M 317.329375 102.104813 
L 337.329375 102.104813 
L 337.329375 95.104813 
L 317.329375 95.104813 
z
" style="fill:#ff0000;stroke:#ff0000;stroke-linejoin:miter;"/>
    </g>
    <g id="text_25">
     <!-- x = 2, y = 2 -->
     <g transform="translate(345.329375 102.104813)scale(0.1 -0.1)">
      <use xlink:href="#DejaVuSans-120"/>
      <use x="59.179688" xlink:href="#DejaVuSans-32"/>
      <use x="90.966797" xlink:href="#DejaVuSans-61"/>
      <use x="174.755859" xlink:href="#DejaVuSans-32"/>
      <use x="206.542969" xlink:href="#DejaVuSans-50"/>
      <use x="270.166016" xlink:href="#DejaVuSans-44"/>
      <use x="301.953125" xlink:href="#DejaVuSans-32"/>
      <use x="333.740234" xlink:href="#DejaVuSans-121"/>
      <use x="392.919922" xlink:href="#DejaVuSans-32"/>
      <use x="424.707031" xlink:href="#DejaVuSans-61"/>
      <use x="508.496094" xlink:href="#DejaVuSans-32"/>
      <use x="540.283203" xlink:href="#DejaVuSans-50"/>
     </g>
    </g>
   </g>
  </g>
 </g>
 <defs>
  <clipPath id="p76764faef4">
   <rect height="266.112" width="357.12" x="57.6" y="41.472"/>
  </clipPath>
 </defs>
</svg>
