<?xml version="1.0" encoding="utf-8" standalone="no"?>
<!DOCTYPE svg PUBLIC "-//W3C//DTD SVG 1.1//EN"
  "http://www.w3.org/Graphics/SVG/1.1/DTD/svg11.dtd">
<!-- Created with matplotlib (https://matplotlib.org/) -->
<svg height="288pt" version="1.1" viewBox="0 0 432 288" width="432pt" xmlns="http://www.w3.org/2000/svg" xmlns:xlink="http://www.w3.org/1999/xlink">
 <defs>
  <style type="text/css">
*{stroke-linecap:butt;stroke-linejoin:round;}
  </style>
 </defs>
 <g id="figure_1">
  <g id="patch_1">
   <path d="M 0 288 
L 432 288 
L 432 0 
L 0 0 
z
" style="fill:#ffffff;"/>
  </g>
  <g id="axes_1">
   <g id="patch_2">
    <path d="M 54 252 
L 388.8 252 
L 388.8 34.56 
L 54 34.56 
z
" style="fill:#ffffff;"/>
   </g>
   <g id="matplotlib.axis_1">
    <g id="xtick_1">
     <g id="line2d_1">
      <defs>
       <path d="M 0 0 
L 0 3.5 
" id="ma7503fe627" style="stroke:#000000;stroke-width:0.8;"/>
      </defs>
      <g>
       <use style="stroke:#000000;stroke-width:0.8;" x="69.218182" xlink:href="#ma7503fe627" y="252"/>
      </g>
     </g>
     <g id="text_1">
      <!-- 0.0 -->
      <defs>
       <path d="M 31.78125 66.40625 
Q 24.171875 66.40625 20.328125 58.90625 
Q 16.5 51.421875 16.5 36.375 
Q 16.5 21.390625 20.328125 13.890625 
Q 24.171875 6.390625 31.78125 6.390625 
Q 39.453125 6.390625 43.28125 13.890625 
Q 47.125 21.390625 47.125 36.375 
Q 47.125 51.421875 43.28125 58.90625 
Q 39.453125 66.40625 31.78125 66.40625 
z
M 31.78125 74.21875 
Q 44.046875 74.21875 50.515625 64.515625 
Q 56.984375 54.828125 56.984375 36.375 
Q 56.984375 17.96875 50.515625 8.265625 
Q 44.046875 -1.421875 31.78125 -1.421875 
Q 19.53125 -1.421875 13.0625 8.265625 
Q 6.59375 17.96875 6.59375 36.375 
Q 6.59375 54.828125 13.0625 64.515625 
Q 19.53125 74.21875 31.78125 74.21875 
z
" id="DejaVuSans-48"/>
       <path d="M 10.6875 12.40625 
L 21 12.40625 
L 21 0 
L 10.6875 0 
z
" id="DejaVuSans-46"/>
      </defs>
      <g transform="translate(61.266619 266.598437)scale(0.1 -0.1)">
       <use xlink:href="#DejaVuSans-48"/>
       <use x="63.623047" xlink:href="#DejaVuSans-46"/>
       <use x="95.410156" xlink:href="#DejaVuSans-48"/>
      </g>
     </g>
    </g>
    <g id="xtick_2">
     <g id="line2d_2">
      <g>
       <use style="stroke:#000000;stroke-width:0.8;" x="107.263636" xlink:href="#ma7503fe627" y="252"/>
      </g>
     </g>
     <g id="text_2">
      <!-- 2.5 -->
      <defs>
       <path d="M 19.1875 8.296875 
L 53.609375 8.296875 
L 53.609375 0 
L 7.328125 0 
L 7.328125 8.296875 
Q 12.9375 14.109375 22.625 23.890625 
Q 32.328125 33.6875 34.8125 36.53125 
Q 39.546875 41.84375 41.421875 45.53125 
Q 43.3125 49.21875 43.3125 52.78125 
Q 43.3125 58.59375 39.234375 62.25 
Q 35.15625 65.921875 28.609375 65.921875 
Q 23.96875 65.921875 18.8125 64.3125 
Q 13.671875 62.703125 7.8125 59.421875 
L 7.8125 69.390625 
Q 13.765625 71.78125 18.9375 73 
Q 24.125 74.21875 28.421875 74.21875 
Q 39.75 74.21875 46.484375 68.546875 
Q 53.21875 62.890625 53.21875 53.421875 
Q 53.21875 48.921875 51.53125 44.890625 
Q 49.859375 40.875 45.40625 35.40625 
Q 44.1875 33.984375 37.640625 27.21875 
Q 31.109375 20.453125 19.1875 8.296875 
z
" id="DejaVuSans-50"/>
       <path d="M 10.796875 72.90625 
L 49.515625 72.90625 
L 49.515625 64.59375 
L 19.828125 64.59375 
L 19.828125 46.734375 
Q 21.96875 47.46875 24.109375 47.828125 
Q 26.265625 48.1875 28.421875 48.1875 
Q 40.625 48.1875 47.75 41.5 
Q 54.890625 34.8125 54.890625 23.390625 
Q 54.890625 11.625 47.5625 5.09375 
Q 40.234375 -1.421875 26.90625 -1.421875 
Q 22.3125 -1.421875 17.546875 -0.640625 
Q 12.796875 0.140625 7.71875 1.703125 
L 7.71875 11.625 
Q 12.109375 9.234375 16.796875 8.0625 
Q 21.484375 6.890625 26.703125 6.890625 
Q 35.15625 6.890625 40.078125 11.328125 
Q 45.015625 15.765625 45.015625 23.390625 
Q 45.015625 31 40.078125 35.4375 
Q 35.15625 39.890625 26.703125 39.890625 
Q 22.75 39.890625 18.8125 39.015625 
Q 14.890625 38.140625 10.796875 36.28125 
z
" id="DejaVuSans-53"/>
      </defs>
      <g transform="translate(99.312074 266.598437)scale(0.1 -0.1)">
       <use xlink:href="#DejaVuSans-50"/>
       <use x="63.623047" xlink:href="#DejaVuSans-46"/>
       <use x="95.410156" xlink:href="#DejaVuSans-53"/>
      </g>
     </g>
    </g>
    <g id="xtick_3">
     <g id="line2d_3">
      <g>
       <use style="stroke:#000000;stroke-width:0.8;" x="145.309091" xlink:href="#ma7503fe627" y="252"/>
      </g>
     </g>
     <g id="text_3">
      <!-- 5.0 -->
      <g transform="translate(137.357528 266.598437)scale(0.1 -0.1)">
       <use xlink:href="#DejaVuSans-53"/>
       <use x="63.623047" xlink:href="#DejaVuSans-46"/>
       <use x="95.410156" xlink:href="#DejaVuSans-48"/>
      </g>
     </g>
    </g>
    <g id="xtick_4">
     <g id="line2d_4">
      <g>
       <use style="stroke:#000000;stroke-width:0.8;" x="183.354545" xlink:href="#ma7503fe627" y="252"/>
      </g>
     </g>
     <g id="text_4">
      <!-- 7.5 -->
      <defs>
       <path d="M 8.203125 72.90625 
L 55.078125 72.90625 
L 55.078125 68.703125 
L 28.609375 0 
L 18.3125 0 
L 43.21875 64.59375 
L 8.203125 64.59375 
z
" id="DejaVuSans-55"/>
      </defs>
      <g transform="translate(175.402983 266.598437)scale(0.1 -0.1)">
       <use xlink:href="#DejaVuSans-55"/>
       <use x="63.623047" xlink:href="#DejaVuSans-46"/>
       <use x="95.410156" xlink:href="#DejaVuSans-53"/>
      </g>
     </g>
    </g>
    <g id="xtick_5">
     <g id="line2d_5">
      <g>
       <use style="stroke:#000000;stroke-width:0.8;" x="221.4" xlink:href="#ma7503fe627" y="252"/>
      </g>
     </g>
     <g id="text_5">
      <!-- 10.0 -->
      <defs>
       <path d="M 12.40625 8.296875 
L 28.515625 8.296875 
L 28.515625 63.921875 
L 10.984375 60.40625 
L 10.984375 69.390625 
L 28.421875 72.90625 
L 38.28125 72.90625 
L 38.28125 8.296875 
L 54.390625 8.296875 
L 54.390625 0 
L 12.40625 0 
z
" id="DejaVuSans-49"/>
      </defs>
      <g transform="translate(210.267188 266.598437)scale(0.1 -0.1)">
       <use xlink:href="#DejaVuSans-49"/>
       <use x="63.623047" xlink:href="#DejaVuSans-48"/>
       <use x="127.246094" xlink:href="#DejaVuSans-46"/>
       <use x="159.033203" xlink:href="#DejaVuSans-48"/>
      </g>
     </g>
    </g>
    <g id="xtick_6">
     <g id="line2d_6">
      <g>
       <use style="stroke:#000000;stroke-width:0.8;" x="259.445455" xlink:href="#ma7503fe627" y="252"/>
      </g>
     </g>
     <g id="text_6">
      <!-- 12.5 -->
      <g transform="translate(248.312642 266.598437)scale(0.1 -0.1)">
       <use xlink:href="#DejaVuSans-49"/>
       <use x="63.623047" xlink:href="#DejaVuSans-50"/>
       <use x="127.246094" xlink:href="#DejaVuSans-46"/>
       <use x="159.033203" xlink:href="#DejaVuSans-53"/>
      </g>
     </g>
    </g>
    <g id="xtick_7">
     <g id="line2d_7">
      <g>
       <use style="stroke:#000000;stroke-width:0.8;" x="297.490909" xlink:href="#ma7503fe627" y="252"/>
      </g>
     </g>
     <g id="text_7">
      <!-- 15.0 -->
      <g transform="translate(286.358097 266.598437)scale(0.1 -0.1)">
       <use xlink:href="#DejaVuSans-49"/>
       <use x="63.623047" xlink:href="#DejaVuSans-53"/>
       <use x="127.246094" xlink:href="#DejaVuSans-46"/>
       <use x="159.033203" xlink:href="#DejaVuSans-48"/>
      </g>
     </g>
    </g>
    <g id="xtick_8">
     <g id="line2d_8">
      <g>
       <use style="stroke:#000000;stroke-width:0.8;" x="335.536364" xlink:href="#ma7503fe627" y="252"/>
      </g>
     </g>
     <g id="text_8">
      <!-- 17.5 -->
      <g transform="translate(324.403551 266.598437)scale(0.1 -0.1)">
       <use xlink:href="#DejaVuSans-49"/>
       <use x="63.623047" xlink:href="#DejaVuSans-55"/>
       <use x="127.246094" xlink:href="#DejaVuSans-46"/>
       <use x="159.033203" xlink:href="#DejaVuSans-53"/>
      </g>
     </g>
    </g>
    <g id="xtick_9">
     <g id="line2d_9">
      <g>
       <use style="stroke:#000000;stroke-width:0.8;" x="373.581818" xlink:href="#ma7503fe627" y="252"/>
      </g>
     </g>
     <g id="text_9">
      <!-- 20.0 -->
      <g transform="translate(362.449006 266.598437)scale(0.1 -0.1)">
       <use xlink:href="#DejaVuSans-50"/>
       <use x="63.623047" xlink:href="#DejaVuSans-48"/>
       <use x="127.246094" xlink:href="#DejaVuSans-46"/>
       <use x="159.033203" xlink:href="#DejaVuSans-48"/>
      </g>
     </g>
    </g>
    <g id="text_10">
     <!-- time -->
     <defs>
      <path d="M 18.3125 70.21875 
L 18.3125 54.6875 
L 36.8125 54.6875 
L 36.8125 47.703125 
L 18.3125 47.703125 
L 18.3125 18.015625 
Q 18.3125 11.328125 20.140625 9.421875 
Q 21.96875 7.515625 27.59375 7.515625 
L 36.8125 7.515625 
L 36.8125 0 
L 27.59375 0 
Q 17.1875 0 13.234375 3.875 
Q 9.28125 7.765625 9.28125 18.015625 
L 9.28125 47.703125 
L 2.6875 47.703125 
L 2.6875 54.6875 
L 9.28125 54.6875 
L 9.28125 70.21875 
z
" id="DejaVuSans-116"/>
      <path d="M 9.421875 54.6875 
L 18.40625 54.6875 
L 18.40625 0 
L 9.421875 0 
z
M 9.421875 75.984375 
L 18.40625 75.984375 
L 18.40625 64.59375 
L 9.421875 64.59375 
z
" id="DejaVuSans-105"/>
      <path d="M 52 44.1875 
Q 55.375 50.25 60.0625 53.125 
Q 64.75 56 71.09375 56 
Q 79.640625 56 84.28125 50.015625 
Q 88.921875 44.046875 88.921875 33.015625 
L 88.921875 0 
L 79.890625 0 
L 79.890625 32.71875 
Q 79.890625 40.578125 77.09375 44.375 
Q 74.3125 48.1875 68.609375 48.1875 
Q 61.625 48.1875 57.5625 43.546875 
Q 53.515625 38.921875 53.515625 30.90625 
L 53.515625 0 
L 44.484375 0 
L 44.484375 32.71875 
Q 44.484375 40.625 41.703125 44.40625 
Q 38.921875 48.1875 33.109375 48.1875 
Q 26.21875 48.1875 22.15625 43.53125 
Q 18.109375 38.875 18.109375 30.90625 
L 18.109375 0 
L 9.078125 0 
L 9.078125 54.6875 
L 18.109375 54.6875 
L 18.109375 46.1875 
Q 21.1875 51.21875 25.484375 53.609375 
Q 29.78125 56 35.6875 56 
Q 41.65625 56 45.828125 52.96875 
Q 50 49.953125 52 44.1875 
z
" id="DejaVuSans-109"/>
      <path d="M 56.203125 29.59375 
L 56.203125 25.203125 
L 14.890625 25.203125 
Q 15.484375 15.921875 20.484375 11.0625 
Q 25.484375 6.203125 34.421875 6.203125 
Q 39.59375 6.203125 44.453125 7.46875 
Q 49.3125 8.734375 54.109375 11.28125 
L 54.109375 2.78125 
Q 49.265625 0.734375 44.1875 -0.34375 
Q 39.109375 -1.421875 33.890625 -1.421875 
Q 20.796875 -1.421875 13.15625 6.1875 
Q 5.515625 13.8125 5.515625 26.8125 
Q 5.515625 40.234375 12.765625 48.109375 
Q 20.015625 56 32.328125 56 
Q 43.359375 56 49.78125 48.890625 
Q 56.203125 41.796875 56.203125 29.59375 
z
M 47.21875 32.234375 
Q 47.125 39.59375 43.09375 43.984375 
Q 39.0625 48.390625 32.421875 48.390625 
Q 24.90625 48.390625 20.390625 44.140625 
Q 15.875 39.890625 15.1875 32.171875 
z
" id="DejaVuSans-101"/>
     </defs>
     <g transform="translate(210.103906 280.276563)scale(0.1 -0.1)">
      <use xlink:href="#DejaVuSans-116"/>
      <use x="39.208984" xlink:href="#DejaVuSans-105"/>
      <use x="66.992188" xlink:href="#DejaVuSans-109"/>
      <use x="164.404297" xlink:href="#DejaVuSans-101"/>
     </g>
    </g>
   </g>
   <g id="matplotlib.axis_2">
    <g id="ytick_1">
     <g id="line2d_10">
      <defs>
       <path d="M 0 0 
L -3.5 0 
" id="m1aff339bed" style="stroke:#000000;stroke-width:0.8;"/>
      </defs>
      <g>
       <use style="stroke:#000000;stroke-width:0.8;" x="54" xlink:href="#m1aff339bed" y="238.802453"/>
      </g>
     </g>
     <g id="text_11">
      <!-- 0.05 -->
      <g transform="translate(24.734375 242.601671)scale(0.1 -0.1)">
       <use xlink:href="#DejaVuSans-48"/>
       <use x="63.623047" xlink:href="#DejaVuSans-46"/>
       <use x="95.410156" xlink:href="#DejaVuSans-48"/>
       <use x="159.033203" xlink:href="#DejaVuSans-53"/>
      </g>
     </g>
    </g>
    <g id="ytick_2">
     <g id="line2d_11">
      <g>
       <use style="stroke:#000000;stroke-width:0.8;" x="54" xlink:href="#m1aff339bed" y="197.519786"/>
      </g>
     </g>
     <g id="text_12">
      <!-- 0.10 -->
      <g transform="translate(24.734375 201.319005)scale(0.1 -0.1)">
       <use xlink:href="#DejaVuSans-48"/>
       <use x="63.623047" xlink:href="#DejaVuSans-46"/>
       <use x="95.410156" xlink:href="#DejaVuSans-49"/>
       <use x="159.033203" xlink:href="#DejaVuSans-48"/>
      </g>
     </g>
    </g>
    <g id="ytick_3">
     <g id="line2d_12">
      <g>
       <use style="stroke:#000000;stroke-width:0.8;" x="54" xlink:href="#m1aff339bed" y="156.23712"/>
      </g>
     </g>
     <g id="text_13">
      <!-- 0.15 -->
      <g transform="translate(24.734375 160.036339)scale(0.1 -0.1)">
       <use xlink:href="#DejaVuSans-48"/>
       <use x="63.623047" xlink:href="#DejaVuSans-46"/>
       <use x="95.410156" xlink:href="#DejaVuSans-49"/>
       <use x="159.033203" xlink:href="#DejaVuSans-53"/>
      </g>
     </g>
    </g>
    <g id="ytick_4">
     <g id="line2d_13">
      <g>
       <use style="stroke:#000000;stroke-width:0.8;" x="54" xlink:href="#m1aff339bed" y="114.954454"/>
      </g>
     </g>
     <g id="text_14">
      <!-- 0.20 -->
      <g transform="translate(24.734375 118.753673)scale(0.1 -0.1)">
       <use xlink:href="#DejaVuSans-48"/>
       <use x="63.623047" xlink:href="#DejaVuSans-46"/>
       <use x="95.410156" xlink:href="#DejaVuSans-50"/>
       <use x="159.033203" xlink:href="#DejaVuSans-48"/>
      </g>
     </g>
    </g>
    <g id="ytick_5">
     <g id="line2d_14">
      <g>
       <use style="stroke:#000000;stroke-width:0.8;" x="54" xlink:href="#m1aff339bed" y="73.671788"/>
      </g>
     </g>
     <g id="text_15">
      <!-- 0.25 -->
      <g transform="translate(24.734375 77.471006)scale(0.1 -0.1)">
       <use xlink:href="#DejaVuSans-48"/>
       <use x="63.623047" xlink:href="#DejaVuSans-46"/>
       <use x="95.410156" xlink:href="#DejaVuSans-50"/>
       <use x="159.033203" xlink:href="#DejaVuSans-53"/>
      </g>
     </g>
    </g>
    <g id="text_16">
     <!-- Number of particles -->
     <defs>
      <path d="M 9.8125 72.90625 
L 23.09375 72.90625 
L 55.421875 11.921875 
L 55.421875 72.90625 
L 64.984375 72.90625 
L 64.984375 0 
L 51.703125 0 
L 19.390625 60.984375 
L 19.390625 0 
L 9.8125 0 
z
" id="DejaVuSans-78"/>
      <path d="M 8.5 21.578125 
L 8.5 54.6875 
L 17.484375 54.6875 
L 17.484375 21.921875 
Q 17.484375 14.15625 20.5 10.265625 
Q 23.53125 6.390625 29.59375 6.390625 
Q 36.859375 6.390625 41.078125 11.03125 
Q 45.3125 15.671875 45.3125 23.6875 
L 45.3125 54.6875 
L 54.296875 54.6875 
L 54.296875 0 
L 45.3125 0 
L 45.3125 8.40625 
Q 42.046875 3.421875 37.71875 1 
Q 33.40625 -1.421875 27.6875 -1.421875 
Q 18.265625 -1.421875 13.375 4.4375 
Q 8.5 10.296875 8.5 21.578125 
z
M 31.109375 56 
z
" id="DejaVuSans-117"/>
      <path d="M 48.6875 27.296875 
Q 48.6875 37.203125 44.609375 42.84375 
Q 40.53125 48.484375 33.40625 48.484375 
Q 26.265625 48.484375 22.1875 42.84375 
Q 18.109375 37.203125 18.109375 27.296875 
Q 18.109375 17.390625 22.1875 11.75 
Q 26.265625 6.109375 33.40625 6.109375 
Q 40.53125 6.109375 44.609375 11.75 
Q 48.6875 17.390625 48.6875 27.296875 
z
M 18.109375 46.390625 
Q 20.953125 51.265625 25.265625 53.625 
Q 29.59375 56 35.59375 56 
Q 45.5625 56 51.78125 48.09375 
Q 58.015625 40.1875 58.015625 27.296875 
Q 58.015625 14.40625 51.78125 6.484375 
Q 45.5625 -1.421875 35.59375 -1.421875 
Q 29.59375 -1.421875 25.265625 0.953125 
Q 20.953125 3.328125 18.109375 8.203125 
L 18.109375 0 
L 9.078125 0 
L 9.078125 75.984375 
L 18.109375 75.984375 
z
" id="DejaVuSans-98"/>
      <path d="M 41.109375 46.296875 
Q 39.59375 47.171875 37.8125 47.578125 
Q 36.03125 48 33.890625 48 
Q 26.265625 48 22.1875 43.046875 
Q 18.109375 38.09375 18.109375 28.8125 
L 18.109375 0 
L 9.078125 0 
L 9.078125 54.6875 
L 18.109375 54.6875 
L 18.109375 46.1875 
Q 20.953125 51.171875 25.484375 53.578125 
Q 30.03125 56 36.53125 56 
Q 37.453125 56 38.578125 55.875 
Q 39.703125 55.765625 41.0625 55.515625 
z
" id="DejaVuSans-114"/>
      <path id="DejaVuSans-32"/>
      <path d="M 30.609375 48.390625 
Q 23.390625 48.390625 19.1875 42.75 
Q 14.984375 37.109375 14.984375 27.296875 
Q 14.984375 17.484375 19.15625 11.84375 
Q 23.34375 6.203125 30.609375 6.203125 
Q 37.796875 6.203125 41.984375 11.859375 
Q 46.1875 17.53125 46.1875 27.296875 
Q 46.1875 37.015625 41.984375 42.703125 
Q 37.796875 48.390625 30.609375 48.390625 
z
M 30.609375 56 
Q 42.328125 56 49.015625 48.375 
Q 55.71875 40.765625 55.71875 27.296875 
Q 55.71875 13.875 49.015625 6.21875 
Q 42.328125 -1.421875 30.609375 -1.421875 
Q 18.84375 -1.421875 12.171875 6.21875 
Q 5.515625 13.875 5.515625 27.296875 
Q 5.515625 40.765625 12.171875 48.375 
Q 18.84375 56 30.609375 56 
z
" id="DejaVuSans-111"/>
      <path d="M 37.109375 75.984375 
L 37.109375 68.5 
L 28.515625 68.5 
Q 23.6875 68.5 21.796875 66.546875 
Q 19.921875 64.59375 19.921875 59.515625 
L 19.921875 54.6875 
L 34.71875 54.6875 
L 34.71875 47.703125 
L 19.921875 47.703125 
L 19.921875 0 
L 10.890625 0 
L 10.890625 47.703125 
L 2.296875 47.703125 
L 2.296875 54.6875 
L 10.890625 54.6875 
L 10.890625 58.5 
Q 10.890625 67.625 15.140625 71.796875 
Q 19.390625 75.984375 28.609375 75.984375 
z
" id="DejaVuSans-102"/>
      <path d="M 18.109375 8.203125 
L 18.109375 -20.796875 
L 9.078125 -20.796875 
L 9.078125 54.6875 
L 18.109375 54.6875 
L 18.109375 46.390625 
Q 20.953125 51.265625 25.265625 53.625 
Q 29.59375 56 35.59375 56 
Q 45.5625 56 51.78125 48.09375 
Q 58.015625 40.1875 58.015625 27.296875 
Q 58.015625 14.40625 51.78125 6.484375 
Q 45.5625 -1.421875 35.59375 -1.421875 
Q 29.59375 -1.421875 25.265625 0.953125 
Q 20.953125 3.328125 18.109375 8.203125 
z
M 48.6875 27.296875 
Q 48.6875 37.203125 44.609375 42.84375 
Q 40.53125 48.484375 33.40625 48.484375 
Q 26.265625 48.484375 22.1875 42.84375 
Q 18.109375 37.203125 18.109375 27.296875 
Q 18.109375 17.390625 22.1875 11.75 
Q 26.265625 6.109375 33.40625 6.109375 
Q 40.53125 6.109375 44.609375 11.75 
Q 48.6875 17.390625 48.6875 27.296875 
z
" id="DejaVuSans-112"/>
      <path d="M 34.28125 27.484375 
Q 23.390625 27.484375 19.1875 25 
Q 14.984375 22.515625 14.984375 16.5 
Q 14.984375 11.71875 18.140625 8.90625 
Q 21.296875 6.109375 26.703125 6.109375 
Q 34.1875 6.109375 38.703125 11.40625 
Q 43.21875 16.703125 43.21875 25.484375 
L 43.21875 27.484375 
z
M 52.203125 31.203125 
L 52.203125 0 
L 43.21875 0 
L 43.21875 8.296875 
Q 40.140625 3.328125 35.546875 0.953125 
Q 30.953125 -1.421875 24.3125 -1.421875 
Q 15.921875 -1.421875 10.953125 3.296875 
Q 6 8.015625 6 15.921875 
Q 6 25.140625 12.171875 29.828125 
Q 18.359375 34.515625 30.609375 34.515625 
L 43.21875 34.515625 
L 43.21875 35.40625 
Q 43.21875 41.609375 39.140625 45 
Q 35.0625 48.390625 27.6875 48.390625 
Q 23 48.390625 18.546875 47.265625 
Q 14.109375 46.140625 10.015625 43.890625 
L 10.015625 52.203125 
Q 14.9375 54.109375 19.578125 55.046875 
Q 24.21875 56 28.609375 56 
Q 40.484375 56 46.34375 49.84375 
Q 52.203125 43.703125 52.203125 31.203125 
z
" id="DejaVuSans-97"/>
      <path d="M 48.78125 52.59375 
L 48.78125 44.1875 
Q 44.96875 46.296875 41.140625 47.34375 
Q 37.3125 48.390625 33.40625 48.390625 
Q 24.65625 48.390625 19.8125 42.84375 
Q 14.984375 37.3125 14.984375 27.296875 
Q 14.984375 17.28125 19.8125 11.734375 
Q 24.65625 6.203125 33.40625 6.203125 
Q 37.3125 6.203125 41.140625 7.25 
Q 44.96875 8.296875 48.78125 10.40625 
L 48.78125 2.09375 
Q 45.015625 0.34375 40.984375 -0.53125 
Q 36.96875 -1.421875 32.421875 -1.421875 
Q 20.0625 -1.421875 12.78125 6.34375 
Q 5.515625 14.109375 5.515625 27.296875 
Q 5.515625 40.671875 12.859375 48.328125 
Q 20.21875 56 33.015625 56 
Q 37.15625 56 41.109375 55.140625 
Q 45.0625 54.296875 48.78125 52.59375 
z
" id="DejaVuSans-99"/>
      <path d="M 9.421875 75.984375 
L 18.40625 75.984375 
L 18.40625 0 
L 9.421875 0 
z
" id="DejaVuSans-108"/>
      <path d="M 44.28125 53.078125 
L 44.28125 44.578125 
Q 40.484375 46.53125 36.375 47.5 
Q 32.28125 48.484375 27.875 48.484375 
Q 21.1875 48.484375 17.84375 46.4375 
Q 14.5 44.390625 14.5 40.28125 
Q 14.5 37.15625 16.890625 35.375 
Q 19.28125 33.59375 26.515625 31.984375 
L 29.59375 31.296875 
Q 39.15625 29.25 43.1875 25.515625 
Q 47.21875 21.78125 47.21875 15.09375 
Q 47.21875 7.46875 41.1875 3.015625 
Q 35.15625 -1.421875 24.609375 -1.421875 
Q 20.21875 -1.421875 15.453125 -0.5625 
Q 10.6875 0.296875 5.421875 2 
L 5.421875 11.28125 
Q 10.40625 8.6875 15.234375 7.390625 
Q 20.0625 6.109375 24.8125 6.109375 
Q 31.15625 6.109375 34.5625 8.28125 
Q 37.984375 10.453125 37.984375 14.40625 
Q 37.984375 18.0625 35.515625 20.015625 
Q 33.0625 21.96875 24.703125 23.78125 
L 21.578125 24.515625 
Q 13.234375 26.265625 9.515625 29.90625 
Q 5.8125 33.546875 5.8125 39.890625 
Q 5.8125 47.609375 11.28125 51.796875 
Q 16.75 56 26.8125 56 
Q 31.78125 56 36.171875 55.265625 
Q 40.578125 54.546875 44.28125 53.078125 
z
" id="DejaVuSans-115"/>
     </defs>
     <g transform="translate(18.654687 192.826094)rotate(-90)scale(0.1 -0.1)">
      <use xlink:href="#DejaVuSans-78"/>
      <use x="74.804688" xlink:href="#DejaVuSans-117"/>
      <use x="138.183594" xlink:href="#DejaVuSans-109"/>
      <use x="235.595703" xlink:href="#DejaVuSans-98"/>
      <use x="299.072266" xlink:href="#DejaVuSans-101"/>
      <use x="360.595703" xlink:href="#DejaVuSans-114"/>
      <use x="401.708984" xlink:href="#DejaVuSans-32"/>
      <use x="433.496094" xlink:href="#DejaVuSans-111"/>
      <use x="494.677734" xlink:href="#DejaVuSans-102"/>
      <use x="529.882812" xlink:href="#DejaVuSans-32"/>
      <use x="561.669922" xlink:href="#DejaVuSans-112"/>
      <use x="625.146484" xlink:href="#DejaVuSans-97"/>
      <use x="686.425781" xlink:href="#DejaVuSans-114"/>
      <use x="727.539062" xlink:href="#DejaVuSans-116"/>
      <use x="766.748047" xlink:href="#DejaVuSans-105"/>
      <use x="794.53125" xlink:href="#DejaVuSans-99"/>
      <use x="849.511719" xlink:href="#DejaVuSans-108"/>
      <use x="877.294922" xlink:href="#DejaVuSans-101"/>
      <use x="938.818359" xlink:href="#DejaVuSans-115"/>
     </g>
    </g>
   </g>
   <g id="line2d_15">
    <path clip-path="url(#p54c3cb6254)" d="M 69.218182 242.009011 
L 72.292562 221.464092 
L 75.366942 175.920759 
L 78.441322 112.179979 
L 81.515702 76.425359 
L 84.590083 55.18397 
L 87.664463 73.880004 
L 90.738843 106.774527 
L 93.813223 146.335531 
L 96.887603 176.24216 
L 99.961983 189.811399 
L 103.036364 178.082092 
L 106.110744 158.255472 
L 109.185124 128.034463 
L 112.259504 112.813184 
L 115.333884 111.137952 
L 118.408264 126.873373 
L 121.482645 147.579344 
L 124.557025 158.41535 
L 127.631405 150.877436 
L 130.705785 135.617735 
L 133.780165 110.119824 
L 136.854545 108.718232 
L 139.928926 117.082602 
L 143.003306 144.332849 
L 146.077686 174.103348 
L 149.152066 191.385859 
L 152.226446 187.487421 
L 155.300826 168.530928 
L 158.375207 123.956355 
L 161.449587 87.405945 
L 164.523967 57.784576 
L 167.598347 55.396123 
L 170.672727 86.819774 
L 173.747107 136.641673 
L 176.821488 192.275953 
L 179.895868 228.214315 
L 182.970248 228.815659 
L 186.044628 197.075133 
L 189.119008 148.752346 
L 192.193388 101.809663 
L 195.267769 80.21141 
L 198.342149 79.484644 
L 201.416529 105.278782 
L 204.490909 136.749113 
L 207.565289 163.978594 
L 210.639669 180.798584 
L 213.71405 176.004615 
L 216.78843 159.342156 
L 219.86281 139.006651 
L 222.93719 120.48899 
L 226.01157 123.906818 
L 229.08595 139.695523 
L 232.160331 162.745878 
L 235.234711 180.743243 
L 238.309091 178.53554 
L 241.383471 155.360995 
L 244.457851 131.386387 
L 247.532231 107.487688 
L 250.606612 111.124292 
L 253.680992 128.697586 
L 256.755372 159.558722 
L 259.829752 184.022306 
L 262.904132 195.60275 
L 265.978512 179.92056 
L 269.052893 152.25849 
L 272.127273 107.585217 
L 275.201653 75.151481 
L 278.276033 57.7625 
L 281.350413 73.684363 
L 284.424793 115.414931 
L 287.499174 170.419418 
L 290.573554 215.92617 
L 293.647934 235.592031 
L 296.722314 216.312813 
L 299.796694 177.973428 
L 302.871074 127.770911 
L 305.945455 94.45849 
L 309.019835 82.517375 
L 312.094215 93.691137 
L 315.168595 116.661628 
L 318.242975 146.933463 
L 321.317355 160.950016 
L 324.391736 170.707814 
L 327.466116 159.950384 
L 330.540496 146.659648 
L 333.614876 134.386195 
L 336.689256 134.434432 
L 339.763636 146.480306 
L 342.838017 169.911963 
L 345.912397 182.371232 
L 348.986777 182.316333 
L 352.061157 158.335644 
L 355.135537 126.026375 
L 358.209917 98.79901 
L 361.284298 92.583401 
L 364.358678 110.396227 
L 367.433058 146.375613 
L 370.507438 181.590417 
L 373.581818 206.784532 
" style="fill:none;stroke:#0000ff;stroke-linecap:square;stroke-width:1.5;"/>
   </g>
   <g id="line2d_16">
    <path clip-path="url(#p54c3cb6254)" d="M 69.218182 242.009011 
L 72.292562 221.464092 
L 75.366942 175.920759 
L 78.441322 112.179979 
L 81.515702 76.425359 
L 84.590083 55.18397 
L 87.664463 73.880004 
L 90.738843 106.774527 
L 93.813223 146.335531 
L 96.887603 176.24216 
L 99.961983 189.811399 
L 103.036364 178.082092 
L 106.110744 158.255472 
L 109.185124 128.034463 
L 112.259504 112.813184 
L 115.333884 111.137952 
L 118.408264 126.873373 
L 121.482645 147.579344 
L 124.557025 158.41535 
L 127.631405 150.877436 
L 130.705785 135.617735 
L 133.780165 110.119824 
L 136.854545 108.718232 
L 139.928926 117.082602 
L 143.003306 144.332849 
L 146.077686 174.103348 
L 149.152066 191.385859 
L 152.226446 187.487421 
L 155.300826 168.530928 
L 158.375207 123.956355 
L 161.449587 87.405945 
L 164.523967 57.784576 
L 167.598347 55.396123 
L 170.672727 86.819774 
L 173.747107 136.641673 
L 176.821488 192.275953 
L 179.895868 228.214315 
L 182.970248 228.815659 
L 186.044628 197.075133 
L 189.119008 148.752346 
L 192.193388 101.809663 
L 195.267769 80.21141 
L 198.342149 79.484644 
L 201.416529 105.278782 
L 204.490909 136.749113 
L 207.565289 163.978594 
L 210.639669 180.798584 
L 213.71405 176.004615 
L 216.78843 159.342156 
L 219.86281 139.006651 
L 222.93719 120.48899 
L 226.01157 123.906818 
L 229.08595 139.695523 
L 232.160331 162.745878 
L 235.234711 180.743243 
L 238.309091 178.53554 
L 241.383471 155.360995 
L 244.457851 131.386387 
L 247.532231 107.487688 
L 250.606612 111.124292 
L 253.680992 128.697586 
L 256.755372 159.558722 
L 259.829752 184.022306 
L 262.904132 195.60275 
L 265.978512 179.92056 
L 269.052893 152.25849 
L 272.127273 107.585217 
L 275.201653 75.151481 
L 278.276033 57.7625 
L 281.350413 73.684363 
L 284.424793 115.414931 
L 287.499174 170.419418 
L 290.573554 215.92617 
L 293.647934 235.592031 
L 296.722314 216.312813 
L 299.796694 177.973428 
L 302.871074 127.770911 
L 305.945455 94.45849 
L 309.019835 82.517375 
L 312.094215 93.691137 
L 315.168595 116.661628 
L 318.242975 146.933463 
L 321.317355 160.950016 
L 324.391736 170.707814 
L 327.466116 159.950384 
L 330.540496 146.659648 
L 333.614876 134.386195 
L 336.689256 134.434432 
L 339.763636 146.480306 
L 342.838017 169.911963 
L 345.912397 182.371232 
L 348.986777 182.316333 
L 352.061157 158.335644 
L 355.135537 126.026375 
L 358.209917 98.79901 
L 361.284298 92.583401 
L 364.358678 110.396227 
L 367.433058 146.375613 
L 370.507438 181.590417 
L 373.581818 206.784532 
" style="fill:none;stroke:#ffa500;stroke-dasharray:5.55,2.4;stroke-dashoffset:0;stroke-width:1.5;"/>
   </g>
   <g id="line2d_17">
    <path clip-path="url(#p54c3cb6254)" d="M 69.218182 242.116364 
L 72.292562 221.205828 
L 75.366942 175.638264 
L 78.441322 111.331901 
L 81.515702 75.799516 
L 84.590083 54.192249 
L 87.664463 72.578829 
L 90.738843 106.362932 
L 93.813223 145.784938 
L 96.887603 175.772885 
L 99.961983 189.535537 
L 103.036364 177.444421 
L 106.110744 157.438036 
L 109.185124 126.393842 
L 112.259504 111.687153 
L 115.333884 109.324604 
L 118.408264 125.87633 
L 121.482645 146.23581 
L 124.557025 156.754292 
L 127.631405 149.746752 
L 130.705785 132.914029 
L 133.780165 106.756432 
L 136.854545 105.666149 
L 139.928926 112.503689 
L 143.003306 140.64001 
L 146.077686 170.212294 
L 149.152066 187.568492 
L 152.226446 184.168463 
L 155.300826 165.162839 
L 158.375207 119.625894 
L 161.449587 83.944274 
L 164.523967 52.943029 
L 167.598347 50.540467 
L 170.672727 81.677488 
L 173.747107 131.718819 
L 176.821488 187.004184 
L 179.895868 223.531177 
L 182.970248 223.270748 
L 186.044628 192.102557 
L 189.119008 142.14084 
L 192.193388 95.785713 
L 195.267769 72.639017 
L 198.342149 72.755547 
L 201.416529 97.98213 
L 204.490909 129.265977 
L 207.565289 156.502154 
L 210.639669 173.762726 
L 213.71405 166.319206 
L 216.78843 150.716288 
L 219.86281 128.086923 
L 222.93719 109.327173 
L 226.01157 113.010997 
L 229.08595 128.821328 
L 232.160331 152.156387 
L 235.234711 171.928343 
L 238.309091 167.687322 
L 241.383471 145.665371 
L 244.457851 120.60522 
L 247.532231 95.331539 
L 250.606612 99.032334 
L 253.680992 116.123024 
L 256.755372 147.379106 
L 259.829752 171.93732 
L 262.904132 184.16494 
L 265.978512 168.339156 
L 269.052893 140.951154 
L 272.127273 95.158212 
L 275.201653 63.743796 
L 278.276033 44.443636 
L 281.350413 62.237343 
L 284.424793 102.37374 
L 287.499174 157.815373 
L 290.573554 204.476409 
L 293.647934 222.491694 
L 296.722314 203.275602 
L 299.796694 165.449454 
L 302.871074 112.580261 
L 305.945455 80.390424 
L 309.019835 68.309805 
L 312.094215 78.19477 
L 315.168595 103.587275 
L 318.242975 132.717431 
L 321.317355 146.147008 
L 324.391736 157.702056 
L 327.466116 143.923316 
L 330.540496 132.040363 
L 333.614876 118.459597 
L 336.689256 119.542353 
L 339.763636 131.505737 
L 342.838017 156.908966 
L 345.912397 168.411579 
L 348.986777 170.75342 
L 352.061157 144.126563 
L 355.135537 114.012333 
L 358.209917 84.066645 
L 361.284298 79.230718 
L 364.358678 96.940924 
L 367.433058 131.950923 
L 370.507438 169.037057 
L 373.581818 194.244049 
" style="fill:none;stroke:#008000;stroke-linecap:square;stroke-width:1.5;"/>
   </g>
   <g id="line2d_18">
    <path clip-path="url(#p54c3cb6254)" d="M 69.218182 242.116364 
L 72.292562 221.205828 
L 75.366942 175.638264 
L 78.441322 111.331901 
L 81.515702 75.799516 
L 84.590083 54.192249 
L 87.664463 72.578829 
L 90.738843 106.362932 
L 93.813223 145.784938 
L 96.887603 175.772885 
L 99.961983 189.535537 
L 103.036364 177.444421 
L 106.110744 157.438036 
L 109.185124 126.393842 
L 112.259504 111.687153 
L 115.333884 109.324604 
L 118.408264 125.87633 
L 121.482645 146.23581 
L 124.557025 156.754292 
L 127.631405 149.746752 
L 130.705785 132.914029 
L 133.780165 106.756432 
L 136.854545 105.666149 
L 139.928926 112.503689 
L 143.003306 140.64001 
L 146.077686 170.212294 
L 149.152066 187.568492 
L 152.226446 184.168463 
L 155.300826 165.162839 
L 158.375207 119.625894 
L 161.449587 83.944274 
L 164.523967 52.943029 
L 167.598347 50.540467 
L 170.672727 81.677488 
L 173.747107 131.718819 
L 176.821488 187.004184 
L 179.895868 223.531177 
L 182.970248 223.270748 
L 186.044628 192.102557 
L 189.119008 142.14084 
L 192.193388 95.785713 
L 195.267769 72.639017 
L 198.342149 72.755547 
L 201.416529 97.98213 
L 204.490909 129.265977 
L 207.565289 156.502154 
L 210.639669 173.762726 
L 213.71405 166.319206 
L 216.78843 150.716288 
L 219.86281 128.086923 
L 222.93719 109.327173 
L 226.01157 113.010997 
L 229.08595 128.821328 
L 232.160331 152.156387 
L 235.234711 171.928343 
L 238.309091 167.687322 
L 241.383471 145.665371 
L 244.457851 120.60522 
L 247.532231 95.331539 
L 250.606612 99.032334 
L 253.680992 116.123024 
L 256.755372 147.379106 
L 259.829752 171.93732 
L 262.904132 184.16494 
L 265.978512 168.339156 
L 269.052893 140.951154 
L 272.127273 95.158212 
L 275.201653 63.743796 
L 278.276033 44.443636 
L 281.350413 62.237343 
L 284.424793 102.37374 
L 287.499174 157.815373 
L 290.573554 204.476409 
L 293.647934 222.491694 
L 296.722314 203.275602 
L 299.796694 165.449454 
L 302.871074 112.580261 
L 305.945455 80.390424 
L 309.019835 68.309805 
L 312.094215 78.19477 
L 315.168595 103.587275 
L 318.242975 132.717431 
L 321.317355 146.147008 
L 324.391736 157.702056 
L 327.466116 143.923316 
L 330.540496 132.040363 
L 333.614876 118.459597 
L 336.689256 119.542353 
L 339.763636 131.505737 
L 342.838017 156.908966 
L 345.912397 168.411579 
L 348.986777 170.75342 
L 352.061157 144.126563 
L 355.135537 114.012333 
L 358.209917 84.066645 
L 361.284298 79.230718 
L 364.358678 96.940924 
L 367.433058 131.950923 
L 370.507438 169.037057 
L 373.581818 194.244049 
" style="fill:none;stroke:#ff0000;stroke-dasharray:5.55,2.4;stroke-dashoffset:0;stroke-width:1.5;"/>
   </g>
   <g id="patch_3">
    <path d="M 54 252 
L 54 34.56 
" style="fill:none;stroke:#000000;stroke-linecap:square;stroke-linejoin:miter;stroke-width:0.8;"/>
   </g>
   <g id="patch_4">
    <path d="M 388.8 252 
L 388.8 34.56 
" style="fill:none;stroke:#000000;stroke-linecap:square;stroke-linejoin:miter;stroke-width:0.8;"/>
   </g>
   <g id="patch_5">
    <path d="M 54 252 
L 388.8 252 
" style="fill:none;stroke:#000000;stroke-linecap:square;stroke-linejoin:miter;stroke-width:0.8;"/>
   </g>
   <g id="patch_6">
    <path d="M 54 34.56 
L 388.8 34.56 
" style="fill:none;stroke:#000000;stroke-linecap:square;stroke-linejoin:miter;stroke-width:0.8;"/>
   </g>
   <g id="text_17">
    <!-- Time evolution on 2x2 lattice -->
    <defs>
     <path d="M -0.296875 72.90625 
L 61.375 72.90625 
L 61.375 64.59375 
L 35.5 64.59375 
L 35.5 0 
L 25.59375 0 
L 25.59375 64.59375 
L -0.296875 64.59375 
z
" id="DejaVuSans-84"/>
     <path d="M 2.984375 54.6875 
L 12.5 54.6875 
L 29.59375 8.796875 
L 46.6875 54.6875 
L 56.203125 54.6875 
L 35.6875 0 
L 23.484375 0 
z
" id="DejaVuSans-118"/>
     <path d="M 54.890625 33.015625 
L 54.890625 0 
L 45.90625 0 
L 45.90625 32.71875 
Q 45.90625 40.484375 42.875 44.328125 
Q 39.84375 48.1875 33.796875 48.1875 
Q 26.515625 48.1875 22.3125 43.546875 
Q 18.109375 38.921875 18.109375 30.90625 
L 18.109375 0 
L 9.078125 0 
L 9.078125 54.6875 
L 18.109375 54.6875 
L 18.109375 46.1875 
Q 21.34375 51.125 25.703125 53.5625 
Q 30.078125 56 35.796875 56 
Q 45.21875 56 50.046875 50.171875 
Q 54.890625 44.34375 54.890625 33.015625 
z
" id="DejaVuSans-110"/>
     <path d="M 54.890625 54.6875 
L 35.109375 28.078125 
L 55.90625 0 
L 45.3125 0 
L 29.390625 21.484375 
L 13.484375 0 
L 2.875 0 
L 24.125 28.609375 
L 4.6875 54.6875 
L 15.28125 54.6875 
L 29.78125 35.203125 
L 44.28125 54.6875 
z
" id="DejaVuSans-120"/>
    </defs>
    <g transform="translate(133.665 28.56)scale(0.12 -0.12)">
     <use xlink:href="#DejaVuSans-84"/>
     <use x="61.037109" xlink:href="#DejaVuSans-105"/>
     <use x="88.820312" xlink:href="#DejaVuSans-109"/>
     <use x="186.232422" xlink:href="#DejaVuSans-101"/>
     <use x="247.755859" xlink:href="#DejaVuSans-32"/>
     <use x="279.542969" xlink:href="#DejaVuSans-101"/>
     <use x="341.066406" xlink:href="#DejaVuSans-118"/>
     <use x="400.246094" xlink:href="#DejaVuSans-111"/>
     <use x="461.427734" xlink:href="#DejaVuSans-108"/>
     <use x="489.210938" xlink:href="#DejaVuSans-117"/>
     <use x="552.589844" xlink:href="#DejaVuSans-116"/>
     <use x="591.798828" xlink:href="#DejaVuSans-105"/>
     <use x="619.582031" xlink:href="#DejaVuSans-111"/>
     <use x="680.763672" xlink:href="#DejaVuSans-110"/>
     <use x="744.142578" xlink:href="#DejaVuSans-32"/>
     <use x="775.929688" xlink:href="#DejaVuSans-111"/>
     <use x="837.111328" xlink:href="#DejaVuSans-110"/>
     <use x="900.490234" xlink:href="#DejaVuSans-32"/>
     <use x="932.277344" xlink:href="#DejaVuSans-50"/>
     <use x="995.900391" xlink:href="#DejaVuSans-120"/>
     <use x="1055.080078" xlink:href="#DejaVuSans-50"/>
     <use x="1118.703125" xlink:href="#DejaVuSans-32"/>
     <use x="1150.490234" xlink:href="#DejaVuSans-108"/>
     <use x="1178.273438" xlink:href="#DejaVuSans-97"/>
     <use x="1239.552734" xlink:href="#DejaVuSans-116"/>
     <use x="1278.761719" xlink:href="#DejaVuSans-116"/>
     <use x="1317.970703" xlink:href="#DejaVuSans-105"/>
     <use x="1345.753906" xlink:href="#DejaVuSans-99"/>
     <use x="1400.734375" xlink:href="#DejaVuSans-101"/>
    </g>
   </g>
   <g id="legend_1">
    <g id="patch_7">
     <path d="M 61 101.2725 
L 153.390625 101.2725 
Q 155.390625 101.2725 155.390625 99.2725 
L 155.390625 41.56 
Q 155.390625 39.56 153.390625 39.56 
L 61 39.56 
Q 59 39.56 59 41.56 
L 59 99.2725 
Q 59 101.2725 61 101.2725 
z
" style="fill:#ffffff;opacity:0.8;stroke:#cccccc;stroke-linejoin:miter;"/>
    </g>
    <g id="patch_8">
     <path d="M 63 51.158437 
L 83 51.158437 
L 83 44.158437 
L 63 44.158437 
z
" style="fill:#0000ff;stroke:#0000ff;stroke-linejoin:miter;"/>
    </g>
    <g id="text_18">
     <!-- x = 1, y = 1 -->
     <defs>
      <path d="M 10.59375 45.40625 
L 73.1875 45.40625 
L 73.1875 37.203125 
L 10.59375 37.203125 
z
M 10.59375 25.484375 
L 73.1875 25.484375 
L 73.1875 17.1875 
L 10.59375 17.1875 
z
" id="DejaVuSans-61"/>
      <path d="M 11.71875 12.40625 
L 22.015625 12.40625 
L 22.015625 4 
L 14.015625 -11.625 
L 7.71875 -11.625 
L 11.71875 4 
z
" id="DejaVuSans-44"/>
      <path d="M 32.171875 -5.078125 
Q 28.375 -14.84375 24.75 -17.8125 
Q 21.140625 -20.796875 15.09375 -20.796875 
L 7.90625 -20.796875 
L 7.90625 -13.28125 
L 13.1875 -13.28125 
Q 16.890625 -13.28125 18.9375 -11.515625 
Q 21 -9.765625 23.484375 -3.21875 
L 25.09375 0.875 
L 2.984375 54.6875 
L 12.5 54.6875 
L 29.59375 11.921875 
L 46.6875 54.6875 
L 56.203125 54.6875 
z
" id="DejaVuSans-121"/>
     </defs>
     <g transform="translate(91 51.158437)scale(0.1 -0.1)">
      <use xlink:href="#DejaVuSans-120"/>
      <use x="59.179688" xlink:href="#DejaVuSans-32"/>
      <use x="90.966797" xlink:href="#DejaVuSans-61"/>
      <use x="174.755859" xlink:href="#DejaVuSans-32"/>
      <use x="206.542969" xlink:href="#DejaVuSans-49"/>
      <use x="270.166016" xlink:href="#DejaVuSans-44"/>
      <use x="301.953125" xlink:href="#DejaVuSans-32"/>
      <use x="333.740234" xlink:href="#DejaVuSans-121"/>
      <use x="392.919922" xlink:href="#DejaVuSans-32"/>
      <use x="424.707031" xlink:href="#DejaVuSans-61"/>
      <use x="508.496094" xlink:href="#DejaVuSans-32"/>
      <use x="540.283203" xlink:href="#DejaVuSans-49"/>
     </g>
    </g>
    <g id="patch_9">
     <path d="M 63 65.836562 
L 83 65.836562 
L 83 58.836562 
L 63 58.836562 
z
" style="fill:#ffa500;stroke:#ffa500;stroke-linejoin:miter;"/>
    </g>
    <g id="text_19">
     <!-- x = 2, y = 1 -->
     <g transform="translate(91 65.836562)scale(0.1 -0.1)">
      <use xlink:href="#DejaVuSans-120"/>
      <use x="59.179688" xlink:href="#DejaVuSans-32"/>
      <use x="90.966797" xlink:href="#DejaVuSans-61"/>
      <use x="174.755859" xlink:href="#DejaVuSans-32"/>
      <use x="206.542969" xlink:href="#DejaVuSans-50"/>
      <use x="270.166016" xlink:href="#DejaVuSans-44"/>
      <use x="301.953125" xlink:href="#DejaVuSans-32"/>
      <use x="333.740234" xlink:href="#DejaVuSans-121"/>
      <use x="392.919922" xlink:href="#DejaVuSans-32"/>
      <use x="424.707031" xlink:href="#DejaVuSans-61"/>
      <use x="508.496094" xlink:href="#DejaVuSans-32"/>
      <use x="540.283203" xlink:href="#DejaVuSans-49"/>
     </g>
    </g>
    <g id="patch_10">
     <path d="M 63 80.514687 
L 83 80.514687 
L 83 73.514687 
L 63 73.514687 
z
" style="fill:#008000;stroke:#008000;stroke-linejoin:miter;"/>
    </g>
    <g id="text_20">
     <!-- x = 1, y = 2 -->
     <g transform="translate(91 80.514687)scale(0.1 -0.1)">
      <use xlink:href="#DejaVuSans-120"/>
      <use x="59.179688" xlink:href="#DejaVuSans-32"/>
      <use x="90.966797" xlink:href="#DejaVuSans-61"/>
      <use x="174.755859" xlink:href="#DejaVuSans-32"/>
      <use x="206.542969" xlink:href="#DejaVuSans-49"/>
      <use x="270.166016" xlink:href="#DejaVuSans-44"/>
      <use x="301.953125" xlink:href="#DejaVuSans-32"/>
      <use x="333.740234" xlink:href="#DejaVuSans-121"/>
      <use x="392.919922" xlink:href="#DejaVuSans-32"/>
      <use x="424.707031" xlink:href="#DejaVuSans-61"/>
      <use x="508.496094" xlink:href="#DejaVuSans-32"/>
      <use x="540.283203" xlink:href="#DejaVuSans-50"/>
     </g>
    </g>
    <g id="patch_11">
     <path d="M 63 95.192813 
L 83 95.192813 
L 83 88.192813 
L 63 88.192813 
z
" style="fill:#ff0000;stroke:#ff0000;stroke-linejoin:miter;"/>
    </g>
    <g id="text_21">
     <!-- x = 2, y = 2 -->
     <g transform="translate(91 95.192813)scale(0.1 -0.1)">
      <use xlink:href="#DejaVuSans-120"/>
      <use x="59.179688" xlink:href="#DejaVuSans-32"/>
      <use x="90.966797" xlink:href="#DejaVuSans-61"/>
      <use x="174.755859" xlink:href="#DejaVuSans-32"/>
      <use x="206.542969" xlink:href="#DejaVuSans-50"/>
      <use x="270.166016" xlink:href="#DejaVuSans-44"/>
      <use x="301.953125" xlink:href="#DejaVuSans-32"/>
      <use x="333.740234" xlink:href="#DejaVuSans-121"/>
      <use x="392.919922" xlink:href="#DejaVuSans-32"/>
      <use x="424.707031" xlink:href="#DejaVuSans-61"/>
      <use x="508.496094" xlink:href="#DejaVuSans-32"/>
      <use x="540.283203" xlink:href="#DejaVuSans-50"/>
     </g>
    </g>
   </g>
  </g>
 </g>
 <defs>
  <clipPath id="p54c3cb6254">
   <rect height="217.44" width="334.8" x="54" y="34.56"/>
  </clipPath>
 </defs>
</svg>
